<?xml version="1.0" standalone="no"?>
 <!DOCTYPE svg PUBLIC "-//W3C//DTD SVG 1.1//EN" 
 "http://www.w3.org/Graphics/SVG/1.1/DTD/svg11.dtd"> 
<svg
  xmlns:svg="http://www.w3.org/2000/svg"
  xmlns="http://www.w3.org/2000/svg"
  xmlns:xlink="http://www.w3.org/1999/xlink"
  version="1.1"
  width="76.0476mm" height="33.3248mm" viewBox="0.0000 0.0000 76.0476 33.3248">
<title>SVG Image created as Spice-F_Cu.svg date 2025/09/12 17:30:20 </title>
  <desc>Image generated by PCBNEW </desc>
<g style="fill:#000000; fill-opacity:1.0000;stroke:#000000; stroke-opacity:1.0000;
stroke-linecap:round; stroke-linejoin:round;"
 transform="translate(0 0) scale(1 1)">
</g>
<g style="fill:#000000; fill-opacity:1.0000; 
stroke:#000000; stroke-width:0.0212; stroke-opacity:1; 
stroke-linecap:round; stroke-linejoin:round;">
<rect x="-5.000000" y="-5.000000" width="86.063097" height="43.325000" rx="0.000000" />
<path style="fill:#FFFFFF; fill-opacity:1.0000; stroke:none;fill-rule:evenodd;"
d="M 46.5000,16.8800
46.5114,16.8226
46.5439,16.7739
46.5926,16.7414
46.6500,16.7300
48.1000,16.7300
48.1574,16.7414
48.2061,16.7739
48.2386,16.8226
48.2500,16.8800
48.2500,17.1800
48.2386,17.2374
48.2061,17.2861
48.1574,17.3186
48.1000,17.3300
46.6500,17.3300
46.5926,17.3186
46.5439,17.2861
46.5114,17.2374
46.5000,17.1800
Z" /> 
<path style="fill:#FFFFFF; fill-opacity:1.0000; stroke:none;fill-rule:evenodd;"
d="M 46.5000,18.1500
46.5114,18.0926
46.5439,18.0439
46.5926,18.0114
46.6500,18.0000
48.1000,18.0000
48.1574,18.0114
48.2061,18.0439
48.2386,18.0926
48.2500,18.1500
48.2500,18.4500
48.2386,18.5074
48.2061,18.5561
48.1574,18.5886
48.1000,18.6000
46.6500,18.6000
46.5926,18.5886
46.5439,18.5561
46.5114,18.5074
46.5000,18.4500
Z" /> 
<path style="fill:#FFFFFF; fill-opacity:1.0000; stroke:none;fill-rule:evenodd;"
d="M 46.5000,19.4200
46.5114,19.3626
46.5439,19.3139
46.5926,19.2814
46.6500,19.2700
48.1000,19.2700
48.1574,19.2814
48.2061,19.3139
48.2386,19.3626
48.2500,19.4200
48.2500,19.7200
48.2386,19.7774
48.2061,19.8261
48.1574,19.8586
48.1000,19.8700
46.6500,19.8700
46.5926,19.8586
46.5439,19.8261
46.5114,19.7774
46.5000,19.7200
Z" /> 
<path style="fill:#FFFFFF; fill-opacity:1.0000; stroke:none;fill-rule:evenodd;"
d="M 46.5000,20.6900
46.5114,20.6326
46.5439,20.5839
46.5926,20.5514
46.6500,20.5400
48.1000,20.5400
48.1574,20.5514
48.2061,20.5839
48.2386,20.6326
48.2500,20.6900
48.2500,20.9900
48.2386,21.0474
48.2061,21.0961
48.1574,21.1286
48.1000,21.1400
46.6500,21.1400
46.5926,21.1286
46.5439,21.0961
46.5114,21.0474
46.5000,20.9900
Z" /> 
<path style="fill:#FFFFFF; fill-opacity:1.0000; stroke:none;fill-rule:evenodd;"
d="M 51.6500,20.6900
51.6614,20.6326
51.6939,20.5839
51.7426,20.5514
51.8000,20.5400
53.2500,20.5400
53.3074,20.5514
53.3561,20.5839
53.3886,20.6326
53.4000,20.6900
53.4000,20.9900
53.3886,21.0474
53.3561,21.0961
53.3074,21.1286
53.2500,21.1400
51.8000,21.1400
51.7426,21.1286
51.6939,21.0961
51.6614,21.0474
51.6500,20.9900
Z" /> 
<path style="fill:#FFFFFF; fill-opacity:1.0000; stroke:none;fill-rule:evenodd;"
d="M 51.6500,19.4200
51.6614,19.3626
51.6939,19.3139
51.7426,19.2814
51.8000,19.2700
53.2500,19.2700
53.3074,19.2814
53.3561,19.3139
53.3886,19.3626
53.4000,19.4200
53.4000,19.7200
53.3886,19.7774
53.3561,19.8261
53.3074,19.8586
53.2500,19.8700
51.8000,19.8700
51.7426,19.8586
51.6939,19.8261
51.6614,19.7774
51.6500,19.7200
Z" /> 
<path style="fill:#FFFFFF; fill-opacity:1.0000; stroke:none;fill-rule:evenodd;"
d="M 51.6500,18.1500
51.6614,18.0926
51.6939,18.0439
51.7426,18.0114
51.8000,18.0000
53.2500,18.0000
53.3074,18.0114
53.3561,18.0439
53.3886,18.0926
53.4000,18.1500
53.4000,18.4500
53.3886,18.5074
53.3561,18.5561
53.3074,18.5886
53.2500,18.6000
51.8000,18.6000
51.7426,18.5886
51.6939,18.5561
51.6614,18.5074
51.6500,18.4500
Z" /> 
<path style="fill:#FFFFFF; fill-opacity:1.0000; stroke:none;fill-rule:evenodd;"
d="M 51.6500,16.8800
51.6614,16.8226
51.6939,16.7739
51.7426,16.7414
51.8000,16.7300
53.2500,16.7300
53.3074,16.7414
53.3561,16.7739
53.3886,16.8226
53.4000,16.8800
53.4000,17.1800
53.3886,17.2374
53.3561,17.2861
53.3074,17.3186
53.2500,17.3300
51.8000,17.3300
51.7426,17.3186
51.6939,17.2861
51.6614,17.2374
51.6500,17.1800
Z" /> 
<path style="fill:#FFFFFF; fill-opacity:1.0000; stroke:none;fill-rule:evenodd;"
d="M 59.6350,16.2000
59.6540,16.1043
59.7082,16.0232
59.7893,15.9690
59.8850,15.9500
61.0850,15.9500
61.1807,15.9690
61.2618,16.0232
61.3160,16.1043
61.3350,16.2000
61.3350,17.4000
61.3160,17.4957
61.2618,17.5768
61.1807,17.6310
61.0850,17.6500
59.8850,17.6500
59.7893,17.6310
59.7082,17.5768
59.6540,17.4957
59.6350,17.4000
Z" /> 
</g>
<g style="fill:#FFFFFF; fill-opacity:1.0000; stroke:none;">
<circle cx="63.0250" cy="16.8000" r="0.8500" /> 
</g>
<g style="fill:#FFFFFF; fill-opacity:1.0000; stroke:none;">
<circle cx="60.4850" cy="19.3400" r="0.8500" /> 
</g>
<g style="fill:#FFFFFF; fill-opacity:1.0000; stroke:none;">
<circle cx="63.0250" cy="19.3400" r="0.8500" /> 
</g>
<g style="fill:#FFFFFF; fill-opacity:1.0000; stroke:none;">
<circle cx="60.4850" cy="21.8800" r="0.8500" /> 
</g>
<g style="fill:#FFFFFF; fill-opacity:1.0000; stroke:none;">
<circle cx="63.0250" cy="21.8800" r="0.8500" /> 
<path style="fill:#FFFFFF; fill-opacity:1.0000; stroke:none;fill-rule:evenodd;"
d="M 4.2100,17.4400
4.2169,17.4056
4.2364,17.3764
4.2656,17.3569
4.3000,17.3500
5.6200,17.3500
5.6544,17.3569
5.6836,17.3764
5.7031,17.4056
5.7100,17.4400
5.7100,18.1600
5.7031,18.1944
5.6836,18.2236
5.6544,18.2431
5.6200,18.2500
4.3000,18.2500
4.2656,18.2431
4.2364,18.2236
4.2169,18.1944
4.2100,18.1600
Z" /> 
<path style="fill:#FFFFFF; fill-opacity:1.0000; stroke:none;fill-rule:evenodd;"
d="M 4.2100,20.7400
4.2169,20.7056
4.2364,20.6764
4.2656,20.6569
4.3000,20.6500
5.6200,20.6500
5.6544,20.6569
5.6836,20.6764
5.7031,20.7056
5.7100,20.7400
5.7100,21.4600
5.7031,21.4944
5.6836,21.5236
5.6544,21.5431
5.6200,21.5500
4.3000,21.5500
4.2656,21.5431
4.2364,21.5236
4.2169,21.4944
4.2100,21.4600
Z" /> 
<path style="fill:#FFFFFF; fill-opacity:1.0000; stroke:none;fill-rule:evenodd;"
d="M 9.1100,20.7400
9.1169,20.7056
9.1364,20.6764
9.1656,20.6569
9.2000,20.6500
10.5200,20.6500
10.5544,20.6569
10.5836,20.6764
10.6031,20.7056
10.6100,20.7400
10.6100,21.4600
10.6031,21.4944
10.5836,21.5236
10.5544,21.5431
10.5200,21.5500
9.2000,21.5500
9.1656,21.5431
9.1364,21.5236
9.1169,21.4944
9.1100,21.4600
Z" /> 
<path style="fill:#FFFFFF; fill-opacity:1.0000; stroke:none;fill-rule:evenodd;"
d="M 9.1100,17.4400
9.1169,17.4056
9.1364,17.3764
9.1656,17.3569
9.2000,17.3500
10.5200,17.3500
10.5544,17.3569
10.5836,17.3764
10.6031,17.4056
10.6100,17.4400
10.6100,18.1600
10.6031,18.1944
10.5836,18.2236
10.5544,18.2431
10.5200,18.2500
9.2000,18.2500
9.1656,18.2431
9.1364,18.2236
9.1169,18.1944
9.1100,18.1600
Z" /> 
<path style="fill:#FFFFFF; fill-opacity:1.0000; stroke:none;fill-rule:evenodd;"
d="M 19.7750,17.4400
19.7819,17.4056
19.8014,17.3764
19.8306,17.3569
19.8650,17.3500
21.1850,17.3500
21.2194,17.3569
21.2486,17.3764
21.2681,17.4056
21.2750,17.4400
21.2750,18.1600
21.2681,18.1944
21.2486,18.2236
21.2194,18.2431
21.1850,18.2500
19.8650,18.2500
19.8306,18.2431
19.8014,18.2236
19.7819,18.1944
19.7750,18.1600
Z" /> 
<path style="fill:#FFFFFF; fill-opacity:1.0000; stroke:none;fill-rule:evenodd;"
d="M 19.7750,20.7400
19.7819,20.7056
19.8014,20.6764
19.8306,20.6569
19.8650,20.6500
21.1850,20.6500
21.2194,20.6569
21.2486,20.6764
21.2681,20.7056
21.2750,20.7400
21.2750,21.4600
21.2681,21.4944
21.2486,21.5236
21.2194,21.5431
21.1850,21.5500
19.8650,21.5500
19.8306,21.5431
19.8014,21.5236
19.7819,21.4944
19.7750,21.4600
Z" /> 
<path style="fill:#FFFFFF; fill-opacity:1.0000; stroke:none;fill-rule:evenodd;"
d="M 24.6750,20.7400
24.6819,20.7056
24.7014,20.6764
24.7306,20.6569
24.7650,20.6500
26.0850,20.6500
26.1194,20.6569
26.1486,20.6764
26.1681,20.7056
26.1750,20.7400
26.1750,21.4600
26.1681,21.4944
26.1486,21.5236
26.1194,21.5431
26.0850,21.5500
24.7650,21.5500
24.7306,21.5431
24.7014,21.5236
24.6819,21.4944
24.6750,21.4600
Z" /> 
<path style="fill:#FFFFFF; fill-opacity:1.0000; stroke:none;fill-rule:evenodd;"
d="M 24.6750,17.4400
24.6819,17.4056
24.7014,17.3764
24.7306,17.3569
24.7650,17.3500
26.0850,17.3500
26.1194,17.3569
26.1486,17.3764
26.1681,17.4056
26.1750,17.4400
26.1750,18.1600
26.1681,18.1944
26.1486,18.2236
26.1194,18.2431
26.0850,18.2500
24.7650,18.2500
24.7306,18.2431
24.7014,18.2236
24.6819,18.1944
24.6750,18.1600
Z" /> 
<path style="fill:#FFFFFF; fill-opacity:1.0000; stroke:none;fill-rule:evenodd;"
d="M 35.7750,17.4400
35.7819,17.4056
35.8014,17.3764
35.8306,17.3569
35.8650,17.3500
37.1850,17.3500
37.2194,17.3569
37.2486,17.3764
37.2681,17.4056
37.2750,17.4400
37.2750,18.1600
37.2681,18.1944
37.2486,18.2236
37.2194,18.2431
37.1850,18.2500
35.8650,18.2500
35.8306,18.2431
35.8014,18.2236
35.7819,18.1944
35.7750,18.1600
Z" /> 
<path style="fill:#FFFFFF; fill-opacity:1.0000; stroke:none;fill-rule:evenodd;"
d="M 35.7750,20.7400
35.7819,20.7056
35.8014,20.6764
35.8306,20.6569
35.8650,20.6500
37.1850,20.6500
37.2194,20.6569
37.2486,20.6764
37.2681,20.7056
37.2750,20.7400
37.2750,21.4600
37.2681,21.4944
37.2486,21.5236
37.2194,21.5431
37.1850,21.5500
35.8650,21.5500
35.8306,21.5431
35.8014,21.5236
35.7819,21.4944
35.7750,21.4600
Z" /> 
<path style="fill:#FFFFFF; fill-opacity:1.0000; stroke:none;fill-rule:evenodd;"
d="M 40.6750,20.7400
40.6819,20.7056
40.7014,20.6764
40.7306,20.6569
40.7650,20.6500
42.0850,20.6500
42.1194,20.6569
42.1486,20.6764
42.1681,20.7056
42.1750,20.7400
42.1750,21.4600
42.1681,21.4944
42.1486,21.5236
42.1194,21.5431
42.0850,21.5500
40.7650,21.5500
40.7306,21.5431
40.7014,21.5236
40.6819,21.4944
40.6750,21.4600
Z" /> 
<path style="fill:#FFFFFF; fill-opacity:1.0000; stroke:none;fill-rule:evenodd;"
d="M 40.6750,17.4400
40.6819,17.4056
40.7014,17.3764
40.7306,17.3569
40.7650,17.3500
42.0850,17.3500
42.1194,17.3569
42.1486,17.3764
42.1681,17.4056
42.1750,17.4400
42.1750,18.1600
42.1681,18.1944
42.1486,18.2236
42.1194,18.2431
42.0850,18.2500
40.7650,18.2500
40.7306,18.2431
40.7014,18.2236
40.6819,18.1944
40.6750,18.1600
Z" /> 
</g>
<g style="fill:none; 
stroke:#FFFFFF; stroke-width:0.4000; stroke-opacity:1; 
stroke-linecap:round; stroke-linejoin:round;">
<path d="M44.0250 18.3000
L43.5250 17.8000
" />
<path d="M47.3750 18.3000
L44.0250 18.3000
" />
<path d="M43.5250 17.8000
L41.4250 17.8000
" />
</g>
<g style="fill:none; 
stroke:#FFFFFF; stroke-width:0.2000; stroke-opacity:1; 
stroke-linecap:round; stroke-linejoin:round;">
<path d="M29.5250 25.2000
L29.5250 25.3000
" />
<path d="M10.8250 21.1000
L9.8600 21.1000
" />
</g>
<g style="fill:none; 
stroke:#FFFFFF; stroke-width:0.4000; stroke-opacity:1; 
stroke-linecap:round; stroke-linejoin:round;">
<path d="M23.5250 14.8000
L7.9600 14.8000
" />
<path d="M54.7550 14.8000
L52.5250 17.0300
" />
<path d="M23.5250 14.8000
L20.5250 17.8000
" />
<path d="M39.5250 14.8000
L23.5250 14.8000
" />
<path d="M55.5250 14.8000
L39.5250 14.8000
" />
<path d="M61.0250 14.8000
L55.5250 14.8000
" />
<path d="M39.5250 14.8000
L36.5250 17.8000
" />
<path d="M7.9600 14.8000
L4.9600 17.8000
" />
<path d="M55.5250 14.8000
L54.7550 14.8000
" />
<path d="M63.0250 16.8000
L61.0250 14.8000
" />
<path d="M36.5250 21.1000
L28.7250 21.1000
" />
<path d="M28.7250 21.1000
L25.4250 17.8000
" />
<path d="M13.1600 21.1000
L9.8600 17.8000
" />
<path d="M20.5250 21.1000
L13.1600 21.1000
" />
<path d="M56.5250 16.8000
L55.0250 18.3000
" />
<path d="M55.0250 18.3000
L52.5250 18.3000
" />
<path d="M60.4850 16.8000
L56.5250 16.8000
" />
<path d="M60.4850 21.8800
L57.6050 21.8800
" />
<path d="M57.6050 21.8800
L56.5650 20.8400
" />
<path d="M56.5650 20.8400
L52.5250 20.8400
" />
<path d="M56.2550 19.5700
L52.5250 19.5700
" />
<path d="M56.5650 19.3400
L56.5250 19.3000
" />
<path d="M56.5250 19.3000
L56.2550 19.5700
" />
<path d="M60.4850 19.3400
L56.5650 19.3400
" />
<path style="fill:#FFFFFF; fill-opacity:1.0000; stroke:none;fill-rule:evenodd;"
d="M 59.2908,15.5202
59.3366,15.5730
59.3465,15.6421
59.3175,15.7057
59.3115,15.7122
59.2923,15.7313
59.2002,15.8807
59.2002,15.8807
59.1558,16.0145
59.1161,16.0719
59.0515,16.0988
59.0381,16.0995
56.4560,16.0995
56.3588,16.1188
56.3588,16.1188
56.3476,16.1211
56.3207,16.1264
56.2679,16.1483
56.1932,16.1792
56.1932,16.1792
56.1722,16.1932
56.1722,16.1933
56.0785,16.2559
56.0785,16.2559
54.7712,17.5632
54.7098,17.5967
54.6835,17.5995
54.1490,17.5995
54.0820,17.5798
54.0362,17.5270
54.0250,17.4755
54.0250,16.8514
54.0447,16.7843
54.0613,16.7637
55.2882,15.5368
55.3495,15.5033
55.3759,15.5005
55.4560,15.5005
59.2238,15.5005
Z" /> 
<path style="fill:#FFFFFF; fill-opacity:1.0000; stroke:none;fill-rule:evenodd;"
d="M 59.0615,17.5074
59.0857,17.5100
59.0944,17.5170
59.1052,17.5202
59.1211,17.5386
59.1401,17.5539
59.1478,17.5694
59.1509,17.5730
59.1558,17.5855
59.2002,17.7193
59.2923,17.8687
59.4163,17.9927
59.5657,18.0848
59.5762,18.0883
59.6337,18.1281
59.6605,18.1926
59.6482,18.2614
59.6101,18.3063
59.6052,18.3099
59.6052,18.3099
59.4549,18.4602
59.3866,18.5542
59.3618,18.5884
59.3064,18.6311
59.2615,18.6395
56.7856,18.6395
56.7381,18.6301
56.7293,18.6264
56.7293,18.6264
56.5940,18.5995
56.5940,18.5995
56.4560,18.5995
56.4560,18.5995
56.3207,18.6264
56.3207,18.6264
56.1932,18.6792
56.0924,18.7465
56.0785,18.7559
56.0012,18.8332
55.9398,18.8667
55.9135,18.8695
55.7455,18.8695
55.6785,18.8498
55.6327,18.7970
55.6228,18.7279
55.6518,18.6643
55.6578,18.6578
56.7788,17.5368
56.8402,17.5033
56.8665,17.5005
59.0381,17.5005
Z" /> 
<path style="fill:#FFFFFF; fill-opacity:1.0000; stroke:none;fill-rule:evenodd;"
d="M 59.3285,20.0602
59.3618,20.0916
59.3781,20.1141
59.4549,20.2198
59.6052,20.3701
59.7772,20.4950
59.7859,20.4995
59.8367,20.5475
59.8535,20.6153
59.8310,20.6814
59.7859,20.7205
59.7772,20.7249
59.6052,20.8499
59.4549,21.0002
59.3866,21.0942
59.3618,21.1284
59.3064,21.1711
59.2615,21.1795
57.9465,21.1795
57.8795,21.1598
57.8588,21.1432
57.0520,20.3363
57.0343,20.3187
57.0250,20.3000
57.0157,20.3000
57.0115,20.2959
56.9692,20.2676
56.9244,20.2140
56.9157,20.1447
56.9459,20.0816
57.0053,20.0449
57.0381,20.0405
59.2615,20.0405
Z" /> 
<path style="fill:#FFFFFF; fill-opacity:1.0000; stroke:none;fill-rule:evenodd;"
d="M 61.8264,19.9940
61.8655,20.0391
61.8700,20.0478
61.9949,20.2198
62.1452,20.3701
62.3172,20.4950
62.3172,20.4950
62.3172,20.4951
62.3265,20.4998
62.3773,20.5478
62.3941,20.6156
62.3716,20.6817
62.3265,20.7208
62.3174,20.7254
62.3174,20.7254
62.2633,20.7647
62.2633,20.7647
62.8956,21.3970
62.8320,21.4141
62.7180,21.4799
62.6249,21.5730
62.5591,21.6870
62.5420,21.7506
61.9097,21.1183
61.9097,21.1183
61.8704,21.1724
61.8704,21.1724
61.8658,21.1815
61.8178,21.2323
61.7500,21.2491
61.6838,21.2265
61.6448,21.1815
61.6401,21.1722
61.6400,21.1722
61.6400,21.1722
61.5151,21.0002
61.3648,20.8499
61.1928,20.7250
61.1846,20.7208
61.1841,20.7205
61.1333,20.6725
61.1165,20.6047
61.1390,20.5386
61.1841,20.4995
61.1928,20.4951
61.2829,20.4296
61.3648,20.3701
61.3648,20.3701
61.3648,20.3701
61.5151,20.2198
61.5151,20.2198
61.5151,20.2198
61.6400,20.0478
61.6400,20.0478
61.6401,20.0478
61.6445,20.0391
61.6925,19.9883
61.7603,19.9715
Z" /> 
<path style="fill:#FFFFFF; fill-opacity:1.0000; stroke:none;fill-rule:evenodd;"
d="M 70.9675,4.8202
71.0133,4.8730
71.0245,4.9245
71.0245,32.6755
71.0048,32.7425
70.9520,32.7883
70.9005,32.7995
0.6495,32.7995
0.5825,32.7798
0.5367,32.7270
0.5255,32.6755
0.5255,29.1689
4.0245,29.1689
4.0245,29.4311
4.0454,29.5901
4.0587,29.6911
4.0802,29.7712
4.1266,29.9444
4.1266,29.9444
4.2270,30.1867
4.2270,30.1867
4.3581,30.4138
4.5177,30.6219
4.5177,30.6219
4.7031,30.8073
4.7031,30.8073
4.9112,30.9669
5.1383,31.0980
5.1383,31.0980
5.3806,31.1984
5.3806,31.1984
5.6339,31.2663
5.8939,31.3005
5.8939,31.3005
6.1561,31.3005
6.1561,31.3005
6.4161,31.2663
6.6694,31.1984
6.9117,31.0980
7.1388,30.9669
7.3469,30.8073
7.3469,30.8073
7.3469,30.8073
7.5323,30.6219
7.5323,30.6219
7.5323,30.6219
7.6919,30.4138
7.8230,30.1867
7.9234,29.9444
7.9913,29.6911
8.0255,29.4311
8.0255,29.1689
8.0255,29.1689
51.5245,29.1689
51.5245,29.4311
51.5454,29.5901
51.5587,29.6911
51.5802,29.7712
51.6266,29.9444
51.6266,29.9444
51.7270,30.1867
51.7270,30.1867
51.8581,30.4138
52.0177,30.6219
52.0177,30.6219
52.2031,30.8073
52.2031,30.8073
52.4112,30.9669
52.6383,31.0980
52.6383,31.0980
52.8806,31.1984
52.8806,31.1984
53.1339,31.2663
53.3939,31.3005
53.3939,31.3005
53.6561,31.3005
53.6561,31.3005
53.9161,31.2663
54.1694,31.1984
54.4117,31.0980
54.6388,30.9669
54.8469,30.8073
54.8469,30.8073
54.8469,30.8073
55.0323,30.6219
55.0323,30.6219
55.0323,30.6219
55.1919,30.4138
55.3230,30.1867
55.4234,29.9444
55.4913,29.6911
55.5255,29.4311
55.5255,29.1689
55.4913,28.9089
55.4234,28.6556
55.3252,28.4185
55.3230,28.4133
55.3230,28.4133
55.1919,28.1862
55.0323,27.9781
55.0323,27.9781
54.8469,27.7927
54.8469,27.7927
54.6388,27.6331
54.4117,27.5020
54.4117,27.5020
54.1694,27.4016
54.1694,27.4016
54.1694,27.4016
53.9161,27.3337
53.8583,27.3261
53.6561,27.2995
53.6561,27.2995
53.3939,27.2995
53.3939,27.2995
53.1628,27.3299
53.1339,27.3337
52.8806,27.4016
52.8806,27.4016
52.6383,27.5020
52.6383,27.5020
52.4112,27.6331
52.2031,27.7927
52.0177,27.9781
51.8581,28.1862
51.7270,28.4133
51.7270,28.4133
51.6266,28.6556
51.6266,28.6556
51.5587,28.9089
51.5245,29.1689
8.0255,29.1689
7.9913,28.9089
7.9234,28.6556
7.8252,28.4185
7.8230,28.4133
7.8230,28.4133
7.6919,28.1862
7.5323,27.9781
7.5323,27.9781
7.3469,27.7927
7.3469,27.7927
7.1388,27.6331
6.9117,27.5020
6.9117,27.5020
6.6694,27.4016
6.6694,27.4016
6.6694,27.4016
6.4161,27.3337
6.3583,27.3261
6.1561,27.2995
6.1561,27.2995
5.8939,27.2995
5.8939,27.2995
5.6628,27.3299
5.6339,27.3337
5.3806,27.4016
5.3806,27.4016
5.1383,27.5020
5.1383,27.5020
4.9112,27.6331
4.7031,27.7927
4.5177,27.9781
4.3581,28.1862
4.2270,28.4133
4.2270,28.4133
4.1266,28.6556
4.1266,28.6556
4.0587,28.9089
4.0245,29.1689
0.5255,29.1689
0.5255,20.7013
3.7095,20.7013
3.7095,21.4987
3.7247,21.6141
3.7247,21.6142
3.7841,21.7575
3.7842,21.7578
3.8789,21.8811
4.0022,21.9758
4.1458,22.0353
4.2613,22.0505
5.6587,22.0505
5.6587,22.0505
5.7741,22.0353
5.7741,22.0353
5.7742,22.0353
5.9178,21.9758
6.0411,21.8811
6.1358,21.7578
6.1953,21.6142
6.2105,21.4987
6.2105,21.4987
8.6100,21.4987
8.6252,21.6140
8.6252,21.6140
8.6846,21.7575
8.6846,21.7575
8.7792,21.8808
8.9025,21.9754
9.0460,22.0348
9.0460,22.0348
9.1613,22.0500
9.6100,22.0500
10.1100,22.0500
10.5587,22.0500
10.6740,22.0348
10.6740,22.0348
10.8175,21.9754
10.8175,21.9754
10.9408,21.8808
11.0354,21.7575
11.0354,21.7575
11.0948,21.6140
11.0948,21.6140
11.1100,21.4987
11.1100,21.3500
10.1100,21.3500
10.1100,22.0500
9.6100,22.0500
9.6100,21.3500
8.6100,21.3500
8.6100,21.4987
6.2105,21.4987
6.2105,21.0926
6.2105,20.7013
8.6100,20.7013
8.6100,20.8500
9.6100,20.8500
10.1100,20.8500
11.1100,20.8500
11.1100,20.7013
11.0948,20.5860
11.0948,20.5860
11.0354,20.4425
11.0354,20.4425
10.9408,20.3192
10.8175,20.2246
10.6740,20.1652
10.6740,20.1652
10.5587,20.1500
10.1100,20.1500
10.1100,20.8500
9.6100,20.8500
9.6100,20.1500
9.1613,20.1500
9.0460,20.1652
9.0460,20.1652
8.9025,20.2246
8.9025,20.2246
8.7792,20.3192
8.6846,20.4425
8.6846,20.4425
8.6252,20.5860
8.6252,20.5860
8.6100,20.7013
6.2105,20.7013
6.2105,20.7013
6.1953,20.5859
6.1953,20.5859
6.1953,20.5858
6.1358,20.4422
6.0411,20.3189
5.9178,20.2242
5.9178,20.2242
5.7742,20.1647
5.7741,20.1647
5.6587,20.1495
4.2613,20.1495
4.1459,20.1647
4.1458,20.1647
4.0022,20.2242
4.0022,20.2242
4.0022,20.2242
3.8789,20.3189
3.7939,20.4296
3.7842,20.4422
3.7247,20.5858
3.7247,20.5859
3.7095,20.7013
0.5255,20.7013
0.5255,17.4013
3.7095,17.4013
3.7095,18.1987
3.7247,18.3141
3.7247,18.3142
3.7842,18.4578
3.8789,18.5811
4.0022,18.6758
4.1458,18.7353
4.2613,18.7505
5.6587,18.7505
5.6587,18.7505
5.7741,18.7353
5.7741,18.7353
5.7742,18.7353
5.9178,18.6758
6.0411,18.5811
6.1358,18.4578
6.1953,18.3142
6.2105,18.1987
6.2105,17.5915
6.2302,17.5245
6.2468,17.5038
6.3494,17.4013
8.6095,17.4013
8.6095,18.1987
8.6247,18.3141
8.6247,18.3142
8.6842,18.4578
8.7789,18.5811
8.9022,18.6758
9.0458,18.7353
9.1613,18.7505
9.7685,18.7505
9.8355,18.7702
9.8562,18.7868
12.7135,21.6441
12.7135,21.6441
12.8282,21.7208
12.9557,21.7736
12.9557,21.7736
12.9557,21.7736
12.9557,21.7736
13.0910,21.8005
13.0910,21.8005
13.0910,21.8005
19.3208,21.8005
19.3879,21.8202
19.4192,21.8490
19.4439,21.8811
19.5672,21.9758
19.7108,22.0353
19.8263,22.0505
21.2237,22.0505
21.2237,22.0505
21.3391,22.0353
21.3391,22.0353
21.3392,22.0353
21.4828,21.9758
21.6061,21.8811
21.7008,21.7578
21.7603,21.6142
21.7755,21.4987
21.7755,21.4987
24.1750,21.4987
24.1902,21.6140
24.1902,21.6140
24.2496,21.7575
24.2496,21.7575
24.3442,21.8808
24.4675,21.9754
24.6110,22.0348
24.6110,22.0348
24.7263,22.0500
25.1750,22.0500
25.6750,22.0500
26.1237,22.0500
26.2390,22.0348
26.2390,22.0348
26.3825,21.9754
26.3825,21.9754
26.5058,21.8808
26.6004,21.7575
26.6004,21.7575
26.6598,21.6140
26.6598,21.6140
26.6750,21.4987
26.6750,21.3500
25.6750,21.3500
25.6750,22.0500
25.1750,22.0500
25.1750,21.3500
24.1750,21.3500
24.1750,21.4987
21.7755,21.4987
21.7755,21.0926
21.7755,20.7013
24.1750,20.7013
24.1750,20.8500
25.1750,20.8500
25.6750,20.8500
26.6750,20.8500
26.6750,20.7013
26.6598,20.5860
26.6598,20.5860
26.6004,20.4425
26.6004,20.4425
26.5058,20.3192
26.3825,20.2246
26.2390,20.1652
26.2390,20.1652
26.1237,20.1500
25.6750,20.1500
25.6750,20.8500
25.1750,20.8500
25.1750,20.1500
24.7263,20.1500
24.6110,20.1652
24.6110,20.1652
24.4675,20.2246
24.4675,20.2246
24.3442,20.3192
24.2496,20.4425
24.2496,20.4425
24.1902,20.5860
24.1902,20.5860
24.1750,20.7013
21.7755,20.7013
21.7755,20.7013
21.7603,20.5859
21.7603,20.5859
21.7603,20.5858
21.7008,20.4422
21.6061,20.3189
21.4828,20.2242
21.4828,20.2242
21.3392,20.1647
21.3391,20.1647
21.2237,20.1495
19.8263,20.1495
19.7109,20.1647
19.7108,20.1647
19.5672,20.2242
19.5672,20.2242
19.5672,20.2242
19.4439,20.3189
19.4192,20.3510
19.3628,20.3922
19.3208,20.3995
13.5015,20.3995
13.4345,20.3798
13.4138,20.3632
11.1468,18.0962
11.1133,18.0348
11.1105,18.0085
11.1105,17.4013
11.0953,17.2859
11.0953,17.2858
11.0953,17.2858
11.0358,17.1422
10.9411,17.0189
10.8178,16.9242
10.8178,16.9242
10.6742,16.8647
10.6741,16.8647
10.5587,16.8495
9.1613,16.8495
9.0459,16.8647
9.0458,16.8647
8.9022,16.9242
8.9022,16.9242
8.9022,16.9242
8.7789,17.0189
8.6963,17.1264
8.6842,17.1422
8.6247,17.2858
8.6247,17.2858
8.6095,17.4013
6.3494,17.4013
8.2138,15.5368
8.2752,15.5033
8.3015,15.5005
21.5345,15.5005
21.6015,15.5202
21.6473,15.5730
21.6572,15.6421
21.6282,15.7057
21.6222,15.7122
20.5212,16.8132
20.4598,16.8467
20.4335,16.8495
19.8263,16.8495
19.7109,16.8647
19.7108,16.8647
19.5672,16.9242
19.5672,16.9242
19.5672,16.9242
19.4439,17.0189
19.3613,17.1264
19.3492,17.1422
19.2897,17.2858
19.2897,17.2858
19.2745,17.4013
19.2745,18.1987
19.2897,18.3141
19.2897,18.3142
19.3492,18.4578
19.4439,18.5811
19.5672,18.6758
19.7108,18.7353
19.8263,18.7505
21.2237,18.7505
21.2237,18.7505
21.3391,18.7353
21.3391,18.7353
21.3392,18.7353
21.4828,18.6758
21.6061,18.5811
21.7008,18.4578
21.7603,18.3142
21.7755,18.1987
21.7755,17.5915
21.7952,17.5245
21.8118,17.5038
21.9144,17.4013
24.1745,17.4013
24.1745,18.1987
24.1897,18.3141
24.1897,18.3142
24.2492,18.4578
24.3439,18.5811
24.4672,18.6758
24.6108,18.7353
24.7263,18.7505
25.3335,18.7505
25.4005,18.7702
25.4212,18.7868
28.2785,21.6441
28.2785,21.6441
28.3932,21.7208
28.5207,21.7736
28.5207,21.7736
28.5207,21.7736
28.5207,21.7736
28.6560,21.8005
28.6560,21.8005
28.6560,21.8005
35.3208,21.8005
35.3879,21.8202
35.4192,21.8490
35.4439,21.8811
35.5672,21.9758
35.7108,22.0353
35.8263,22.0505
37.2237,22.0505
37.2237,22.0505
37.3391,22.0353
37.3391,22.0353
37.3392,22.0353
37.4828,21.9758
37.6061,21.8811
37.7008,21.7578
37.7603,21.6142
37.7755,21.4987
37.7755,21.4987
40.1750,21.4987
40.1902,21.6140
40.1902,21.6140
40.2496,21.7575
40.2496,21.7575
40.3442,21.8808
40.4675,21.9754
40.6110,22.0348
40.6110,22.0348
40.7263,22.0500
41.1750,22.0500
41.6750,22.0500
42.1237,22.0500
42.2390,22.0348
42.2390,22.0348
42.3825,21.9754
42.3825,21.9754
42.5058,21.8808
42.6004,21.7575
42.6004,21.7575
42.6598,21.6140
42.6598,21.6140
42.6750,21.4987
42.6750,21.3500
41.6750,21.3500
41.6750,22.0500
41.1750,22.0500
41.1750,21.3500
40.1750,21.3500
40.1750,21.4987
37.7755,21.4987
37.7755,21.1183
37.7755,21.0900
46.0027,21.0900
46.0029,21.0925
46.0487,21.2502
46.1323,21.3916
46.1323,21.3916
46.2484,21.5077
46.2484,21.5077
46.3898,21.5913
46.3898,21.5913
46.5475,21.6371
46.5475,21.6371
46.5844,21.6400
46.5844,21.6400
47.1250,21.6400
47.6250,21.6400
48.1656,21.6400
48.1656,21.6400
48.2025,21.6371
48.2025,21.6371
48.3602,21.5913
48.3602,21.5913
48.5016,21.5077
48.5016,21.5077
48.6177,21.3916
48.6177,21.3916
48.7013,21.2502
48.7471,21.0925
48.7473,21.0900
48.7473,21.0900
47.6250,21.0900
47.6250,21.6400
47.1250,21.6400
47.1250,21.0900
46.0027,21.0900
46.0027,21.0900
37.7755,21.0900
37.7755,21.0457
37.7755,20.7013
40.1750,20.7013
40.1750,20.8500
41.1750,20.8500
41.6750,20.8500
42.6750,20.8500
42.6750,20.7013
42.6598,20.5860
42.6598,20.5860
42.6004,20.4425
42.6004,20.4425
42.5058,20.3192
42.3825,20.2246
42.2390,20.1652
42.2390,20.1652
42.1237,20.1500
41.6750,20.1500
41.6750,20.8500
41.1750,20.8500
41.1750,20.1500
40.7263,20.1500
40.6110,20.1652
40.6110,20.1652
40.4675,20.2246
40.4675,20.2246
40.3442,20.3192
40.2496,20.4425
40.2496,20.4425
40.1902,20.5860
40.1902,20.5860
40.1750,20.7013
37.7755,20.7013
37.7755,20.7013
37.7603,20.5859
37.7603,20.5859
37.7603,20.5858
37.7008,20.4422
37.6061,20.3189
37.4828,20.2242
37.4828,20.2242
37.3392,20.1647
37.3391,20.1647
37.2237,20.1495
35.8263,20.1495
35.7109,20.1647
35.7108,20.1647
35.5672,20.2242
35.5672,20.2242
35.5672,20.2242
35.4439,20.3189
35.4192,20.3510
35.3628,20.3922
35.3208,20.3995
29.0665,20.3995
28.9995,20.3798
28.9788,20.3632
26.7118,18.0962
26.6783,18.0348
26.6755,18.0085
26.6755,17.4013
26.6603,17.2859
26.6603,17.2858
26.6603,17.2858
26.6008,17.1422
26.5061,17.0189
26.3828,16.9242
26.3828,16.9242
26.2392,16.8647
26.2391,16.8647
26.1237,16.8495
24.7263,16.8495
24.6109,16.8647
24.6108,16.8647
24.4672,16.9242
24.4672,16.9242
24.4672,16.9242
24.3439,17.0189
24.2613,17.1264
24.2492,17.1422
24.1897,17.2858
24.1897,17.2858
24.1745,17.4013
21.9144,17.4013
23.7788,15.5368
23.8402,15.5033
23.8665,15.5005
37.5345,15.5005
37.6015,15.5202
37.6473,15.5730
37.6572,15.6421
37.6282,15.7057
37.6222,15.7122
36.5212,16.8132
36.4598,16.8467
36.4335,16.8495
35.8263,16.8495
35.7109,16.8647
35.7108,16.8647
35.5672,16.9242
35.5672,16.9242
35.5672,16.9242
35.4439,17.0189
35.3613,17.1264
35.3492,17.1422
35.2897,17.2858
35.2897,17.2858
35.2745,17.4013
35.2745,18.1987
35.2897,18.3141
35.2897,18.3142
35.3492,18.4578
35.4439,18.5811
35.5672,18.6758
35.7108,18.7353
35.8263,18.7505
37.2237,18.7505
37.2237,18.7505
37.3391,18.7353
37.3391,18.7353
37.3392,18.7353
37.4828,18.6758
37.6061,18.5811
37.7008,18.4578
37.7603,18.3142
37.7755,18.1987
37.7755,17.5915
37.7952,17.5245
37.8118,17.5038
37.9144,17.4013
40.1745,17.4013
40.1745,18.1987
40.1897,18.3141
40.1897,18.3142
40.2492,18.4578
40.3439,18.5811
40.4672,18.6758
40.6108,18.7353
40.7263,18.7505
42.1237,18.7505
42.1237,18.7505
42.2391,18.7353
42.2391,18.7353
42.2392,18.7353
42.3828,18.6758
42.5061,18.5811
42.5308,18.5490
42.5872,18.5078
42.6292,18.5005
43.1835,18.5005
43.2505,18.5202
43.2712,18.5368
43.5785,18.8441
43.5785,18.8441
43.6932,18.9208
43.7913,18.9614
43.8207,18.9736
43.8207,18.9736
43.8207,18.9736
43.9560,19.0005
43.9560,19.0005
43.9560,19.0005
45.9293,19.0005
45.9964,19.0202
46.0421,19.0730
46.0521,19.1421
46.0484,19.1591
46.0024,19.3174
46.0024,19.3174
45.9995,19.3543
45.9995,19.7857
46.0024,19.8226
46.0024,19.8226
46.0483,19.9804
46.0483,19.9804
46.1319,20.1219
46.1367,20.1280
46.1344,20.1298
46.1612,20.1790
46.1562,20.2487
46.1355,20.2810
46.1371,20.2823
46.1323,20.2884
46.0487,20.4298
46.0029,20.5875
46.0027,20.5900
46.0027,20.5900
48.7473,20.5900
48.7473,20.5900
48.7471,20.5875
48.7013,20.4298
48.6177,20.2884
48.6129,20.2823
48.6154,20.2804
48.5888,20.2318
48.5937,20.1621
48.6149,20.1292
48.6133,20.1280
48.6181,20.1219
48.6181,20.1219
48.7017,19.9804
48.7476,19.8226
48.7505,19.7857
48.7505,19.3543
48.7476,19.3174
48.7233,19.2337
48.7017,19.1596
48.7017,19.1596
48.7017,19.1596
48.6181,19.0181
48.6181,19.0181
48.6133,19.0120
48.6157,19.0101
48.5892,18.9614
48.5941,18.8917
48.6149,18.8593
48.6133,18.8580
48.6181,18.8519
48.6181,18.8519
48.7017,18.7104
48.7476,18.5526
48.7505,18.5157
48.7505,18.0843
48.7476,18.0474
48.7439,18.0348
48.7017,17.8896
48.7017,17.8896
48.7017,17.8896
48.6181,17.7481
48.6181,17.7481
48.6133,17.7420
48.6157,17.7401
48.5892,17.6914
48.5941,17.6217
48.6149,17.5893
48.6133,17.5880
48.6181,17.5819
48.6181,17.5819
48.7017,17.4404
48.7466,17.2858
48.7476,17.2826
48.7476,17.2826
48.7505,17.2457
48.7505,16.8143
48.7476,16.7774
48.7233,16.6937
48.7017,16.6196
48.7017,16.6196
48.7017,16.6196
48.6181,16.4781
48.6181,16.4781
48.6181,16.4781
48.5019,16.3619
48.5019,16.3619
48.3604,16.2783
48.3604,16.2783
48.2026,16.2324
48.2026,16.2324
48.1657,16.2295
48.1657,16.2295
46.5843,16.2295
46.5843,16.2295
46.5474,16.2324
46.5474,16.2324
46.3896,16.2783
46.3896,16.2783
46.2481,16.3619
46.2481,16.3619
46.1319,16.4781
46.1319,16.4781
46.0483,16.6196
46.0483,16.6196
46.0024,16.7774
46.0024,16.7774
45.9995,16.8143
45.9995,17.2457
46.0024,17.2826
46.0024,17.2826
46.0484,17.4409
46.0482,17.5108
46.0103,17.5694
45.9466,17.5983
45.9293,17.5995
44.3665,17.5995
44.2995,17.5798
44.2788,17.5632
43.9715,17.2559
43.9715,17.2559
43.8568,17.1792
43.7293,17.1264
43.7293,17.1264
43.5940,17.0995
43.5940,17.0995
43.5940,17.0995
42.6292,17.0995
42.5621,17.0798
42.5308,17.0510
42.5061,17.0189
42.3828,16.9242
42.3828,16.9242
42.2392,16.8647
42.2391,16.8647
42.1237,16.8495
40.7263,16.8495
40.6109,16.8647
40.6108,16.8647
40.4672,16.9242
40.4672,16.9242
40.4672,16.9242
40.3439,17.0189
40.2613,17.1264
40.2492,17.1422
40.1897,17.2858
40.1897,17.2858
40.1745,17.4013
37.9144,17.4013
39.7788,15.5368
39.8402,15.5033
39.8665,15.5005
52.7645,15.5005
52.8315,15.5202
52.8773,15.5730
52.8872,15.6421
52.8582,15.7057
52.8522,15.7122
52.3712,16.1932
52.3098,16.2267
52.2835,16.2295
51.7343,16.2295
51.6974,16.2324
51.6974,16.2324
51.5396,16.2783
51.5396,16.2783
51.3981,16.3619
51.3981,16.3619
51.2819,16.4781
51.2819,16.4781
51.1983,16.6196
51.1983,16.6196
51.1524,16.7774
51.1524,16.7774
51.1495,16.8143
51.1495,17.2457
51.1524,17.2826
51.1524,17.2826
51.1983,17.4404
51.1983,17.4404
51.2819,17.5819
51.2867,17.5880
51.2843,17.5899
51.3109,17.6386
51.3059,17.7083
51.2851,17.7407
51.2867,17.7420
51.2819,17.7481
51.1983,17.8896
51.1983,17.8896
51.1524,18.0474
51.1524,18.0474
51.1495,18.0843
51.1495,18.5157
51.1524,18.5526
51.1524,18.5526
51.1983,18.7104
51.1983,18.7104
51.2819,18.8519
51.2867,18.8580
51.2843,18.8599
51.3109,18.9086
51.3059,18.9783
51.2851,19.0107
51.2867,19.0120
51.2819,19.0181
51.1983,19.1596
51.1983,19.1596
51.1524,19.3174
51.1524,19.3174
51.1495,19.3543
51.1495,19.7857
51.1524,19.8226
51.1524,19.8226
51.1983,19.9804
51.1983,19.9804
51.2819,20.1219
51.2867,20.1280
51.2843,20.1299
51.3109,20.1786
51.3059,20.2483
51.2851,20.2807
51.2867,20.2820
51.2819,20.2881
51.1983,20.4296
51.1983,20.4296
51.1524,20.5874
51.1524,20.5874
51.1495,20.6243
51.1495,21.0557
51.1524,21.0926
51.1524,21.0926
51.1983,21.2504
51.1983,21.2504
51.2819,21.3919
51.2819,21.3919
51.3981,21.5081
51.3981,21.5081
51.3981,21.5081
51.5396,21.5917
51.5812,21.6038
51.6974,21.6376
51.6974,21.6376
51.6974,21.6376
51.7343,21.6405
51.7343,21.6405
53.3157,21.6405
53.3157,21.6405
53.3526,21.6376
53.3526,21.6376
53.3526,21.6376
53.4337,21.6140
53.5104,21.5917
53.5678,21.5578
53.6310,21.5405
56.2235,21.5405
56.2905,21.5602
56.3112,21.5768
57.1585,22.4241
57.1585,22.4241
57.2732,22.5008
57.4007,22.5536
57.4007,22.5536
57.4007,22.5536
57.4007,22.5536
57.5360,22.5805
57.5360,22.5805
57.5360,22.5805
59.2615,22.5805
59.3285,22.6002
59.3618,22.6316
59.3968,22.6799
59.4549,22.7598
59.6052,22.9101
59.7772,23.0350
59.7772,23.0350
59.7772,23.0351
59.9666,23.1316
60.1688,23.1972
60.3787,23.2305
60.3787,23.2305
60.5913,23.2305
60.5913,23.2305
60.8012,23.1972
61.0034,23.1316
61.1928,23.0351
61.2476,22.9953
61.3648,22.9101
61.3648,22.9101
61.3648,22.9101
61.5151,22.7598
61.5151,22.7598
61.5151,22.7598
61.6009,22.6417
61.6401,22.5878
61.6448,22.5785
61.6928,22.5277
61.7606,22.5109
61.8267,22.5334
61.8658,22.5785
61.8704,22.5875
61.9097,22.6417
62.5420,22.0094
62.5591,22.0730
62.6249,22.1870
62.7180,22.2801
62.8320,22.3459
62.8956,22.3630
62.2633,22.9953
62.2633,22.9953
62.3174,23.0346
62.5068,23.1311
62.7089,23.1968
62.9188,23.2300
63.1312,23.2300
63.3411,23.1968
63.3411,23.1968
63.5432,23.1311
63.7326,23.0346
63.7867,22.9953
63.7867,22.9953
63.1544,22.3630
63.2180,22.3459
63.3320,22.2801
63.4251,22.1870
63.4909,22.0730
63.5080,22.0094
64.1403,22.6417
64.1403,22.6417
64.1796,22.5876
64.2761,22.3982
64.3418,22.1961
64.3418,22.1961
64.3750,21.9862
64.3750,21.7738
64.3418,21.5639
64.3418,21.5639
64.2761,21.3618
64.1796,21.1724
64.1403,21.1183
64.1403,21.1183
63.5080,21.7506
63.4909,21.6870
63.4251,21.5730
63.3320,21.4799
63.2180,21.4141
63.1544,21.3970
63.7867,20.7647
63.7325,20.7254
63.7325,20.7254
63.7235,20.7208
63.6727,20.6728
63.6559,20.6050
63.6785,20.5388
63.7235,20.4998
63.7328,20.4951
63.8229,20.4296
63.9048,20.3701
63.9048,20.3701
63.9048,20.3701
64.0551,20.2198
64.0551,20.2198
64.0551,20.2198
64.1800,20.0478
64.1800,20.0478
64.1801,20.0478
64.2766,19.8584
64.3422,19.6562
64.3755,19.4463
64.3755,19.2337
64.3422,19.0238
64.2766,18.8216
64.1801,18.6322
64.1800,18.6322
64.1800,18.6322
64.0551,18.4602
63.9048,18.3099
63.7328,18.1850
63.7321,18.1846
63.7241,18.1805
63.6733,18.1325
63.6565,18.0647
63.6790,17.9986
63.7241,17.9595
63.7328,17.9551
63.8229,17.8896
63.9048,17.8301
63.9048,17.8301
63.9048,17.8301
64.0551,17.6798
64.0551,17.6798
64.0551,17.6798
64.1800,17.5078
64.1800,17.5078
64.1801,17.5078
64.2766,17.3184
64.3422,17.1162
64.3755,16.9063
64.3755,16.6937
64.3422,16.4838
64.2766,16.2816
64.1801,16.0922
64.1800,16.0922
64.1800,16.0922
64.0551,15.9202
63.9048,15.7699
63.7328,15.6450
63.5434,15.5484
63.5434,15.5484
63.5434,15.5484
63.3412,15.4828
63.3412,15.4828
63.3412,15.4828
63.1800,15.4572
63.1313,15.4495
62.9187,15.4495
62.7622,15.4743
62.6929,15.4653
62.6551,15.4395
61.4715,14.2559
61.4715,14.2559
61.3568,14.1792
61.2293,14.1264
61.2293,14.1264
61.0940,14.0995
61.0940,14.0995
61.0940,14.0995
55.5940,14.0995
39.5940,14.0995
39.5940,14.0995
23.5940,14.0995
23.5940,14.0995
8.0290,14.0995
7.8910,14.0995
7.8910,14.0995
7.7557,14.1264
7.7557,14.1264
7.6282,14.1792
7.5135,14.2559
4.9562,16.8132
4.8948,16.8467
4.8685,16.8495
4.2613,16.8495
4.1459,16.8647
4.1458,16.8647
4.0022,16.9242
4.0022,16.9242
4.0022,16.9242
3.8789,17.0189
3.7963,17.1264
3.7842,17.1422
3.7247,17.2858
3.7247,17.2858
3.7095,17.4013
0.5255,17.4013
0.5255,8.6689
4.0245,8.6689
4.0245,8.9311
4.0454,9.0901
4.0587,9.1911
4.0802,9.2712
4.1266,9.4444
4.1266,9.4444
4.2270,9.6867
4.2270,9.6867
4.3581,9.9138
4.5177,10.1219
4.5177,10.1219
4.7031,10.3073
4.7031,10.3073
4.9112,10.4669
5.1383,10.5980
5.1383,10.5980
5.3806,10.6984
5.3806,10.6984
5.6339,10.7663
5.8939,10.8005
5.8939,10.8005
6.1561,10.8005
6.1561,10.8005
6.4161,10.7663
6.6694,10.6984
6.9117,10.5980
7.1388,10.4669
7.3469,10.3073
7.3469,10.3073
7.3469,10.3073
7.5323,10.1219
7.5323,10.1219
7.5323,10.1219
7.6919,9.9138
7.8230,9.6867
7.9234,9.4444
7.9913,9.1911
8.0255,8.9311
8.0255,8.6689
8.0255,8.6689
51.5245,8.6689
51.5245,8.9311
51.5454,9.0901
51.5587,9.1911
51.5802,9.2712
51.6266,9.4444
51.6266,9.4444
51.7270,9.6867
51.7270,9.6867
51.8581,9.9138
52.0177,10.1219
52.0177,10.1219
52.2031,10.3073
52.2031,10.3073
52.4112,10.4669
52.6383,10.5980
52.6383,10.5980
52.8806,10.6984
52.8806,10.6984
53.1339,10.7663
53.3939,10.8005
53.3939,10.8005
53.6561,10.8005
53.6561,10.8005
53.9161,10.7663
54.1694,10.6984
54.4117,10.5980
54.6388,10.4669
54.8469,10.3073
54.8469,10.3073
54.8469,10.3073
55.0323,10.1219
55.0323,10.1219
55.0323,10.1219
55.1919,9.9138
55.3230,9.6867
55.4234,9.4444
55.4913,9.1911
55.5255,8.9311
55.5255,8.6689
55.4913,8.4089
55.4234,8.1556
55.3252,7.9185
55.3230,7.9133
55.3230,7.9133
55.1919,7.6862
55.0323,7.4781
55.0323,7.4781
54.8469,7.2927
54.8469,7.2927
54.6388,7.1331
54.4117,7.0020
54.4117,7.0020
54.1694,6.9016
54.1694,6.9016
54.1694,6.9016
53.9161,6.8337
53.8583,6.8261
53.6561,6.7995
53.6561,6.7995
53.3939,6.7995
53.3939,6.7995
53.1628,6.8299
53.1339,6.8337
52.8806,6.9016
52.8806,6.9016
52.6383,7.0020
52.6383,7.0020
52.4112,7.1331
52.2031,7.2927
52.0177,7.4781
51.8581,7.6862
51.7270,7.9133
51.7270,7.9133
51.6266,8.1556
51.6266,8.1556
51.5587,8.4089
51.5245,8.6689
8.0255,8.6689
7.9913,8.4089
7.9234,8.1556
7.8252,7.9185
7.8230,7.9133
7.8230,7.9133
7.6919,7.6862
7.5323,7.4781
7.5323,7.4781
7.3469,7.2927
7.3469,7.2927
7.1388,7.1331
6.9117,7.0020
6.9117,7.0020
6.6694,6.9016
6.6694,6.9016
6.6694,6.9016
6.4161,6.8337
6.3583,6.8261
6.1561,6.7995
6.1561,6.7995
5.8939,6.7995
5.8939,6.7995
5.6628,6.8299
5.6339,6.8337
5.3806,6.9016
5.3806,6.9016
5.1383,7.0020
5.1383,7.0020
4.9112,7.1331
4.7031,7.2927
4.5177,7.4781
4.3581,7.6862
4.2270,7.9133
4.2270,7.9133
4.1266,8.1556
4.1266,8.1556
4.0587,8.4089
4.0245,8.6689
0.5255,8.6689
0.5255,4.9245
0.5452,4.8575
0.5980,4.8117
0.6495,4.8005
70.9005,4.8005
Z" /> 
</g> 
</svg>
