<?xml version="1.0" standalone="no"?>
 <!DOCTYPE svg PUBLIC "-//W3C//DTD SVG 1.1//EN" 
 "http://www.w3.org/Graphics/SVG/1.1/DTD/svg11.dtd"> 
<svg
  xmlns:svg="http://www.w3.org/2000/svg"
  xmlns="http://www.w3.org/2000/svg"
  xmlns:xlink="http://www.w3.org/1999/xlink"
  version="1.1"
  width="80.0608mm" height="52.6542mm" viewBox="0.0000 0.0000 80.0608 52.6542">
<title>SVG Image created as Spice-F_Cu.svg date 2025/09/11 13:26:08 </title>
  <desc>Image generated by PCBNEW </desc>
<g style="fill:#000000; fill-opacity:1.0000;stroke:#000000; stroke-opacity:1.0000;
stroke-linecap:round; stroke-linejoin:round;"
 transform="translate(0 0) scale(1 1)">
<path style="fill:#000000; fill-opacity:1.0000; stroke:none;fill-rule:evenodd;"
d="M 23.7750,21.1650
23.7819,21.1306
23.8014,21.1014
23.8306,21.0819
23.8650,21.0750
25.1850,21.0750
25.2194,21.0819
25.2486,21.1014
25.2681,21.1306
25.2750,21.1650
25.2750,21.8850
25.2681,21.9194
25.2486,21.9486
25.2194,21.9681
25.1850,21.9750
23.8650,21.9750
23.8306,21.9681
23.8014,21.9486
23.7819,21.9194
23.7750,21.8850
Z" /> 
<path style="fill:#000000; fill-opacity:1.0000; stroke:none;fill-rule:evenodd;"
d="M 23.7750,24.4650
23.7819,24.4306
23.8014,24.4014
23.8306,24.3819
23.8650,24.3750
25.1850,24.3750
25.2194,24.3819
25.2486,24.4014
25.2681,24.4306
25.2750,24.4650
25.2750,25.1850
25.2681,25.2194
25.2486,25.2486
25.2194,25.2681
25.1850,25.2750
23.8650,25.2750
23.8306,25.2681
23.8014,25.2486
23.7819,25.2194
23.7750,25.1850
Z" /> 
<path style="fill:#000000; fill-opacity:1.0000; stroke:none;fill-rule:evenodd;"
d="M 28.6750,24.4650
28.6819,24.4306
28.7014,24.4014
28.7306,24.3819
28.7650,24.3750
30.0850,24.3750
30.1194,24.3819
30.1486,24.4014
30.1681,24.4306
30.1750,24.4650
30.1750,25.1850
30.1681,25.2194
30.1486,25.2486
30.1194,25.2681
30.0850,25.2750
28.7650,25.2750
28.7306,25.2681
28.7014,25.2486
28.6819,25.2194
28.6750,25.1850
Z" /> 
<path style="fill:#000000; fill-opacity:1.0000; stroke:none;fill-rule:evenodd;"
d="M 28.6750,21.1650
28.6819,21.1306
28.7014,21.1014
28.7306,21.0819
28.7650,21.0750
30.0850,21.0750
30.1194,21.0819
30.1486,21.1014
30.1681,21.1306
30.1750,21.1650
30.1750,21.8850
30.1681,21.9194
30.1486,21.9486
30.1194,21.9681
30.0850,21.9750
28.7650,21.9750
28.7306,21.9681
28.7014,21.9486
28.6819,21.9194
28.6750,21.8850
Z" /> 
<path style="fill:#000000; fill-opacity:1.0000; stroke:none;fill-rule:evenodd;"
d="M 50.5000,20.6050
50.5114,20.5476
50.5439,20.4989
50.5926,20.4664
50.6500,20.4550
52.1000,20.4550
52.1574,20.4664
52.2061,20.4989
52.2386,20.5476
52.2500,20.6050
52.2500,20.9050
52.2386,20.9624
52.2061,21.0111
52.1574,21.0436
52.1000,21.0550
50.6500,21.0550
50.5926,21.0436
50.5439,21.0111
50.5114,20.9624
50.5000,20.9050
Z" /> 
<path style="fill:#000000; fill-opacity:1.0000; stroke:none;fill-rule:evenodd;"
d="M 50.5000,21.8750
50.5114,21.8176
50.5439,21.7689
50.5926,21.7364
50.6500,21.7250
52.1000,21.7250
52.1574,21.7364
52.2061,21.7689
52.2386,21.8176
52.2500,21.8750
52.2500,22.1750
52.2386,22.2324
52.2061,22.2811
52.1574,22.3136
52.1000,22.3250
50.6500,22.3250
50.5926,22.3136
50.5439,22.2811
50.5114,22.2324
50.5000,22.1750
Z" /> 
<path style="fill:#000000; fill-opacity:1.0000; stroke:none;fill-rule:evenodd;"
d="M 50.5000,23.1450
50.5114,23.0876
50.5439,23.0389
50.5926,23.0064
50.6500,22.9950
52.1000,22.9950
52.1574,23.0064
52.2061,23.0389
52.2386,23.0876
52.2500,23.1450
52.2500,23.4450
52.2386,23.5024
52.2061,23.5511
52.1574,23.5836
52.1000,23.5950
50.6500,23.5950
50.5926,23.5836
50.5439,23.5511
50.5114,23.5024
50.5000,23.4450
Z" /> 
<path style="fill:#000000; fill-opacity:1.0000; stroke:none;fill-rule:evenodd;"
d="M 50.5000,24.4150
50.5114,24.3576
50.5439,24.3089
50.5926,24.2764
50.6500,24.2650
52.1000,24.2650
52.1574,24.2764
52.2061,24.3089
52.2386,24.3576
52.2500,24.4150
52.2500,24.7150
52.2386,24.7724
52.2061,24.8211
52.1574,24.8536
52.1000,24.8650
50.6500,24.8650
50.5926,24.8536
50.5439,24.8211
50.5114,24.7724
50.5000,24.7150
Z" /> 
<path style="fill:#000000; fill-opacity:1.0000; stroke:none;fill-rule:evenodd;"
d="M 55.6500,24.4150
55.6614,24.3576
55.6939,24.3089
55.7426,24.2764
55.8000,24.2650
57.2500,24.2650
57.3074,24.2764
57.3561,24.3089
57.3886,24.3576
57.4000,24.4150
57.4000,24.7150
57.3886,24.7724
57.3561,24.8211
57.3074,24.8536
57.2500,24.8650
55.8000,24.8650
55.7426,24.8536
55.6939,24.8211
55.6614,24.7724
55.6500,24.7150
Z" /> 
<path style="fill:#000000; fill-opacity:1.0000; stroke:none;fill-rule:evenodd;"
d="M 55.6500,23.1450
55.6614,23.0876
55.6939,23.0389
55.7426,23.0064
55.8000,22.9950
57.2500,22.9950
57.3074,23.0064
57.3561,23.0389
57.3886,23.0876
57.4000,23.1450
57.4000,23.4450
57.3886,23.5024
57.3561,23.5511
57.3074,23.5836
57.2500,23.5950
55.8000,23.5950
55.7426,23.5836
55.6939,23.5511
55.6614,23.5024
55.6500,23.4450
Z" /> 
<path style="fill:#000000; fill-opacity:1.0000; stroke:none;fill-rule:evenodd;"
d="M 55.6500,21.8750
55.6614,21.8176
55.6939,21.7689
55.7426,21.7364
55.8000,21.7250
57.2500,21.7250
57.3074,21.7364
57.3561,21.7689
57.3886,21.8176
57.4000,21.8750
57.4000,22.1750
57.3886,22.2324
57.3561,22.2811
57.3074,22.3136
57.2500,22.3250
55.8000,22.3250
55.7426,22.3136
55.6939,22.2811
55.6614,22.2324
55.6500,22.1750
Z" /> 
<path style="fill:#000000; fill-opacity:1.0000; stroke:none;fill-rule:evenodd;"
d="M 55.6500,20.6050
55.6614,20.5476
55.6939,20.4989
55.7426,20.4664
55.8000,20.4550
57.2500,20.4550
57.3074,20.4664
57.3561,20.4989
57.3886,20.5476
57.4000,20.6050
57.4000,20.9050
57.3886,20.9624
57.3561,21.0111
57.3074,21.0436
57.2500,21.0550
55.8000,21.0550
55.7426,21.0436
55.6939,21.0111
55.6614,20.9624
55.6500,20.9050
Z" /> 
<path style="fill:#000000; fill-opacity:1.0000; stroke:none;fill-rule:evenodd;"
d="M 39.7750,21.1650
39.7819,21.1306
39.8014,21.1014
39.8306,21.0819
39.8650,21.0750
41.1850,21.0750
41.2194,21.0819
41.2486,21.1014
41.2681,21.1306
41.2750,21.1650
41.2750,21.8850
41.2681,21.9194
41.2486,21.9486
41.2194,21.9681
41.1850,21.9750
39.8650,21.9750
39.8306,21.9681
39.8014,21.9486
39.7819,21.9194
39.7750,21.8850
Z" /> 
<path style="fill:#000000; fill-opacity:1.0000; stroke:none;fill-rule:evenodd;"
d="M 39.7750,24.4650
39.7819,24.4306
39.8014,24.4014
39.8306,24.3819
39.8650,24.3750
41.1850,24.3750
41.2194,24.3819
41.2486,24.4014
41.2681,24.4306
41.2750,24.4650
41.2750,25.1850
41.2681,25.2194
41.2486,25.2486
41.2194,25.2681
41.1850,25.2750
39.8650,25.2750
39.8306,25.2681
39.8014,25.2486
39.7819,25.2194
39.7750,25.1850
Z" /> 
<path style="fill:#000000; fill-opacity:1.0000; stroke:none;fill-rule:evenodd;"
d="M 44.6750,24.4650
44.6819,24.4306
44.7014,24.4014
44.7306,24.3819
44.7650,24.3750
46.0850,24.3750
46.1194,24.3819
46.1486,24.4014
46.1681,24.4306
46.1750,24.4650
46.1750,25.1850
46.1681,25.2194
46.1486,25.2486
46.1194,25.2681
46.0850,25.2750
44.7650,25.2750
44.7306,25.2681
44.7014,25.2486
44.6819,25.2194
44.6750,25.1850
Z" /> 
<path style="fill:#000000; fill-opacity:1.0000; stroke:none;fill-rule:evenodd;"
d="M 44.6750,21.1650
44.6819,21.1306
44.7014,21.1014
44.7306,21.0819
44.7650,21.0750
46.0850,21.0750
46.1194,21.0819
46.1486,21.1014
46.1681,21.1306
46.1750,21.1650
46.1750,21.8850
46.1681,21.9194
46.1486,21.9486
46.1194,21.9681
46.0850,21.9750
44.7650,21.9750
44.7306,21.9681
44.7014,21.9486
44.6819,21.9194
44.6750,21.8850
Z" /> 
<path style="fill:#000000; fill-opacity:1.0000; stroke:none;fill-rule:evenodd;"
d="M 8.2100,21.1650
8.2169,21.1306
8.2364,21.1014
8.2656,21.0819
8.3000,21.0750
9.6200,21.0750
9.6544,21.0819
9.6836,21.1014
9.7031,21.1306
9.7100,21.1650
9.7100,21.8850
9.7031,21.9194
9.6836,21.9486
9.6544,21.9681
9.6200,21.9750
8.3000,21.9750
8.2656,21.9681
8.2364,21.9486
8.2169,21.9194
8.2100,21.8850
Z" /> 
<path style="fill:#000000; fill-opacity:1.0000; stroke:none;fill-rule:evenodd;"
d="M 8.2100,24.4650
8.2169,24.4306
8.2364,24.4014
8.2656,24.3819
8.3000,24.3750
9.6200,24.3750
9.6544,24.3819
9.6836,24.4014
9.7031,24.4306
9.7100,24.4650
9.7100,25.1850
9.7031,25.2194
9.6836,25.2486
9.6544,25.2681
9.6200,25.2750
8.3000,25.2750
8.2656,25.2681
8.2364,25.2486
8.2169,25.2194
8.2100,25.1850
Z" /> 
<path style="fill:#000000; fill-opacity:1.0000; stroke:none;fill-rule:evenodd;"
d="M 13.1100,24.4650
13.1169,24.4306
13.1364,24.4014
13.1656,24.3819
13.2000,24.3750
14.5200,24.3750
14.5544,24.3819
14.5836,24.4014
14.6031,24.4306
14.6100,24.4650
14.6100,25.1850
14.6031,25.2194
14.5836,25.2486
14.5544,25.2681
14.5200,25.2750
13.2000,25.2750
13.1656,25.2681
13.1364,25.2486
13.1169,25.2194
13.1100,25.1850
Z" /> 
<path style="fill:#000000; fill-opacity:1.0000; stroke:none;fill-rule:evenodd;"
d="M 13.1100,21.1650
13.1169,21.1306
13.1364,21.1014
13.1656,21.0819
13.2000,21.0750
14.5200,21.0750
14.5544,21.0819
14.5836,21.1014
14.6031,21.1306
14.6100,21.1650
14.6100,21.8850
14.6031,21.9194
14.5836,21.9486
14.5544,21.9681
14.5200,21.9750
13.2000,21.9750
13.1656,21.9681
13.1364,21.9486
13.1169,21.9194
13.1100,21.8850
Z" /> 
<path style="fill:#000000; fill-opacity:1.0000; stroke:none;fill-rule:evenodd;"
d="M 63.6350,19.9250
63.6540,19.8293
63.7082,19.7482
63.7893,19.6940
63.8850,19.6750
65.0850,19.6750
65.1807,19.6940
65.2618,19.7482
65.3160,19.8293
65.3350,19.9250
65.3350,21.1250
65.3160,21.2207
65.2618,21.3018
65.1807,21.3560
65.0850,21.3750
63.8850,21.3750
63.7893,21.3560
63.7082,21.3018
63.6540,21.2207
63.6350,21.1250
Z" /> 
</g>
<g style="fill:#000000; fill-opacity:1.0000; stroke:none;">
<circle cx="67.0250" cy="20.5250" r="0.8500" /> 
</g>
<g style="fill:#000000; fill-opacity:1.0000; stroke:none;">
<circle cx="64.4850" cy="23.0650" r="0.8500" /> 
</g>
<g style="fill:#000000; fill-opacity:1.0000; stroke:none;">
<circle cx="67.0250" cy="23.0650" r="0.8500" /> 
</g>
<g style="fill:#000000; fill-opacity:1.0000; stroke:none;">
<circle cx="64.4850" cy="25.6050" r="0.8500" /> 
</g>
<g style="fill:#000000; fill-opacity:1.0000; stroke:none;">
<circle cx="67.0250" cy="25.6050" r="0.8500" /> 
</g>
<g style="fill:none; 
stroke:#000000; stroke-width:0.4000; stroke-opacity:1; 
stroke-linecap:round; stroke-linejoin:round;">
<path d="M58.7550 18.5250
L56.5250 20.7550
" />
<path d="M24.5250 24.8250
L17.1600 24.8250
" />
<path d="M17.1600 24.8250
L13.8600 21.5250
" />
<path d="M27.5250 18.5250
L11.9600 18.5250
" />
<path d="M27.5250 18.5250
L24.5250 21.5250
" />
<path d="M43.5250 18.5250
L27.5250 18.5250
" />
<path d="M43.5250 18.5250
L40.5250 21.5250
" />
<path d="M59.5250 18.5250
L58.7550 18.5250
" />
<path d="M59.5250 18.5250
L43.5250 18.5250
" />
<path d="M11.9600 18.5250
L8.9600 21.5250
" />
<path d="M40.5250 24.8250
L32.7250 24.8250
" />
<path d="M32.7250 24.8250
L29.4250 21.5250
" />
<path d="M60.2550 23.2950
L56.5250 23.2950
" />
<path d="M60.5250 20.5250
L59.0250 22.0250
" />
<path d="M64.4850 20.5250
L60.5250 20.5250
" />
<path d="M59.0250 22.0250
L56.5250 22.0250
" />
<path d="M60.5250 23.0250
L60.2550 23.2950
" />
<path d="M60.5650 23.0650
L60.5250 23.0250
" />
<path d="M64.4850 23.0650
L60.5650 23.0650
" />
<path d="M64.4850 25.6050
L61.6050 25.6050
" />
<path d="M67.0250 20.5250
L65.0250 18.5250
" />
<path d="M51.3750 22.0250
L48.0250 22.0250
" />
<path d="M65.0250 18.5250
L59.5250 18.5250
" />
<path d="M48.0250 22.0250
L47.5250 21.5250
" />
<path d="M47.5250 21.5250
L45.4250 21.5250
" />
</g>
<g style="fill:none; 
stroke:#000000; stroke-width:0.2000; stroke-opacity:1; 
stroke-linecap:round; stroke-linejoin:round;">
<path d="M14.8250 24.8250
L13.8600 24.8250
" />
<path d="M33.5250 28.9250
L33.5250 29.0250
" />
</g>
<g style="fill:none; 
stroke:#000000; stroke-width:0.4000; stroke-opacity:1; 
stroke-linecap:round; stroke-linejoin:round;">
<path d="M60.5650 24.5650
L56.5250 24.5650
" />
<path d="M61.6050 25.6050
L60.5650 24.5650
" />
<path style="fill:#000000; fill-opacity:1.0000; stroke:none;fill-rule:evenodd;"
d="M 65.8264,23.7190
65.8655,23.7641
65.8696,23.7721
65.8700,23.7728
65.9949,23.9448
66.1452,24.0951
66.3172,24.2200
66.3172,24.2200
66.3172,24.2201
66.3265,24.2248
66.3773,24.2728
66.3941,24.3406
66.3716,24.4067
66.3265,24.4458
66.3174,24.4504
66.3174,24.4504
66.2633,24.4897
66.2633,24.4897
66.8956,25.1220
66.8320,25.1391
66.7180,25.2049
66.6249,25.2980
66.5591,25.4120
66.5420,25.4756
65.9097,24.8433
65.9097,24.8433
65.8704,24.8974
65.8704,24.8974
65.8658,24.9065
65.8178,24.9573
65.7500,24.9741
65.6838,24.9515
65.6448,24.9065
65.6401,24.8972
65.6400,24.8972
65.6400,24.8972
65.5151,24.7252
65.3648,24.5749
65.1928,24.4500
65.1846,24.4458
65.1841,24.4455
65.1333,24.3975
65.1165,24.3297
65.1390,24.2636
65.1841,24.2245
65.1928,24.2201
65.2829,24.1546
65.3648,24.0951
65.3648,24.0951
65.3648,24.0951
65.5151,23.9448
65.5151,23.9448
65.5151,23.9448
65.6400,23.7728
65.6400,23.7728
65.6401,23.7728
65.6445,23.7641
65.6925,23.7133
65.7603,23.6965
Z" /> 
<path style="fill:#000000; fill-opacity:1.0000; stroke:none;fill-rule:evenodd;"
d="M 75.4697,2.0447
75.5154,2.0975
75.5266,2.1473
75.8561,26.8566
76.0233,39.3993
76.0045,39.4666
75.9523,39.5131
75.8993,39.5250
65.0250,39.5250
59.4027,39.5707
3.6484,40.0240
3.5812,40.0049
3.5350,39.9524
3.5234,39.9016
3.3198,24.4263
7.7095,24.4263
7.7095,25.2237
7.7247,25.3391
7.7247,25.3392
7.7841,25.4825
7.7842,25.4828
7.8789,25.6061
8.0022,25.7008
8.1458,25.7603
8.2613,25.7755
9.6587,25.7755
9.6587,25.7755
9.7741,25.7603
9.7741,25.7603
9.7742,25.7603
9.9178,25.7008
10.0411,25.6061
10.1358,25.4828
10.1953,25.3392
10.2105,25.2237
10.2105,25.2237
12.6100,25.2237
12.6252,25.3390
12.6252,25.3390
12.6846,25.4825
12.6846,25.4825
12.7792,25.6058
12.9025,25.7004
13.0460,25.7598
13.0460,25.7598
13.1613,25.7750
13.6100,25.7750
14.1100,25.7750
14.5587,25.7750
14.6740,25.7598
14.6740,25.7598
14.8175,25.7004
14.8175,25.7004
14.9408,25.6058
15.0354,25.4825
15.0354,25.4825
15.0948,25.3390
15.0948,25.3390
15.1100,25.2237
15.1100,25.0750
14.1100,25.0750
14.1100,25.7750
13.6100,25.7750
13.6100,25.0750
12.6100,25.0750
12.6100,25.2237
10.2105,25.2237
10.2105,24.8176
10.2105,24.4263
12.6100,24.4263
12.6100,24.5750
13.6100,24.5750
14.1100,24.5750
15.1100,24.5750
15.1100,24.4263
15.0948,24.3110
15.0948,24.3110
15.0354,24.1675
15.0354,24.1675
14.9408,24.0442
14.8175,23.9496
14.6740,23.8902
14.6740,23.8902
14.5587,23.8750
14.1100,23.8750
14.1100,24.5750
13.6100,24.5750
13.6100,23.8750
13.1613,23.8750
13.0460,23.8902
13.0460,23.8902
12.9025,23.9496
12.9025,23.9496
12.7792,24.0442
12.6846,24.1675
12.6846,24.1675
12.6252,24.3110
12.6252,24.3110
12.6100,24.4263
10.2105,24.4263
10.2105,24.4263
10.1953,24.3109
10.1953,24.3108
10.1953,24.3108
10.1358,24.1672
10.0411,24.0439
9.9178,23.9492
9.9178,23.9492
9.7742,23.8897
9.7741,23.8897
9.6587,23.8745
8.2613,23.8745
8.1459,23.8897
8.1458,23.8897
8.0022,23.9492
8.0022,23.9492
8.0022,23.9492
7.8789,24.0439
7.7939,24.1546
7.7842,24.1672
7.7247,24.3108
7.7247,24.3108
7.7095,24.4263
3.3198,24.4263
3.3142,24.0073
3.2763,21.1263
7.7095,21.1263
7.7095,21.9237
7.7247,22.0391
7.7247,22.0392
7.7842,22.1828
7.8789,22.3061
8.0022,22.4008
8.1458,22.4603
8.2613,22.4755
9.6587,22.4755
9.6587,22.4755
9.7741,22.4603
9.7741,22.4603
9.7742,22.4603
9.9178,22.4008
10.0411,22.3061
10.1358,22.1828
10.1953,22.0392
10.2105,21.9237
10.2105,21.3165
10.2302,21.2495
10.2468,21.2288
10.3494,21.1263
12.6095,21.1263
12.6095,21.9237
12.6247,22.0391
12.6247,22.0392
12.6842,22.1828
12.7789,22.3061
12.9022,22.4008
13.0458,22.4603
13.1613,22.4755
13.7685,22.4755
13.8355,22.4952
13.8562,22.5118
16.7135,25.3691
16.7135,25.3691
16.8282,25.4458
16.9557,25.4986
16.9557,25.4986
16.9557,25.4986
16.9557,25.4986
17.0910,25.5255
17.0910,25.5255
17.0910,25.5255
23.3208,25.5255
23.3879,25.5452
23.4192,25.5740
23.4439,25.6061
23.5672,25.7008
23.7108,25.7603
23.8263,25.7755
25.2237,25.7755
25.2237,25.7755
25.3391,25.7603
25.3391,25.7603
25.3392,25.7603
25.4828,25.7008
25.6061,25.6061
25.7008,25.4828
25.7603,25.3392
25.7755,25.2237
25.7755,25.2237
28.1750,25.2237
28.1902,25.3390
28.1902,25.3390
28.2496,25.4825
28.2496,25.4825
28.3442,25.6058
28.4675,25.7004
28.6110,25.7598
28.6110,25.7598
28.7263,25.7750
29.1750,25.7750
29.6750,25.7750
30.1237,25.7750
30.2390,25.7598
30.2390,25.7598
30.3825,25.7004
30.3825,25.7004
30.5058,25.6058
30.6004,25.4825
30.6004,25.4825
30.6598,25.3390
30.6598,25.3390
30.6750,25.2237
30.6750,25.0750
29.6750,25.0750
29.6750,25.7750
29.1750,25.7750
29.1750,25.0750
28.1750,25.0750
28.1750,25.2237
25.7755,25.2237
25.7755,24.8176
25.7755,24.4263
28.1750,24.4263
28.1750,24.5750
29.1750,24.5750
29.6750,24.5750
30.6750,24.5750
30.6750,24.4263
30.6598,24.3110
30.6598,24.3110
30.6004,24.1675
30.6004,24.1675
30.5058,24.0442
30.3825,23.9496
30.2390,23.8902
30.2390,23.8902
30.1237,23.8750
29.6750,23.8750
29.6750,24.5750
29.1750,24.5750
29.1750,23.8750
28.7263,23.8750
28.6110,23.8902
28.6110,23.8902
28.4675,23.9496
28.4675,23.9496
28.3442,24.0442
28.2496,24.1675
28.2496,24.1675
28.1902,24.3110
28.1902,24.3110
28.1750,24.4263
25.7755,24.4263
25.7755,24.4263
25.7603,24.3109
25.7603,24.3108
25.7603,24.3108
25.7008,24.1672
25.6061,24.0439
25.4828,23.9492
25.4828,23.9492
25.3392,23.8897
25.3391,23.8897
25.2237,23.8745
23.8263,23.8745
23.7109,23.8897
23.7108,23.8897
23.5672,23.9492
23.5672,23.9492
23.5672,23.9492
23.4439,24.0439
23.4192,24.0760
23.3628,24.1172
23.3208,24.1245
17.5015,24.1245
17.4345,24.1048
17.4138,24.0882
15.1468,21.8212
15.1133,21.7598
15.1105,21.7335
15.1105,21.1263
15.0953,21.0109
15.0953,21.0108
15.0953,21.0108
15.0358,20.8672
14.9411,20.7439
14.8178,20.6492
14.8178,20.6492
14.6742,20.5897
14.6741,20.5897
14.5587,20.5745
13.1613,20.5745
13.0459,20.5897
13.0458,20.5897
12.9022,20.6492
12.9022,20.6492
12.9022,20.6492
12.7789,20.7439
12.6963,20.8514
12.6842,20.8672
12.6247,21.0108
12.6247,21.0108
12.6095,21.1263
10.3494,21.1263
12.2138,19.2618
12.2752,19.2283
12.3015,19.2255
25.5345,19.2255
25.6015,19.2452
25.6473,19.2980
25.6572,19.3671
25.6282,19.4307
25.6222,19.4372
24.5212,20.5382
24.4598,20.5717
24.4335,20.5745
23.8263,20.5745
23.7109,20.5897
23.7108,20.5897
23.5672,20.6492
23.5672,20.6492
23.5672,20.6492
23.4439,20.7439
23.3613,20.8514
23.3492,20.8672
23.2897,21.0108
23.2897,21.0108
23.2745,21.1263
23.2745,21.9237
23.2897,22.0391
23.2897,22.0392
23.3492,22.1828
23.4439,22.3061
23.5672,22.4008
23.7108,22.4603
23.8263,22.4755
25.2237,22.4755
25.2237,22.4755
25.3391,22.4603
25.3391,22.4603
25.3392,22.4603
25.4828,22.4008
25.6061,22.3061
25.7008,22.1828
25.7603,22.0392
25.7755,21.9237
25.7755,21.3165
25.7952,21.2495
25.8118,21.2288
25.9144,21.1263
28.1745,21.1263
28.1745,21.9237
28.1897,22.0391
28.1897,22.0392
28.2492,22.1828
28.3439,22.3061
28.4672,22.4008
28.6108,22.4603
28.7263,22.4755
29.3335,22.4755
29.4005,22.4952
29.4212,22.5118
32.2785,25.3691
32.2785,25.3691
32.3932,25.4458
32.5207,25.4986
32.5207,25.4986
32.5207,25.4986
32.5207,25.4986
32.6560,25.5255
32.6560,25.5255
32.6560,25.5255
39.3208,25.5255
39.3879,25.5452
39.4192,25.5740
39.4439,25.6061
39.5672,25.7008
39.7108,25.7603
39.8263,25.7755
41.2237,25.7755
41.2237,25.7755
41.3391,25.7603
41.3391,25.7603
41.3392,25.7603
41.4828,25.7008
41.6061,25.6061
41.7008,25.4828
41.7603,25.3392
41.7755,25.2237
41.7755,25.2237
44.1750,25.2237
44.1902,25.3390
44.1902,25.3390
44.2496,25.4825
44.2496,25.4825
44.3442,25.6058
44.4675,25.7004
44.6110,25.7598
44.6110,25.7598
44.7263,25.7750
45.1750,25.7750
45.6750,25.7750
46.1237,25.7750
46.2390,25.7598
46.2390,25.7598
46.3825,25.7004
46.3825,25.7004
46.5058,25.6058
46.6004,25.4825
46.6004,25.4825
46.6598,25.3390
46.6598,25.3390
46.6750,25.2237
46.6750,25.0750
45.6750,25.0750
45.6750,25.7750
45.1750,25.7750
45.1750,25.0750
44.1750,25.0750
44.1750,25.2237
41.7755,25.2237
41.7755,24.8433
41.7755,24.8150
50.0027,24.8150
50.0029,24.8175
50.0487,24.9752
50.1323,25.1166
50.1323,25.1166
50.2484,25.2327
50.2484,25.2327
50.3898,25.3163
50.3898,25.3163
50.5475,25.3621
50.5475,25.3621
50.5844,25.3650
50.5844,25.3650
51.1250,25.3650
51.6250,25.3650
52.1656,25.3650
52.1656,25.3650
52.2025,25.3621
52.2025,25.3621
52.3602,25.3163
52.3602,25.3163
52.5016,25.2327
52.5016,25.2327
52.6177,25.1166
52.6177,25.1166
52.7013,24.9752
52.7471,24.8175
52.7473,24.8150
52.7473,24.8150
51.6250,24.8150
51.6250,25.3650
51.1250,25.3650
51.1250,24.8150
50.0027,24.8150
50.0027,24.8150
41.7755,24.8150
41.7755,24.7707
41.7755,24.4263
44.1750,24.4263
44.1750,24.5750
45.1750,24.5750
45.6750,24.5750
46.6750,24.5750
46.6750,24.4263
46.6598,24.3110
46.6598,24.3110
46.6004,24.1675
46.6004,24.1675
46.5058,24.0442
46.3825,23.9496
46.2390,23.8902
46.2390,23.8902
46.1237,23.8750
45.6750,23.8750
45.6750,24.5750
45.1750,24.5750
45.1750,23.8750
44.7263,23.8750
44.6110,23.8902
44.6110,23.8902
44.4675,23.9496
44.4675,23.9496
44.3442,24.0442
44.2496,24.1675
44.2496,24.1675
44.1902,24.3110
44.1902,24.3110
44.1750,24.4263
41.7755,24.4263
41.7755,24.4263
41.7603,24.3109
41.7603,24.3108
41.7603,24.3108
41.7008,24.1672
41.6061,24.0439
41.4828,23.9492
41.4828,23.9492
41.3392,23.8897
41.3391,23.8897
41.2237,23.8745
39.8263,23.8745
39.7109,23.8897
39.7108,23.8897
39.5672,23.9492
39.5672,23.9492
39.5672,23.9492
39.4439,24.0439
39.4192,24.0760
39.3628,24.1172
39.3208,24.1245
33.0665,24.1245
32.9995,24.1048
32.9788,24.0882
30.7118,21.8212
30.6783,21.7598
30.6755,21.7335
30.6755,21.1263
30.6603,21.0109
30.6603,21.0108
30.6603,21.0108
30.6008,20.8672
30.5061,20.7439
30.3828,20.6492
30.3828,20.6492
30.2392,20.5897
30.2391,20.5897
30.1237,20.5745
28.7263,20.5745
28.6109,20.5897
28.6108,20.5897
28.4672,20.6492
28.4672,20.6492
28.4672,20.6492
28.3439,20.7439
28.2613,20.8514
28.2492,20.8672
28.1897,21.0108
28.1897,21.0108
28.1745,21.1263
25.9144,21.1263
27.7788,19.2618
27.8402,19.2283
27.8665,19.2255
41.5345,19.2255
41.6015,19.2452
41.6473,19.2980
41.6572,19.3671
41.6282,19.4307
41.6222,19.4372
40.5212,20.5382
40.4598,20.5717
40.4335,20.5745
39.8263,20.5745
39.7109,20.5897
39.7108,20.5897
39.5672,20.6492
39.5672,20.6492
39.5672,20.6492
39.4439,20.7439
39.3613,20.8514
39.3492,20.8672
39.2897,21.0108
39.2897,21.0108
39.2745,21.1263
39.2745,21.9237
39.2897,22.0391
39.2897,22.0392
39.3492,22.1828
39.4439,22.3061
39.5672,22.4008
39.7108,22.4603
39.8263,22.4755
41.2237,22.4755
41.2237,22.4755
41.3391,22.4603
41.3391,22.4603
41.3392,22.4603
41.4828,22.4008
41.6061,22.3061
41.7008,22.1828
41.7603,22.0392
41.7755,21.9237
41.7755,21.3165
41.7952,21.2495
41.8118,21.2288
41.9144,21.1263
44.1745,21.1263
44.1745,21.9237
44.1897,22.0391
44.1897,22.0392
44.2492,22.1828
44.3439,22.3061
44.4672,22.4008
44.6108,22.4603
44.7263,22.4755
46.1237,22.4755
46.1237,22.4755
46.2391,22.4603
46.2391,22.4603
46.2392,22.4603
46.3828,22.4008
46.5061,22.3061
46.5308,22.2740
46.5872,22.2328
46.6292,22.2255
47.1835,22.2255
47.2505,22.2452
47.2712,22.2618
47.5785,22.5691
47.5785,22.5691
47.6932,22.6458
47.7913,22.6864
47.8207,22.6986
47.8207,22.6986
47.8207,22.6986
47.9560,22.7255
47.9560,22.7255
47.9560,22.7255
49.9293,22.7255
49.9964,22.7452
50.0421,22.7980
50.0521,22.8671
50.0484,22.8841
50.0024,23.0424
50.0024,23.0424
49.9995,23.0793
49.9995,23.5107
50.0024,23.5476
50.0024,23.5476
50.0483,23.7054
50.0483,23.7054
50.1319,23.8469
50.1367,23.8530
50.1344,23.8548
50.1612,23.9040
50.1562,23.9737
50.1355,24.0060
50.1371,24.0073
50.1323,24.0134
50.0487,24.1548
50.0029,24.3125
50.0027,24.3150
50.0027,24.3150
52.7473,24.3150
52.7473,24.3150
52.7471,24.3125
52.7013,24.1548
52.6177,24.0134
52.6129,24.0073
52.6154,24.0054
52.5888,23.9568
52.5937,23.8871
52.6149,23.8542
52.6133,23.8530
52.6181,23.8469
52.6181,23.8469
52.7017,23.7054
52.7476,23.5476
52.7505,23.5107
52.7505,23.0793
52.7476,23.0424
52.7233,22.9587
52.7017,22.8846
52.7017,22.8846
52.7017,22.8846
52.6181,22.7431
52.6181,22.7431
52.6133,22.7370
52.6157,22.7351
52.5892,22.6864
52.5941,22.6167
52.6149,22.5843
52.6133,22.5830
52.6181,22.5769
52.6181,22.5769
52.7017,22.4354
52.7476,22.2776
52.7505,22.2407
52.7505,21.8093
52.7476,21.7724
52.7439,21.7598
52.7017,21.6146
52.7017,21.6146
52.7017,21.6146
52.6181,21.4731
52.6181,21.4731
52.6133,21.4670
52.6157,21.4651
52.5892,21.4164
52.5941,21.3467
52.6149,21.3143
52.6133,21.3130
52.6181,21.3069
52.6181,21.3069
52.7017,21.1654
52.7466,21.0108
52.7476,21.0076
52.7476,21.0076
52.7505,20.9707
52.7505,20.5393
52.7476,20.5024
52.7389,20.4726
52.7138,20.3862
52.7017,20.3446
52.6181,20.2031
52.6181,20.2031
52.6181,20.2031
52.5019,20.0869
52.5019,20.0869
52.3604,20.0033
52.3604,20.0033
52.2026,19.9574
52.2026,19.9574
52.1657,19.9545
52.1657,19.9545
50.5843,19.9545
50.5843,19.9545
50.5474,19.9574
50.5474,19.9574
50.3896,20.0033
50.3896,20.0033
50.2481,20.0869
50.2481,20.0869
50.1319,20.2031
50.1319,20.2031
50.0483,20.3446
50.0483,20.3446
50.0024,20.5024
50.0024,20.5024
49.9995,20.5393
49.9995,20.9707
50.0024,21.0076
50.0024,21.0076
50.0484,21.1659
50.0482,21.2358
50.0103,21.2944
49.9466,21.3233
49.9293,21.3245
48.3665,21.3245
48.2995,21.3048
48.2788,21.2882
47.9715,20.9809
47.9715,20.9809
47.8568,20.9042
47.7293,20.8514
47.7293,20.8514
47.5940,20.8245
47.5940,20.8245
47.5940,20.8245
46.6292,20.8245
46.5621,20.8048
46.5308,20.7760
46.5061,20.7439
46.3828,20.6492
46.3828,20.6492
46.2392,20.5897
46.2391,20.5897
46.1237,20.5745
44.7263,20.5745
44.6109,20.5897
44.6108,20.5897
44.4672,20.6492
44.4672,20.6492
44.4672,20.6492
44.3439,20.7439
44.2613,20.8514
44.2492,20.8672
44.1897,21.0108
44.1897,21.0108
44.1745,21.1263
41.9144,21.1263
43.7788,19.2618
43.8402,19.2283
43.8665,19.2255
56.7645,19.2255
56.8315,19.2452
56.8773,19.2980
56.8872,19.3671
56.8582,19.4307
56.8522,19.4372
56.3712,19.9182
56.3098,19.9517
56.2835,19.9545
55.7343,19.9545
55.6974,19.9574
55.6974,19.9574
55.5396,20.0033
55.5396,20.0033
55.3981,20.0869
55.3981,20.0869
55.2819,20.2031
55.2819,20.2031
55.1983,20.3446
55.1983,20.3446
55.1524,20.5024
55.1524,20.5024
55.1495,20.5393
55.1495,20.9707
55.1524,21.0076
55.1524,21.0076
55.1983,21.1654
55.1983,21.1654
55.2819,21.3069
55.2867,21.3130
55.2843,21.3149
55.3109,21.3636
55.3059,21.4333
55.2851,21.4657
55.2867,21.4670
55.2819,21.4731
55.1983,21.6146
55.1983,21.6146
55.1524,21.7724
55.1524,21.7724
55.1495,21.8093
55.1495,22.2407
55.1524,22.2776
55.1524,22.2776
55.1983,22.4354
55.1983,22.4354
55.2819,22.5769
55.2867,22.5830
55.2843,22.5849
55.3109,22.6336
55.3059,22.7033
55.2851,22.7357
55.2867,22.7370
55.2819,22.7431
55.1983,22.8846
55.1983,22.8846
55.1524,23.0424
55.1524,23.0424
55.1495,23.0793
55.1495,23.5107
55.1524,23.5476
55.1524,23.5476
55.1983,23.7054
55.1983,23.7054
55.2819,23.8469
55.2867,23.8530
55.2843,23.8549
55.3109,23.9036
55.3059,23.9733
55.2851,24.0057
55.2867,24.0070
55.2819,24.0131
55.1983,24.1546
55.1983,24.1546
55.1524,24.3124
55.1524,24.3124
55.1495,24.3493
55.1495,24.7807
55.1524,24.8176
55.1524,24.8176
55.1983,24.9754
55.1983,24.9754
55.2819,25.1169
55.2819,25.1169
55.3981,25.2331
55.3981,25.2331
55.3981,25.2331
55.5396,25.3167
55.5812,25.3288
55.6974,25.3626
55.6974,25.3626
55.6974,25.3626
55.7343,25.3655
55.7343,25.3655
57.3157,25.3655
57.3157,25.3655
57.3526,25.3626
57.3526,25.3626
57.3526,25.3626
57.4337,25.3390
57.5104,25.3167
57.5678,25.2828
57.6310,25.2655
60.2235,25.2655
60.2905,25.2852
60.3112,25.3018
61.1585,26.1491
61.1585,26.1491
61.2732,26.2258
61.4007,26.2786
61.4007,26.2786
61.4007,26.2786
61.4007,26.2786
61.5360,26.3055
61.5360,26.3055
61.5360,26.3055
63.2615,26.3055
63.3285,26.3252
63.3618,26.3566
63.3968,26.4049
63.4549,26.4848
63.6052,26.6351
63.7772,26.7600
63.7772,26.7600
63.7772,26.7601
63.9666,26.8566
64.1688,26.9222
64.3787,26.9555
64.3787,26.9555
64.5913,26.9555
64.5913,26.9555
64.8012,26.9222
65.0034,26.8566
65.1928,26.7601
65.2476,26.7203
65.3648,26.6351
65.3648,26.6351
65.3648,26.6351
65.5151,26.4848
65.5151,26.4848
65.5151,26.4848
65.6009,26.3667
65.6401,26.3128
65.6448,26.3035
65.6928,26.2527
65.7606,26.2359
65.8267,26.2584
65.8658,26.3035
65.8704,26.3125
65.9097,26.3667
66.5420,25.7344
66.5591,25.7980
66.6249,25.9120
66.7180,26.0051
66.8320,26.0709
66.8956,26.0880
66.2633,26.7203
66.2633,26.7203
66.3174,26.7596
66.5068,26.8561
66.7089,26.9218
66.9188,26.9550
67.1312,26.9550
67.3411,26.9218
67.3411,26.9218
67.5432,26.8561
67.7326,26.7596
67.7867,26.7203
67.7867,26.7203
67.1544,26.0880
67.2180,26.0709
67.3320,26.0051
67.4251,25.9120
67.4909,25.7980
67.5080,25.7344
68.1403,26.3667
68.1403,26.3667
68.1796,26.3126
68.2761,26.1232
68.3418,25.9211
68.3418,25.9211
68.3750,25.7112
68.3750,25.4988
68.3418,25.2889
68.3418,25.2889
68.2761,25.0868
68.1796,24.8974
68.1403,24.8433
68.1403,24.8433
67.5080,25.4756
67.4909,25.4120
67.4251,25.2980
67.3320,25.2049
67.2180,25.1391
67.1544,25.1220
67.7867,24.4897
67.7325,24.4504
67.7325,24.4504
67.7235,24.4458
67.6727,24.3978
67.6559,24.3300
67.6785,24.2638
67.7235,24.2248
67.7328,24.2201
67.8229,24.1546
67.9048,24.0951
67.9048,24.0951
67.9048,24.0951
68.0551,23.9448
68.0551,23.9448
68.0551,23.9448
68.1800,23.7728
68.1800,23.7728
68.1801,23.7728
68.2766,23.5834
68.3422,23.3812
68.3755,23.1713
68.3755,22.9587
68.3422,22.7488
68.2766,22.5466
68.1801,22.3572
68.1800,22.3572
68.1800,22.3572
68.0551,22.1852
67.9048,22.0349
67.7328,21.9100
67.7321,21.9096
67.7241,21.9055
67.6733,21.8575
67.6565,21.7897
67.6790,21.7236
67.7241,21.6845
67.7328,21.6801
67.8229,21.6146
67.9048,21.5551
67.9048,21.5551
67.9048,21.5551
68.0551,21.4048
68.0551,21.4048
68.0551,21.4048
68.1711,21.2452
68.1801,21.2328
68.2766,21.0434
68.3422,20.8412
68.3755,20.6313
68.3755,20.4187
68.3422,20.2088
68.2766,20.0066
68.1801,19.8172
68.1800,19.8172
68.1800,19.8172
68.0551,19.6452
67.9048,19.4949
67.7328,19.3700
67.5434,19.2734
67.5434,19.2734
67.5434,19.2734
67.3412,19.2078
67.3412,19.2078
67.3412,19.2078
67.1800,19.1822
67.1313,19.1745
66.9187,19.1745
66.7622,19.1993
66.6929,19.1903
66.6551,19.1645
65.4715,17.9809
65.4715,17.9809
65.3568,17.9042
65.2293,17.8514
65.2293,17.8514
65.0940,17.8245
65.0940,17.8245
65.0940,17.8245
59.5940,17.8245
43.5940,17.8245
43.5940,17.8245
27.5940,17.8245
27.5940,17.8245
12.0290,17.8245
11.8910,17.8245
11.8910,17.8245
11.7557,17.8514
11.7557,17.8514
11.6282,17.9042
11.5135,17.9809
8.9562,20.5382
8.8948,20.5717
8.8685,20.5745
8.2613,20.5745
8.1459,20.5897
8.1458,20.5897
8.0022,20.6492
8.0022,20.6492
8.0022,20.6492
7.8789,20.7439
7.7963,20.8514
7.7842,20.8672
7.7247,21.0108
7.7247,21.0108
7.7095,21.1263
3.2763,21.1263
3.2763,21.1239
3.0267,2.1506
3.0455,2.0833
3.0977,2.0369
3.1506,2.0250
75.4026,2.0250
Z" /> 
</g> 
</svg>
