<?xml version="1.0" standalone="no"?>
 <!DOCTYPE svg PUBLIC "-//W3C//DTD SVG 1.1//EN" 
 "http://www.w3.org/Graphics/SVG/1.1/DTD/svg11.dtd"> 
<svg
  xmlns:svg="http://www.w3.org/2000/svg"
  xmlns="http://www.w3.org/2000/svg"
  xmlns:xlink="http://www.w3.org/1999/xlink"
  version="1.1"
  width="297.0022mm" height="210.0072mm" viewBox="0.0000 0.0000 297.0022 210.0072">
<title>SVG Image created as Spice-F_Cu.svg date 2025/09/11 10:35:02 </title>
  <desc>Image generated by PCBNEW </desc>
<g style="fill:#000000; fill-opacity:1.0000;stroke:#000000; stroke-opacity:1.0000;
stroke-linecap:round; stroke-linejoin:round;"
 transform="translate(0 0) scale(1 1)">
<path style="fill:#000000; fill-opacity:1.0000; stroke:none;fill-rule:evenodd;"
d="M 117.4750,69.5800
117.4864,69.5226
117.5189,69.4739
117.5676,69.4414
117.6250,69.4300
119.0750,69.4300
119.1324,69.4414
119.1811,69.4739
119.2136,69.5226
119.2250,69.5800
119.2250,69.8800
119.2136,69.9374
119.1811,69.9861
119.1324,70.0186
119.0750,70.0300
117.6250,70.0300
117.5676,70.0186
117.5189,69.9861
117.4864,69.9374
117.4750,69.8800
Z" /> 
<path style="fill:#000000; fill-opacity:1.0000; stroke:none;fill-rule:evenodd;"
d="M 117.4750,70.8500
117.4864,70.7926
117.5189,70.7439
117.5676,70.7114
117.6250,70.7000
119.0750,70.7000
119.1324,70.7114
119.1811,70.7439
119.2136,70.7926
119.2250,70.8500
119.2250,71.1500
119.2136,71.2074
119.1811,71.2561
119.1324,71.2886
119.0750,71.3000
117.6250,71.3000
117.5676,71.2886
117.5189,71.2561
117.4864,71.2074
117.4750,71.1500
Z" /> 
<path style="fill:#000000; fill-opacity:1.0000; stroke:none;fill-rule:evenodd;"
d="M 117.4750,72.1200
117.4864,72.0626
117.5189,72.0139
117.5676,71.9814
117.6250,71.9700
119.0750,71.9700
119.1324,71.9814
119.1811,72.0139
119.2136,72.0626
119.2250,72.1200
119.2250,72.4200
119.2136,72.4774
119.1811,72.5261
119.1324,72.5586
119.0750,72.5700
117.6250,72.5700
117.5676,72.5586
117.5189,72.5261
117.4864,72.4774
117.4750,72.4200
Z" /> 
<path style="fill:#000000; fill-opacity:1.0000; stroke:none;fill-rule:evenodd;"
d="M 117.4750,73.3900
117.4864,73.3326
117.5189,73.2839
117.5676,73.2514
117.6250,73.2400
119.0750,73.2400
119.1324,73.2514
119.1811,73.2839
119.2136,73.3326
119.2250,73.3900
119.2250,73.6900
119.2136,73.7474
119.1811,73.7961
119.1324,73.8286
119.0750,73.8400
117.6250,73.8400
117.5676,73.8286
117.5189,73.7961
117.4864,73.7474
117.4750,73.6900
Z" /> 
<path style="fill:#000000; fill-opacity:1.0000; stroke:none;fill-rule:evenodd;"
d="M 122.6250,73.3900
122.6364,73.3326
122.6689,73.2839
122.7176,73.2514
122.7750,73.2400
124.2250,73.2400
124.2824,73.2514
124.3311,73.2839
124.3636,73.3326
124.3750,73.3900
124.3750,73.6900
124.3636,73.7474
124.3311,73.7961
124.2824,73.8286
124.2250,73.8400
122.7750,73.8400
122.7176,73.8286
122.6689,73.7961
122.6364,73.7474
122.6250,73.6900
Z" /> 
<path style="fill:#000000; fill-opacity:1.0000; stroke:none;fill-rule:evenodd;"
d="M 122.6250,72.1200
122.6364,72.0626
122.6689,72.0139
122.7176,71.9814
122.7750,71.9700
124.2250,71.9700
124.2824,71.9814
124.3311,72.0139
124.3636,72.0626
124.3750,72.1200
124.3750,72.4200
124.3636,72.4774
124.3311,72.5261
124.2824,72.5586
124.2250,72.5700
122.7750,72.5700
122.7176,72.5586
122.6689,72.5261
122.6364,72.4774
122.6250,72.4200
Z" /> 
<path style="fill:#000000; fill-opacity:1.0000; stroke:none;fill-rule:evenodd;"
d="M 122.6250,70.8500
122.6364,70.7926
122.6689,70.7439
122.7176,70.7114
122.7750,70.7000
124.2250,70.7000
124.2824,70.7114
124.3311,70.7439
124.3636,70.7926
124.3750,70.8500
124.3750,71.1500
124.3636,71.2074
124.3311,71.2561
124.2824,71.2886
124.2250,71.3000
122.7750,71.3000
122.7176,71.2886
122.6689,71.2561
122.6364,71.2074
122.6250,71.1500
Z" /> 
<path style="fill:#000000; fill-opacity:1.0000; stroke:none;fill-rule:evenodd;"
d="M 122.6250,69.5800
122.6364,69.5226
122.6689,69.4739
122.7176,69.4414
122.7750,69.4300
124.2250,69.4300
124.2824,69.4414
124.3311,69.4739
124.3636,69.5226
124.3750,69.5800
124.3750,69.8800
124.3636,69.9374
124.3311,69.9861
124.2824,70.0186
124.2250,70.0300
122.7750,70.0300
122.7176,70.0186
122.6689,69.9861
122.6364,69.9374
122.6250,69.8800
Z" /> 
<path style="fill:#000000; fill-opacity:1.0000; stroke:none;fill-rule:evenodd;"
d="M 143.1000,65.1500
143.1957,65.1690
143.2768,65.2232
143.3310,65.3043
143.3500,65.4000
143.3500,68.6000
143.3310,68.6957
143.2768,68.7768
143.1957,68.8310
143.1000,68.8500
139.9000,68.8500
139.8043,68.8310
139.7232,68.7768
139.6690,68.6957
139.6500,68.6000
139.6500,65.4000
139.6690,65.3043
139.7232,65.2232
139.8043,65.1690
139.9000,65.1500
Z" /> 
</g>
<g style="fill:#000000; fill-opacity:1.0000; stroke:none;">
<circle cx="141.5000" cy="72.7000" r="1.8500" /> 
</g>
<g style="fill:#000000; fill-opacity:1.0000; stroke:none;">
<circle cx="141.5000" cy="78.4000" r="1.8500" /> 
</g>
<g style="fill:#000000; fill-opacity:1.0000; stroke:none;">
<circle cx="135.8000" cy="67.0000" r="1.8500" /> 
</g>
<g style="fill:#000000; fill-opacity:1.0000; stroke:none;">
<circle cx="135.8000" cy="72.7000" r="1.8500" /> 
</g>
<g style="fill:#000000; fill-opacity:1.0000; stroke:none;">
<circle cx="135.8000" cy="78.4000" r="1.8500" /> 
<path style="fill:#000000; fill-opacity:1.0000; stroke:none;fill-rule:evenodd;"
d="M 75.1850,70.1400
75.1919,70.1056
75.2114,70.0764
75.2406,70.0569
75.2750,70.0500
76.5950,70.0500
76.6294,70.0569
76.6586,70.0764
76.6781,70.1056
76.6850,70.1400
76.6850,70.8600
76.6781,70.8944
76.6586,70.9236
76.6294,70.9431
76.5950,70.9500
75.2750,70.9500
75.2406,70.9431
75.2114,70.9236
75.1919,70.8944
75.1850,70.8600
Z" /> 
<path style="fill:#000000; fill-opacity:1.0000; stroke:none;fill-rule:evenodd;"
d="M 75.1850,73.4400
75.1919,73.4056
75.2114,73.3764
75.2406,73.3569
75.2750,73.3500
76.5950,73.3500
76.6294,73.3569
76.6586,73.3764
76.6781,73.4056
76.6850,73.4400
76.6850,74.1600
76.6781,74.1944
76.6586,74.2236
76.6294,74.2431
76.5950,74.2500
75.2750,74.2500
75.2406,74.2431
75.2114,74.2236
75.1919,74.1944
75.1850,74.1600
Z" /> 
<path style="fill:#000000; fill-opacity:1.0000; stroke:none;fill-rule:evenodd;"
d="M 80.0850,73.4400
80.0919,73.4056
80.1114,73.3764
80.1406,73.3569
80.1750,73.3500
81.4950,73.3500
81.5294,73.3569
81.5586,73.3764
81.5781,73.4056
81.5850,73.4400
81.5850,74.1600
81.5781,74.1944
81.5586,74.2236
81.5294,74.2431
81.4950,74.2500
80.1750,74.2500
80.1406,74.2431
80.1114,74.2236
80.0919,74.1944
80.0850,74.1600
Z" /> 
<path style="fill:#000000; fill-opacity:1.0000; stroke:none;fill-rule:evenodd;"
d="M 80.0850,70.1400
80.0919,70.1056
80.1114,70.0764
80.1406,70.0569
80.1750,70.0500
81.4950,70.0500
81.5294,70.0569
81.5586,70.0764
81.5781,70.1056
81.5850,70.1400
81.5850,70.8600
81.5781,70.8944
81.5586,70.9236
81.5294,70.9431
81.4950,70.9500
80.1750,70.9500
80.1406,70.9431
80.1114,70.9236
80.0919,70.8944
80.0850,70.8600
Z" /> 
<path style="fill:#000000; fill-opacity:1.0000; stroke:none;fill-rule:evenodd;"
d="M 90.7500,70.1400
90.7569,70.1056
90.7764,70.0764
90.8056,70.0569
90.8400,70.0500
92.1600,70.0500
92.1944,70.0569
92.2236,70.0764
92.2431,70.1056
92.2500,70.1400
92.2500,70.8600
92.2431,70.8944
92.2236,70.9236
92.1944,70.9431
92.1600,70.9500
90.8400,70.9500
90.8056,70.9431
90.7764,70.9236
90.7569,70.8944
90.7500,70.8600
Z" /> 
<path style="fill:#000000; fill-opacity:1.0000; stroke:none;fill-rule:evenodd;"
d="M 90.7500,73.4400
90.7569,73.4056
90.7764,73.3764
90.8056,73.3569
90.8400,73.3500
92.1600,73.3500
92.1944,73.3569
92.2236,73.3764
92.2431,73.4056
92.2500,73.4400
92.2500,74.1600
92.2431,74.1944
92.2236,74.2236
92.1944,74.2431
92.1600,74.2500
90.8400,74.2500
90.8056,74.2431
90.7764,74.2236
90.7569,74.1944
90.7500,74.1600
Z" /> 
<path style="fill:#000000; fill-opacity:1.0000; stroke:none;fill-rule:evenodd;"
d="M 95.6500,73.4400
95.6569,73.4056
95.6764,73.3764
95.7056,73.3569
95.7400,73.3500
97.0600,73.3500
97.0944,73.3569
97.1236,73.3764
97.1431,73.4056
97.1500,73.4400
97.1500,74.1600
97.1431,74.1944
97.1236,74.2236
97.0944,74.2431
97.0600,74.2500
95.7400,74.2500
95.7056,74.2431
95.6764,74.2236
95.6569,74.1944
95.6500,74.1600
Z" /> 
<path style="fill:#000000; fill-opacity:1.0000; stroke:none;fill-rule:evenodd;"
d="M 95.6500,70.1400
95.6569,70.1056
95.6764,70.0764
95.7056,70.0569
95.7400,70.0500
97.0600,70.0500
97.0944,70.0569
97.1236,70.0764
97.1431,70.1056
97.1500,70.1400
97.1500,70.8600
97.1431,70.8944
97.1236,70.9236
97.0944,70.9431
97.0600,70.9500
95.7400,70.9500
95.7056,70.9431
95.6764,70.9236
95.6569,70.8944
95.6500,70.8600
Z" /> 
<path style="fill:#000000; fill-opacity:1.0000; stroke:none;fill-rule:evenodd;"
d="M 106.7500,70.1400
106.7569,70.1056
106.7764,70.0764
106.8056,70.0569
106.8400,70.0500
108.1600,70.0500
108.1944,70.0569
108.2236,70.0764
108.2431,70.1056
108.2500,70.1400
108.2500,70.8600
108.2431,70.8944
108.2236,70.9236
108.1944,70.9431
108.1600,70.9500
106.8400,70.9500
106.8056,70.9431
106.7764,70.9236
106.7569,70.8944
106.7500,70.8600
Z" /> 
<path style="fill:#000000; fill-opacity:1.0000; stroke:none;fill-rule:evenodd;"
d="M 106.7500,73.4400
106.7569,73.4056
106.7764,73.3764
106.8056,73.3569
106.8400,73.3500
108.1600,73.3500
108.1944,73.3569
108.2236,73.3764
108.2431,73.4056
108.2500,73.4400
108.2500,74.1600
108.2431,74.1944
108.2236,74.2236
108.1944,74.2431
108.1600,74.2500
106.8400,74.2500
106.8056,74.2431
106.7764,74.2236
106.7569,74.1944
106.7500,74.1600
Z" /> 
<path style="fill:#000000; fill-opacity:1.0000; stroke:none;fill-rule:evenodd;"
d="M 111.6500,73.4400
111.6569,73.4056
111.6764,73.3764
111.7056,73.3569
111.7400,73.3500
113.0600,73.3500
113.0944,73.3569
113.1236,73.3764
113.1431,73.4056
113.1500,73.4400
113.1500,74.1600
113.1431,74.1944
113.1236,74.2236
113.0944,74.2431
113.0600,74.2500
111.7400,74.2500
111.7056,74.2431
111.6764,74.2236
111.6569,74.1944
111.6500,74.1600
Z" /> 
<path style="fill:#000000; fill-opacity:1.0000; stroke:none;fill-rule:evenodd;"
d="M 111.6500,70.1400
111.6569,70.1056
111.6764,70.0764
111.7056,70.0569
111.7400,70.0500
113.0600,70.0500
113.0944,70.0569
113.1236,70.0764
113.1431,70.1056
113.1500,70.1400
113.1500,70.8600
113.1431,70.8944
113.1236,70.9236
113.0944,70.9431
113.0600,70.9500
111.7400,70.9500
111.7056,70.9431
111.6764,70.9236
111.6569,70.8944
111.6500,70.8600
Z" /> 
</g>
<g style="fill:none; 
stroke:#000000; stroke-width:0.2000; stroke-opacity:1; 
stroke-linecap:round; stroke-linejoin:round;">
<path d="M112.9000 71.0000
L112.4000 70.5000
" />
<path d="M118.3500 71.0000
L112.9000 71.0000
" />
<path d="M118.5000 78.0000
L118.5000 77.0000
" />
<path d="M118.5000 78.0000
L114.0000 78.0000
" />
<path d="M138.5000 87.0000
L127.5000 87.0000
" />
<path d="M113.0000 74.4000
L112.4000 73.8000
" />
<path d="M96.4000 73.8000
L100.5000 77.9000
" />
<path d="M127.5000 87.0000
L118.5000 78.0000
" />
<path d="M118.5000 77.0000
L118.3500 76.8500
" />
<path d="M100.5000 78.0000
L114.0000 78.0000
" />
<path d="M114.0000 78.0000
L113.0000 77.0000
" />
<path d="M100.5000 77.9000
L100.5000 78.0000
" />
<path d="M141.5000 84.0000
L138.5000 87.0000
" />
<path d="M86.0000 78.0000
L100.5000 78.0000
" />
<path d="M86.0000 78.0000
L81.8000 73.8000
" />
<path d="M81.8000 73.8000
L80.8350 73.8000
" />
<path d="M141.5000 78.4000
L141.5000 84.0000
" />
<path d="M113.0000 77.0000
L113.0000 74.4000
" />
<path d="M118.3500 76.8500
L118.3500 73.5400
" />
<path d="M89.0000 68.0000
L78.4350 68.0000
" />
<path d="M107.5000 70.5000
L104.5000 67.5000
" />
<path d="M126.0000 67.5000
L125.7300 67.5000
" />
<path d="M141.5000 67.0000
L141.0000 66.5000
" />
<path d="M110.5000 67.5000
L107.5000 70.5000
" />
<path d="M78.4350 68.0000
L75.9350 70.5000
" />
<path d="M126.0000 60.5000
L126.0000 67.5000
" />
<path d="M125.7300 67.5000
L123.5000 69.7300
" />
<path d="M104.5000 67.5000
L94.5000 67.5000
" />
<path d="M138.5000 57.0000
L129.5000 57.0000
" />
<path d="M141.0000 59.5000
L138.5000 57.0000
" />
<path d="M129.5000 57.0000
L126.0000 60.5000
" />
<path d="M91.5000 70.5000
L89.0000 68.0000
" />
<path d="M94.5000 67.5000
L91.5000 70.5000
" />
<path d="M141.0000 66.5000
L141.0000 59.5000
" />
<path d="M126.0000 67.5000
L110.5000 67.5000
" />
<path d="M107.5000 73.8000
L99.7000 73.8000
" />
<path d="M99.7000 73.8000
L96.4000 70.5000
" />
<path d="M84.1350 73.8000
L80.8350 70.5000
" />
<path d="M91.5000 73.8000
L84.1350 73.8000
" />
</g>
<g style="fill:none; 
stroke:#000000; stroke-width:0.4000; stroke-opacity:1; 
stroke-linecap:round; stroke-linejoin:round;">
<path d="M126.0000 71.0000
L130.0000 67.0000
" />
<path d="M123.5000 71.0000
L126.0000 71.0000
" />
<path d="M130.0000 67.0000
L135.8000 67.0000
" />
<path d="M125.5000 73.5000
L130.4000 78.4000
" />
<path d="M123.5000 73.5400
L125.4600 73.5400
" />
<path d="M130.4000 78.4000
L135.8000 78.4000
" />
<path d="M128.5700 72.2700
L129.0000 72.7000
" />
<path d="M123.5000 72.2700
L128.5700 72.2700
" />
<path d="M129.0000 72.7000
L135.8000 72.7000
" />
<path style="fill:#000000; fill-opacity:1.0000; stroke:none;fill-rule:evenodd;"
d="M 149.4423,50.5201
149.4884,50.5726
149.5000,50.6249
149.5000,88.3760
149.4803,88.4430
149.4275,88.4888
149.3760,88.5000
132.0000,88.5000
126.3777,88.5457
70.6234,88.9990
70.5562,88.9799
70.5100,88.9274
70.4984,88.8766
70.4270,83.4553
133.7245,83.4553
133.7245,83.6847
133.7494,83.8742
133.7545,83.9122
133.7545,83.9122
133.8138,84.1339
133.9016,84.3459
133.9017,84.3459
134.0164,84.5446
134.1561,84.7267
134.1561,84.7267
134.3183,84.8889
134.3183,84.8889
134.5004,85.0286
134.5004,85.0286
134.5004,85.0286
134.6991,85.1433
134.6991,85.1433
134.6991,85.1433
134.7905,85.1812
134.9111,85.2312
135.1328,85.2905
135.3603,85.3205
135.3603,85.3205
135.5897,85.3205
135.5897,85.3205
135.8172,85.2905
136.0389,85.2312
136.2509,85.1433
136.4496,85.0286
136.6317,84.8889
136.6317,84.8889
136.6317,84.8889
136.7939,84.7267
136.7939,84.7267
136.7939,84.7267
136.9336,84.5446
137.0483,84.3459
137.1362,84.1339
137.1955,83.9122
137.2255,83.6847
137.2255,83.4553
137.1955,83.2278
137.1362,83.0061
137.0483,82.7941
136.9336,82.5954
136.9336,82.5954
136.9336,82.5954
136.7939,82.4133
136.7939,82.4133
136.6317,82.2511
136.6317,82.2511
136.4496,82.1114
136.2509,81.9967
136.2509,81.9967
136.0389,81.9088
135.8172,81.8495
135.7792,81.8444
135.5897,81.8195
135.5897,81.8195
135.3603,81.8195
135.3603,81.8195
135.1437,81.8480
135.1328,81.8495
135.0391,81.8746
134.9111,81.9088
134.6991,81.9967
134.6991,81.9967
134.5004,82.1114
134.3183,82.2511
134.1561,82.4133
134.0164,82.5954
133.9017,82.7941
133.9016,82.7941
133.8138,83.0061
133.7545,83.2278
133.7545,83.2278
133.7245,83.4553
70.4270,83.4553
70.2948,73.4013
74.6845,73.4013
74.6845,74.1987
74.6997,74.3141
74.6997,74.3142
74.7591,74.4575
74.7592,74.4578
74.8539,74.5811
74.9772,74.6758
75.1208,74.7353
75.2363,74.7505
76.6337,74.7505
76.6337,74.7505
76.7491,74.7353
76.7491,74.7353
76.7492,74.7353
76.8928,74.6758
77.0161,74.5811
77.1108,74.4578
77.1703,74.3142
77.1855,74.1987
77.1855,74.1987
79.5850,74.1987
79.6002,74.3140
79.6002,74.3140
79.6596,74.4575
79.6596,74.4575
79.7542,74.5808
79.8775,74.6754
80.0210,74.7348
80.0210,74.7348
80.1363,74.7500
80.5850,74.7500
81.0850,74.7500
81.5337,74.7500
81.6490,74.7348
81.6490,74.7348
81.7925,74.6754
81.7925,74.6754
81.9158,74.5808
82.0104,74.4575
82.0104,74.4575
82.0698,74.3140
82.0698,74.3140
82.0850,74.1987
82.0850,74.0500
81.0850,74.0500
81.0850,74.7500
80.5850,74.7500
80.5850,74.0500
79.5850,74.0500
79.5850,74.1987
77.1855,74.1987
77.1855,73.7926
77.1855,73.4013
79.5850,73.4013
79.5850,73.5500
80.5850,73.5500
81.0850,73.5500
82.0850,73.5500
82.0850,73.4013
82.0698,73.2860
82.0698,73.2860
82.0104,73.1425
82.0104,73.1425
81.9158,73.0192
81.7925,72.9246
81.6490,72.8652
81.6490,72.8652
81.5337,72.8500
81.0850,72.8500
81.0850,73.5500
80.5850,73.5500
80.5850,72.8500
80.1363,72.8500
80.0210,72.8652
80.0210,72.8652
79.8775,72.9246
79.8775,72.9246
79.7542,73.0192
79.6596,73.1425
79.6596,73.1425
79.6002,73.2860
79.6002,73.2860
79.5850,73.4013
77.1855,73.4013
77.1855,73.4013
77.1703,73.2859
77.1703,73.2858
77.1703,73.2858
77.1108,73.1422
77.0161,73.0189
76.8928,72.9242
76.8928,72.9242
76.7492,72.8647
76.7491,72.8647
76.6337,72.8495
75.2363,72.8495
75.1209,72.8647
75.1208,72.8647
74.9772,72.9242
74.9772,72.9242
74.9772,72.9242
74.8539,73.0189
74.7689,73.1296
74.7592,73.1422
74.6997,73.2858
74.6997,73.2858
74.6845,73.4013
70.2948,73.4013
70.2892,72.9823
70.2513,70.1013
74.6845,70.1013
74.6845,70.8987
74.6997,71.0141
74.6997,71.0142
74.7592,71.1578
74.8539,71.2811
74.9772,71.3758
75.1208,71.4353
75.2363,71.4505
76.6337,71.4505
76.6337,71.4505
76.7491,71.4353
76.7491,71.4353
76.7492,71.4353
76.8928,71.3758
77.0161,71.2811
77.1108,71.1578
77.1703,71.0142
77.1855,70.8987
77.1855,70.1501
77.1941,70.1206
77.1984,70.1013
79.5845,70.1013
79.5845,70.8987
79.5997,71.0141
79.5997,71.0142
79.6592,71.1578
79.7539,71.2811
79.8772,71.3758
80.0208,71.4353
80.1363,71.4505
80.8849,71.4505
80.9519,71.4702
80.9726,71.4868
83.7663,74.2805
83.7663,74.2805
83.7663,74.2805
83.8702,74.3405
83.9032,74.3596
84.0559,74.4005
84.0559,74.4005
84.2217,74.4005
84.2217,74.4005
90.2195,74.4005
90.2866,74.4202
90.3175,74.4527
90.3193,74.4513
90.3242,74.4578
90.3242,74.4578
90.4189,74.5811
90.5422,74.6758
90.6858,74.7353
90.8013,74.7505
92.1987,74.7505
92.1987,74.7505
92.3141,74.7353
92.3141,74.7353
92.3142,74.7353
92.4578,74.6758
92.5811,74.5811
92.6758,74.4578
92.7353,74.3142
92.7505,74.1987
92.7505,74.1987
95.1500,74.1987
95.1652,74.3140
95.1652,74.3140
95.2246,74.4575
95.2246,74.4575
95.3192,74.5808
95.4425,74.6754
95.5860,74.7348
95.5860,74.7348
95.7013,74.7500
96.1500,74.7500
96.6500,74.7500
97.0987,74.7500
97.2140,74.7348
97.2140,74.7348
97.3575,74.6754
97.3575,74.6754
97.4808,74.5808
97.5754,74.4575
97.5754,74.4575
97.6348,74.3140
97.6348,74.3140
97.6500,74.1987
97.6500,74.0500
96.6500,74.0500
96.6500,74.7500
96.1500,74.7500
96.1500,74.0500
95.1500,74.0500
95.1500,74.1987
92.7505,74.1987
92.7505,73.7926
92.7505,73.4013
95.1500,73.4013
95.1500,73.5500
96.1500,73.5500
96.6500,73.5500
97.6500,73.5500
97.6500,73.4013
97.6348,73.2860
97.6348,73.2860
97.5754,73.1425
97.5754,73.1425
97.4808,73.0192
97.3575,72.9246
97.2140,72.8652
97.2140,72.8652
97.0987,72.8500
96.6500,72.8500
96.6500,73.5500
96.1500,73.5500
96.1500,72.8500
95.7013,72.8500
95.5860,72.8652
95.5860,72.8652
95.4425,72.9246
95.4425,72.9246
95.3192,73.0192
95.2246,73.1425
95.2246,73.1425
95.1652,73.2860
95.1652,73.2860
95.1500,73.4013
92.7505,73.4013
92.7505,73.4013
92.7353,73.2859
92.7353,73.2858
92.7353,73.2858
92.6758,73.1422
92.5811,73.0189
92.4578,72.9242
92.4578,72.9242
92.3142,72.8647
92.3141,72.8647
92.1987,72.8495
90.8013,72.8495
90.6859,72.8647
90.6858,72.8647
90.5422,72.9242
90.5422,72.9242
90.5422,72.9242
90.4189,73.0189
90.3242,73.1422
90.3242,73.1422
90.3193,73.1487
90.3170,73.1469
90.2764,73.1857
90.2195,73.1995
84.4351,73.1995
84.3681,73.1798
84.3474,73.1632
82.1218,70.9376
82.0883,70.8763
82.0855,70.8499
82.0855,70.1013
82.0855,70.1013
82.0855,70.1013
82.0703,69.9859
82.0703,69.9858
82.0703,69.9858
82.0108,69.8422
81.9161,69.7189
81.7928,69.6242
81.7928,69.6242
81.6492,69.5647
81.6491,69.5647
81.5337,69.5495
80.1363,69.5495
80.0209,69.5647
80.0208,69.5647
79.8772,69.6242
79.7539,69.7189
79.6592,69.8422
79.5997,69.9858
79.5997,69.9858
79.5845,70.1013
77.1984,70.1013
77.2007,70.0907
77.2044,70.0857
77.2052,70.0831
77.2218,70.0624
78.6474,68.6368
78.7087,68.6033
78.7351,68.6005
88.6999,68.6005
88.7669,68.6202
88.7876,68.6368
90.2132,70.0624
90.2467,70.1237
90.2495,70.1501
90.2495,70.8987
90.2647,71.0141
90.2647,71.0142
90.3242,71.1578
90.4189,71.2811
90.5422,71.3758
90.6858,71.4353
90.8013,71.4505
92.1987,71.4505
92.1987,71.4505
92.3141,71.4353
92.3141,71.4353
92.3142,71.4353
92.4578,71.3758
92.5811,71.2811
92.6758,71.1578
92.7353,71.0142
92.7505,70.8987
92.7505,70.1501
92.7591,70.1206
92.7634,70.1013
95.1495,70.1013
95.1495,70.8987
95.1647,71.0141
95.1647,71.0142
95.2242,71.1578
95.3189,71.2811
95.4422,71.3758
95.5858,71.4353
95.7013,71.4505
96.4499,71.4505
96.5169,71.4702
96.5376,71.4868
99.3313,74.2805
99.3313,74.2805
99.3313,74.2805
99.4352,74.3405
99.4682,74.3596
99.6209,74.4005
99.6209,74.4005
99.7867,74.4005
99.7867,74.4005
106.2195,74.4005
106.2866,74.4202
106.3175,74.4527
106.3193,74.4513
106.3242,74.4578
106.3242,74.4578
106.4189,74.5811
106.5422,74.6758
106.6858,74.7353
106.8013,74.7505
108.1987,74.7505
108.1987,74.7505
108.3141,74.7353
108.3141,74.7353
108.3142,74.7353
108.4578,74.6758
108.5811,74.5811
108.6758,74.4578
108.7353,74.3142
108.7505,74.1987
108.7505,74.1987
111.1500,74.1987
111.1652,74.3140
111.1652,74.3140
111.2246,74.4575
111.2246,74.4575
111.3192,74.5808
111.4425,74.6754
111.5860,74.7348
111.5860,74.7348
111.7013,74.7500
112.1500,74.7500
112.6500,74.7500
113.0987,74.7500
113.2140,74.7348
113.2140,74.7348
113.3575,74.6754
113.3575,74.6754
113.4808,74.5808
113.5754,74.4575
113.5754,74.4575
113.6348,74.3140
113.6348,74.3140
113.6500,74.1987
113.6500,74.0500
112.6500,74.0500
112.6500,74.7500
112.1500,74.7500
112.1500,74.0500
111.1500,74.0500
111.1500,74.1987
108.7505,74.1987
108.7505,73.9502
108.7505,73.7900
116.9777,73.7900
116.9779,73.7925
117.0237,73.9502
117.1073,74.0916
117.1073,74.0916
117.2234,74.2077
117.2234,74.2077
117.3648,74.2913
117.3648,74.2913
117.5225,74.3371
117.5225,74.3371
117.5593,74.3400
117.5594,74.3400
118.1000,74.3400
118.6000,74.3400
119.1406,74.3400
119.1406,74.3400
119.1775,74.3371
119.1775,74.3371
119.3352,74.2913
119.3352,74.2913
119.4766,74.2077
119.4766,74.2077
119.5927,74.0916
119.5927,74.0916
119.6763,73.9502
119.7221,73.7925
119.7223,73.7900
119.7223,73.7900
118.6000,73.7900
118.6000,74.3400
118.1000,74.3400
118.1000,73.7900
116.9777,73.7900
116.9777,73.7900
108.7505,73.7900
108.7505,73.7457
108.7505,73.4013
111.1500,73.4013
111.1500,73.5500
112.1500,73.5500
112.6500,73.5500
113.6500,73.5500
113.6500,73.4013
113.6348,73.2860
113.6348,73.2860
113.5754,73.1425
113.5754,73.1425
113.4808,73.0192
113.3575,72.9246
113.2140,72.8652
113.2140,72.8652
113.0987,72.8500
112.6500,72.8500
112.6500,73.5500
112.1500,73.5500
112.1500,72.8500
111.7013,72.8500
111.5860,72.8652
111.5860,72.8652
111.4425,72.9246
111.4425,72.9246
111.3192,73.0192
111.2246,73.1425
111.2246,73.1425
111.1652,73.2860
111.1652,73.2860
111.1500,73.4013
108.7505,73.4013
108.7505,73.4013
108.7353,73.2859
108.7353,73.2858
108.7353,73.2858
108.6758,73.1422
108.5811,73.0189
108.4578,72.9242
108.4578,72.9242
108.3142,72.8647
108.3141,72.8647
108.1987,72.8495
106.8013,72.8495
106.6859,72.8647
106.6858,72.8647
106.5422,72.9242
106.5422,72.9242
106.5422,72.9242
106.4189,73.0189
106.3242,73.1422
106.3242,73.1422
106.3193,73.1487
106.3170,73.1469
106.2764,73.1857
106.2195,73.1995
100.0001,73.1995
99.9331,73.1798
99.9124,73.1632
97.6868,70.9376
97.6533,70.8763
97.6505,70.8499
97.6505,70.1013
97.6505,70.1013
97.6505,70.1013
97.6353,69.9859
97.6353,69.9858
97.6353,69.9858
97.5758,69.8422
97.4811,69.7189
97.3578,69.6242
97.3578,69.6242
97.2142,69.5647
97.2141,69.5647
97.0987,69.5495
95.7013,69.5495
95.5859,69.5647
95.5858,69.5647
95.4422,69.6242
95.3189,69.7189
95.2242,69.8422
95.1647,69.9858
95.1647,69.9858
95.1495,70.1013
92.7634,70.1013
92.7657,70.0907
92.7694,70.0857
92.7702,70.0831
92.7868,70.0624
94.7124,68.1368
94.7737,68.1033
94.8001,68.1005
104.1999,68.1005
104.2669,68.1202
104.2876,68.1368
106.2132,70.0624
106.2467,70.1237
106.2495,70.1501
106.2495,70.8987
106.2647,71.0141
106.2647,71.0142
106.3242,71.1578
106.4189,71.2811
106.5422,71.3758
106.6858,71.4353
106.8013,71.4505
108.1987,71.4505
108.1987,71.4505
108.3141,71.4353
108.3141,71.4353
108.3142,71.4353
108.4578,71.3758
108.5811,71.2811
108.6758,71.1578
108.7353,71.0142
108.7505,70.8987
108.7505,70.1501
108.7591,70.1206
108.7634,70.1013
111.1495,70.1013
111.1495,70.8987
111.1647,71.0141
111.1647,71.0142
111.2242,71.1578
111.3189,71.2811
111.4422,71.3758
111.5858,71.4353
111.7013,71.4505
112.4501,71.4505
112.5171,71.4702
112.5256,71.4761
112.5313,71.4805
112.5313,71.4805
112.5313,71.4805
112.5313,71.4805
112.6549,71.5519
112.6682,71.5596
112.8209,71.6005
112.8209,71.6005
112.9867,71.6005
112.9867,71.6005
116.9591,71.6005
117.0261,71.6202
117.0719,71.6730
117.0818,71.7421
117.0658,71.7876
117.0233,71.8596
117.0233,71.8596
116.9774,72.0174
116.9774,72.0174
116.9745,72.0543
116.9745,72.4857
116.9774,72.5226
116.9774,72.5226
117.0233,72.6804
117.0233,72.6804
117.1069,72.8219
117.1117,72.8280
117.1094,72.8298
117.1362,72.8790
117.1312,72.9487
117.1105,72.9810
117.1121,72.9823
117.1073,72.9884
117.0237,73.1298
116.9779,73.2875
116.9777,73.2900
116.9777,73.2900
119.7223,73.2900
119.7223,73.2900
119.7221,73.2875
119.6763,73.1298
119.5927,72.9884
119.5879,72.9823
119.5904,72.9804
119.5638,72.9318
119.5687,72.8621
119.5899,72.8292
119.5883,72.8280
119.5931,72.8219
119.5931,72.8219
119.6767,72.6804
119.7226,72.5226
119.7255,72.4857
119.7255,72.0543
119.7226,72.0174
119.7117,71.9798
119.6767,71.8596
119.6767,71.8596
119.6767,71.8596
119.5931,71.7181
119.5931,71.7181
119.5883,71.7120
119.5907,71.7101
119.5642,71.6614
119.5691,71.5917
119.5899,71.5593
119.5883,71.5580
119.5931,71.5519
119.5931,71.5519
119.6767,71.4104
119.7226,71.2526
119.7255,71.2157
119.7255,70.7843
119.7226,70.7474
119.6767,70.5896
119.5931,70.4481
119.5931,70.4481
119.5883,70.4420
119.5907,70.4401
119.5642,70.3914
119.5691,70.3217
119.5899,70.2893
119.5883,70.2880
119.5931,70.2819
119.5931,70.2819
119.6767,70.1404
119.7216,69.9858
119.7226,69.9826
119.7226,69.9826
119.7255,69.9457
119.7255,69.9457
119.7255,69.5143
119.7226,69.4774
119.6767,69.3196
119.5931,69.1781
119.5931,69.1781
119.5931,69.1781
119.4769,69.0619
119.4769,69.0619
119.3354,68.9783
119.3354,68.9783
119.1776,68.9324
119.1776,68.9324
119.1407,68.9295
119.1407,68.9295
117.5593,68.9295
117.5593,68.9295
117.5224,68.9324
117.5224,68.9324
117.3646,68.9783
117.3646,68.9783
117.2231,69.0619
117.2231,69.0619
117.1069,69.1781
117.1069,69.1781
117.0233,69.3196
117.0233,69.3196
116.9774,69.4774
116.9774,69.4774
116.9745,69.5143
116.9745,69.9457
116.9774,69.9826
116.9774,69.9826
117.0233,70.1404
117.0233,70.1404
117.0658,70.2124
117.0830,70.2801
117.0608,70.3464
117.0064,70.3901
116.9591,70.3995
113.7745,70.3995
113.7075,70.3798
113.6617,70.3270
113.6505,70.2755
113.6505,70.1013
113.6353,69.9859
113.6353,69.9858
113.6353,69.9858
113.5758,69.8422
113.4811,69.7189
113.3578,69.6242
113.3578,69.6242
113.2142,69.5647
113.2141,69.5647
113.0987,69.5495
111.7013,69.5495
111.5859,69.5647
111.5858,69.5647
111.4422,69.6242
111.3189,69.7189
111.2242,69.8422
111.1647,69.9858
111.1647,69.9858
111.1495,70.1013
108.7634,70.1013
108.7657,70.0907
108.7694,70.0857
108.7702,70.0831
108.7868,70.0624
110.7124,68.1368
110.7737,68.1033
110.8001,68.1005
123.9809,68.1005
124.0479,68.1202
124.0937,68.1730
124.1036,68.2421
124.0746,68.3057
124.0686,68.3122
123.4876,68.8932
123.4263,68.9267
123.3999,68.9295
122.7093,68.9295
122.6724,68.9324
122.6724,68.9324
122.5146,68.9783
122.5146,68.9783
122.3731,69.0619
122.3731,69.0619
122.2569,69.1781
122.2569,69.1781
122.1733,69.3196
122.1733,69.3196
122.1274,69.4774
122.1274,69.4774
122.1245,69.5143
122.1245,69.9457
122.1274,69.9826
122.1274,69.9826
122.1733,70.1404
122.1733,70.1404
122.1733,70.1404
122.1790,70.1501
122.2569,70.2819
122.2617,70.2880
122.2593,70.2899
122.2859,70.3386
122.2809,70.4083
122.2601,70.4407
122.2617,70.4420
122.2569,70.4481
122.1733,70.5896
122.1733,70.5896
122.1274,70.7474
122.1274,70.7474
122.1245,70.7843
122.1245,71.2157
122.1274,71.2526
122.1274,71.2526
122.1733,71.4104
122.1733,71.4104
122.2569,71.5519
122.2617,71.5580
122.2593,71.5599
122.2859,71.6086
122.2809,71.6783
122.2601,71.7107
122.2617,71.7120
122.2569,71.7181
122.1733,71.8596
122.1733,71.8596
122.1274,72.0174
122.1274,72.0174
122.1245,72.0543
122.1245,72.4857
122.1274,72.5226
122.1274,72.5226
122.1733,72.6804
122.1733,72.6804
122.2569,72.8219
122.2617,72.8280
122.2593,72.8299
122.2859,72.8786
122.2809,72.9483
122.2601,72.9807
122.2617,72.9820
122.2569,72.9881
122.1733,73.1296
122.1733,73.1296
122.1274,73.2874
122.1274,73.2874
122.1245,73.3243
122.1245,73.7557
122.1274,73.7926
122.1274,73.7926
122.1733,73.9504
122.1733,73.9504
122.2569,74.0919
122.2569,74.0919
122.3731,74.2081
122.3731,74.2081
122.3731,74.2081
122.5146,74.2917
122.5562,74.3038
122.6724,74.3376
122.6724,74.3376
122.6724,74.3376
122.7093,74.3405
122.7093,74.3405
124.2907,74.3405
124.2907,74.3405
124.3276,74.3376
124.3276,74.3376
124.3276,74.3376
124.4087,74.3140
124.4854,74.2917
124.5428,74.2578
124.6060,74.2405
125.1985,74.2405
125.2655,74.2602
125.2862,74.2768
129.8559,78.8465
129.9535,78.9441
129.9535,78.9441
130.0682,79.0208
130.0682,79.0208
130.0682,79.0208
130.1429,79.0517
130.1957,79.0736
130.2226,79.0789
130.3196,79.0982
130.3310,79.1005
130.3310,79.1005
133.4631,79.1005
133.5302,79.1202
133.5759,79.1730
133.5777,79.1770
133.6874,79.4418
133.6874,79.4418
133.7800,79.6023
133.8414,79.7087
133.8414,79.7087
133.8414,79.7087
134.0290,79.9531
134.0290,79.9531
134.2469,80.1710
134.2469,80.1710
134.4913,80.3586
134.6628,80.4576
134.7582,80.5126
134.7582,80.5126
134.7582,80.5126
135.0428,80.6305
135.3405,80.7103
135.6459,80.7505
135.6459,80.7505
135.9541,80.7505
135.9541,80.7505
136.2595,80.7103
136.5572,80.6305
136.8418,80.5126
137.1087,80.3586
137.3531,80.1710
137.3531,80.1710
137.4302,80.0939
137.5710,79.9531
137.5710,79.9531
137.7586,79.7087
137.9126,79.4418
138.0305,79.1572
138.1103,78.8595
138.1505,78.5541
138.1505,78.2460
139.1500,78.2460
139.1500,78.5540
139.1500,78.5540
139.1902,78.8594
139.2699,79.1570
139.3878,79.4416
139.3878,79.4416
139.5419,79.7084
139.6705,79.8760
139.6705,79.8760
140.7095,78.8369
140.8009,78.9737
140.9263,79.0991
141.0631,79.1905
140.0240,80.2295
140.0240,80.2295
140.1916,80.3581
140.4584,80.5122
140.4584,80.5122
140.7430,80.6301
141.0406,80.7098
141.3460,80.7500
141.3460,80.7500
141.6540,80.7500
141.6540,80.7500
141.9594,80.7098
142.2570,80.6301
142.5416,80.5122
142.5416,80.5122
142.8084,80.3581
142.9760,80.2295
141.9369,79.1905
142.0737,79.0991
142.1991,78.9737
142.2905,78.8369
143.3295,79.8760
143.4581,79.7084
143.6122,79.4416
143.6122,79.4416
143.7301,79.1570
143.8098,78.8594
143.8500,78.5540
143.8500,78.5540
143.8500,78.2460
143.8500,78.2460
143.8098,77.9406
143.7301,77.6430
143.6122,77.3584
143.6122,77.3584
143.4581,77.0916
143.3295,76.9240
142.2905,77.9631
142.1991,77.8263
142.0737,77.7009
141.9369,77.6095
142.9760,76.5705
142.9760,76.5705
142.8084,76.4419
142.5416,76.2878
142.5416,76.2878
142.2570,76.1699
141.9594,76.0902
141.6540,76.0500
141.6540,76.0500
141.3460,76.0500
141.3460,76.0500
141.0406,76.0902
140.7430,76.1699
140.4584,76.2878
140.4584,76.2878
140.1916,76.4419
140.0240,76.5705
140.0240,76.5705
141.0631,77.6095
140.9263,77.7009
140.8009,77.8263
140.7095,77.9631
139.6705,76.9240
139.6705,76.9240
139.5419,77.0916
139.3878,77.3584
139.3878,77.3584
139.2699,77.6430
139.1902,77.9406
139.1500,78.2460
139.1500,78.2460
138.1505,78.2460
138.1505,78.2459
138.1103,77.9405
138.0305,77.6428
137.9126,77.3582
137.9126,77.3582
137.9126,77.3582
137.8576,77.2628
137.7586,77.0913
137.5710,76.8469
137.5710,76.8469
137.3531,76.6290
137.3531,76.6290
137.1087,76.4414
137.1087,76.4414
137.1087,76.4414
137.0023,76.3800
136.8418,76.2874
136.8418,76.2874
136.5572,76.1695
136.2595,76.0897
135.9541,76.0495
135.9541,76.0495
135.9541,76.0495
135.6459,76.0495
135.6459,76.0495
135.6459,76.0495
135.3405,76.0897
135.0428,76.1695
134.7582,76.2874
134.7582,76.2874
134.4913,76.4414
134.2469,76.6290
134.2469,76.6290
134.0290,76.8469
134.0290,76.8469
133.8414,77.0913
133.6874,77.3582
133.6874,77.3582
133.5777,77.6230
133.5339,77.6774
133.4676,77.6994
133.4631,77.6995
130.7415,77.6995
130.6745,77.6798
130.6538,77.6632
126.1728,73.1822
126.1394,73.1209
126.1443,73.0512
126.1862,72.9952
126.2517,72.9708
126.2605,72.9705
128.2285,72.9705
128.2955,72.9902
128.3162,73.0068
128.5535,73.2441
128.5535,73.2441
128.6682,73.3208
128.7957,73.3736
128.7957,73.3736
128.7957,73.3736
128.7957,73.3736
128.9310,73.4005
128.9310,73.4005
128.9310,73.4005
133.4631,73.4005
133.5302,73.4202
133.5759,73.4730
133.5777,73.4770
133.6874,73.7418
133.6874,73.7418
133.7167,73.7926
133.8414,74.0087
133.8414,74.0087
133.8414,74.0087
134.0290,74.2531
134.0290,74.2531
134.2469,74.4710
134.2469,74.4710
134.4913,74.6586
134.6628,74.7576
134.7582,74.8126
134.7582,74.8126
134.7582,74.8126
135.0428,74.9305
135.3405,75.0103
135.6459,75.0505
135.6459,75.0505
135.9541,75.0505
135.9541,75.0505
136.2595,75.0103
136.5572,74.9305
136.8418,74.8126
137.1087,74.6586
137.3531,74.4710
137.5710,74.2531
137.7586,74.0087
137.9126,73.7418
138.0305,73.4572
138.1103,73.1595
138.1505,72.8541
138.1505,72.5459
139.1495,72.5459
139.1495,72.8541
139.1495,72.8541
139.1897,73.1595
139.2695,73.4572
139.3874,73.7418
139.3874,73.7418
139.4167,73.7926
139.5414,74.0087
139.5414,74.0087
139.5414,74.0087
139.7290,74.2531
139.7290,74.2531
139.9469,74.4710
139.9469,74.4710
140.1913,74.6586
140.3628,74.7576
140.4582,74.8126
140.4582,74.8126
140.4582,74.8126
140.7428,74.9305
141.0405,75.0103
141.3459,75.0505
141.3459,75.0505
141.6541,75.0505
141.6541,75.0505
141.9595,75.0103
142.2572,74.9305
142.5418,74.8126
142.8087,74.6586
143.0531,74.4710
143.2710,74.2531
143.4586,74.0087
143.6126,73.7418
143.7305,73.4572
143.8103,73.1595
143.8505,72.8541
143.8505,72.5459
143.8103,72.2405
143.7305,71.9428
143.6126,71.6582
143.6126,71.6582
143.6126,71.6582
143.5468,71.5441
143.4586,71.3913
143.3238,71.2157
143.2710,71.1469
143.2710,71.1469
143.0531,70.9290
143.0531,70.9290
142.8087,70.7414
142.8087,70.7414
142.8087,70.7414
142.7023,70.6800
142.5418,70.5874
142.5418,70.5874
142.2572,70.4695
141.9595,70.3897
141.6541,70.3495
141.6541,70.3495
141.6541,70.3495
141.3459,70.3495
141.3459,70.3495
141.3459,70.3495
141.0405,70.3897
140.7428,70.4695
140.4582,70.5874
140.4582,70.5874
140.1913,70.7414
139.9469,70.9290
139.9469,70.9290
139.7290,71.1469
139.7290,71.1469
139.5414,71.3913
139.3874,71.6582
139.3874,71.6582
139.2695,71.9428
139.1897,72.2405
139.1495,72.5459
139.1495,72.5459
138.1505,72.5459
138.1505,72.5459
138.1103,72.2405
138.0305,71.9428
137.9126,71.6582
137.9126,71.6582
137.9126,71.6582
137.8468,71.5441
137.7586,71.3913
137.6238,71.2157
137.5710,71.1469
137.5710,71.1469
137.3531,70.9290
137.3531,70.9290
137.1087,70.7414
137.1087,70.7414
137.1087,70.7414
137.0023,70.6800
136.8418,70.5874
136.8418,70.5874
136.5572,70.4695
136.2595,70.3897
135.9541,70.3495
135.9541,70.3495
135.9541,70.3495
135.6459,70.3495
135.6459,70.3495
135.6459,70.3495
135.3405,70.3897
135.0428,70.4695
134.7582,70.5874
134.7582,70.5874
134.4913,70.7414
134.2469,70.9290
134.2469,70.9290
134.0290,71.1469
134.0290,71.1469
133.8414,71.3913
133.6874,71.6582
133.6874,71.6582
133.5777,71.9230
133.5339,71.9774
133.4676,71.9994
133.4631,71.9995
129.3415,71.9995
129.2745,71.9798
129.2538,71.9632
129.0165,71.7259
129.0165,71.7259
128.9018,71.6492
128.7743,71.5964
128.7743,71.5964
128.6390,71.5695
128.6390,71.5695
128.6390,71.5695
126.7205,71.5695
126.6535,71.5498
126.6077,71.4970
126.5978,71.4279
126.6268,71.3643
126.6328,71.3578
130.2538,67.7368
130.3152,67.7033
130.3415,67.7005
133.4631,67.7005
133.5302,67.7202
133.5759,67.7730
133.5777,67.7770
133.6874,68.0418
133.6874,68.0418
133.7800,68.2023
133.8414,68.3087
133.8414,68.3087
133.8414,68.3087
134.0290,68.5531
134.0290,68.5531
134.2469,68.7710
134.2469,68.7710
134.4913,68.9586
134.6628,69.0576
134.7582,69.1126
134.7582,69.1126
134.7582,69.1126
135.0428,69.2305
135.3405,69.3103
135.6459,69.3505
135.6459,69.3505
135.9541,69.3505
135.9541,69.3505
136.2595,69.3103
136.5572,69.2305
136.8418,69.1126
137.1087,68.9586
137.3531,68.7710
137.5710,68.5531
137.7586,68.3087
137.9126,68.0418
138.0305,67.7572
138.1103,67.4595
138.1505,67.1541
138.1505,66.8459
138.1103,66.5405
138.0305,66.2428
137.9126,65.9582
137.9126,65.9582
137.9126,65.9582
137.8576,65.8628
137.7586,65.6913
137.5710,65.4469
137.5710,65.4469
137.3531,65.2290
137.3531,65.2290
137.1087,65.0414
137.1087,65.0414
137.1087,65.0414
137.0023,64.9800
136.8418,64.8874
136.8418,64.8874
136.5572,64.7695
136.2595,64.6897
135.9541,64.6495
135.9541,64.6495
135.9541,64.6495
135.6459,64.6495
135.6459,64.6495
135.6459,64.6495
135.3405,64.6897
135.0428,64.7695
134.7582,64.8874
134.7582,64.8874
134.4913,65.0414
134.2469,65.2290
134.2469,65.2290
134.0290,65.4469
134.0290,65.4469
133.8414,65.6913
133.6874,65.9582
133.6874,65.9582
133.5777,66.2230
133.5339,66.2774
133.4676,66.2994
133.4631,66.2995
129.9310,66.2995
129.8226,66.3211
129.8226,66.3211
129.7957,66.3264
129.6682,66.3792
129.5535,66.4559
129.5535,66.4559
125.7462,70.2632
125.6848,70.2967
125.6585,70.2995
124.9457,70.2995
124.8786,70.2798
124.8329,70.2270
124.8229,70.1579
124.8266,70.1409
124.8726,69.9826
124.8726,69.9826
124.8755,69.9457
124.8755,69.9457
124.8755,69.5143
124.8726,69.4774
124.8357,69.3505
124.8321,69.3380
124.8323,69.2681
124.8635,69.2157
125.9424,68.1368
126.0037,68.1033
126.0301,68.1005
126.0791,68.1005
126.0791,68.1005
126.2318,68.0596
126.3687,67.9805
126.4805,67.8687
126.5596,67.7318
126.6005,67.5791
126.6005,61.7153
133.7245,61.7153
133.7245,61.9447
133.7494,62.1342
133.7545,62.1722
133.7545,62.1722
133.8138,62.3939
133.9016,62.6059
133.9017,62.6059
134.0164,62.8046
134.1561,62.9867
134.1561,62.9867
134.3183,63.1489
134.3183,63.1489
134.5004,63.2886
134.5004,63.2886
134.5004,63.2886
134.6991,63.4033
134.6991,63.4033
134.6991,63.4033
134.7905,63.4412
134.9111,63.4912
135.1328,63.5505
135.3603,63.5805
135.3603,63.5805
135.5897,63.5805
135.5897,63.5805
135.8172,63.5505
136.0389,63.4912
136.2509,63.4033
136.4496,63.2886
136.6317,63.1489
136.6317,63.1489
136.6317,63.1489
136.7939,62.9867
136.7939,62.9867
136.7939,62.9867
136.9336,62.8046
137.0483,62.6059
137.1362,62.3939
137.1955,62.1722
137.2255,61.9447
137.2255,61.7153
137.1955,61.4878
137.1362,61.2661
137.0483,61.0541
136.9336,60.8554
136.9336,60.8554
136.9336,60.8554
136.7939,60.6733
136.7939,60.6733
136.6317,60.5111
136.6317,60.5111
136.4496,60.3714
136.2509,60.2567
136.2509,60.2567
136.0389,60.1688
135.8172,60.1095
135.7792,60.1044
135.5897,60.0795
135.5897,60.0795
135.3603,60.0795
135.3603,60.0795
135.1437,60.1080
135.1328,60.1095
135.0513,60.1313
134.9111,60.1688
134.6991,60.2567
134.6991,60.2567
134.5004,60.3714
134.3183,60.5111
134.1561,60.6733
134.0164,60.8554
133.9017,61.0541
133.9016,61.0541
133.8138,61.2661
133.7545,61.4878
133.7545,61.4878
133.7245,61.7153
126.6005,61.7153
126.6005,60.8001
126.6202,60.7331
126.6368,60.7124
129.7124,57.6368
129.7737,57.6033
129.8001,57.6005
138.1999,57.6005
138.2669,57.6202
138.2876,57.6368
140.3632,59.7124
140.3967,59.7737
140.3995,59.8001
140.3995,64.5255
140.3798,64.5925
140.3270,64.6383
140.2755,64.6495
139.8500,64.6495
139.8500,64.6495
139.7472,64.6600
139.7472,64.6600
139.5807,64.7152
139.5807,64.7152
139.4313,64.8073
139.3073,64.9313
139.2152,65.0807
139.2152,65.0807
139.1600,65.2472
139.1600,65.2472
139.1600,65.2472
139.1495,65.3500
139.1495,68.6500
139.1495,68.6500
139.1600,68.7528
139.1600,68.7528
139.2065,68.8932
139.2152,68.9193
139.3073,69.0687
139.4313,69.1927
139.5807,69.2848
139.7472,69.3400
139.8500,69.3505
143.1500,69.3505
143.2528,69.3400
143.4193,69.2848
143.5687,69.1927
143.6927,69.0687
143.7848,68.9193
143.8400,68.7528
143.8505,68.6500
143.8505,65.3500
143.8400,65.2472
143.7848,65.0807
143.6927,64.9313
143.5687,64.8073
143.4193,64.7152
143.2528,64.6600
143.2528,64.6600
143.1500,64.6495
143.1500,64.6495
141.7245,64.6495
141.6575,64.6298
141.6117,64.5770
141.6005,64.5255
141.6005,59.5891
141.6005,59.5890
141.6005,59.4209
141.6005,59.4209
141.5596,59.2682
141.5306,59.2181
141.4805,59.1313
141.3687,59.0195
141.3687,59.0195
141.3644,59.0151
141.3644,59.0151
138.9876,56.6384
138.9876,56.6384
138.8687,56.5195
138.8687,56.5195
138.7819,56.4694
138.7819,56.4694
138.7819,56.4694
138.7318,56.4404
138.5791,56.3995
138.4209,56.3995
138.4133,56.3995
138.4133,56.3995
129.4209,56.3995
129.3800,56.4105
129.3800,56.4105
129.3428,56.4205
129.2682,56.4404
129.2682,56.4404
129.1313,56.5195
129.1313,56.5195
125.5195,60.1313
125.5195,60.1313
125.4694,60.2181
125.4694,60.2181
125.4404,60.2682
125.4404,60.2682
125.4404,60.2682
125.3995,60.4209
125.3995,60.4209
125.3995,60.5890
125.3995,60.5891
125.3995,66.7755
125.3798,66.8425
125.3270,66.8883
125.2755,66.8995
110.5867,66.8995
110.5867,66.8995
110.5791,66.8995
110.4209,66.8995
110.3446,66.9200
110.2682,66.9404
110.2682,66.9404
110.1313,67.0195
110.1313,67.0195
107.6376,69.5132
107.6107,69.5279
107.5848,69.5445
107.5786,69.5454
107.5763,69.5467
107.5499,69.5495
107.4501,69.5495
107.3831,69.5298
107.3624,69.5132
104.9876,67.1384
104.9876,67.1384
104.8687,67.0195
104.8687,67.0195
104.7819,66.9694
104.7819,66.9694
104.7819,66.9694
104.7318,66.9404
104.5791,66.8995
104.4209,66.8995
104.4133,66.8995
104.4133,66.8995
94.5867,66.8995
94.5867,66.8995
94.5791,66.8995
94.4209,66.8995
94.3446,66.9200
94.2682,66.9404
94.2682,66.9404
94.1313,67.0195
94.1313,67.0195
91.6376,69.5132
91.6107,69.5279
91.5848,69.5445
91.5786,69.5454
91.5763,69.5467
91.5499,69.5495
91.4501,69.5495
91.3831,69.5298
91.3624,69.5132
89.4876,67.6384
89.4876,67.6384
89.3687,67.5195
89.3687,67.5195
89.2649,67.4595
89.2318,67.4404
89.0791,67.3995
88.9209,67.3995
88.9133,67.3995
88.9133,67.3995
78.5217,67.3995
78.5217,67.3995
78.5141,67.3995
78.3559,67.3995
78.2414,67.4302
78.2032,67.4404
78.1701,67.4595
78.1701,67.4595
78.0663,67.5195
78.0663,67.5195
77.9545,67.6313
76.0726,69.5132
76.0113,69.5467
75.9849,69.5495
75.2363,69.5495
75.1209,69.5647
75.1208,69.5647
74.9772,69.6242
74.8539,69.7189
74.7592,69.8422
74.6997,69.9858
74.6997,69.9858
74.6845,70.1013
70.2513,70.1013
70.2513,70.0989
70.0017,51.1256
70.0205,51.0583
70.0727,51.0119
70.1256,51.0000
77.0000,51.0000
109.1667,50.7782
149.3751,50.5009
Z" /> 
</g> 
</svg>
