<?xml version="1.0" standalone="no"?>
 <!DOCTYPE svg PUBLIC "-//W3C//DTD SVG 1.1//EN" 
 "http://www.w3.org/Graphics/SVG/1.1/DTD/svg11.dtd"> 
<svg
  xmlns:svg="http://www.w3.org/2000/svg"
  xmlns="http://www.w3.org/2000/svg"
  xmlns:xlink="http://www.w3.org/1999/xlink"
  version="1.1"
  width="70.0278mm" height="27.7114mm" viewBox="0.0000 0.0000 70.0278 27.7114">
<title>SVG Image created as Proto-1-B_Cu.svg date 2025/09/13 14:24:06 </title>
  <desc>Image generated by PCBNEW </desc>
<g style="fill:#000000; fill-opacity:1.0000;stroke:#000000; stroke-opacity:1.0000;
stroke-linecap:round; stroke-linejoin:round;"
 transform="translate(0 0) scale(1 1)">
</g>
<g style="fill:#000000; fill-opacity:1.0000; 
stroke:#000000; stroke-width:0.0212; stroke-opacity:1; 
stroke-linecap:round; stroke-linejoin:round;">
<rect x="-5.000000" y="-5.000000" width="80.050000" height="37.713810" rx="0.000000" />
<path style="fill:#FFFFFF; fill-opacity:1.0000; stroke:none;fill-rule:evenodd;"
d="M 57.4250,14.9250
58.6250,14.9250
58.6250,16.1250
57.4250,16.1250
Z" /> 
</g>
<g style="fill:#FFFFFF; fill-opacity:1.0000; stroke:none;">
<circle cx="58.0250" cy="17.1250" r="0.7000" /> 
</g>
<g style="fill:#FFFFFF; fill-opacity:1.0000; stroke:none;">
<circle cx="58.0250" cy="18.7250" r="0.7000" /> 
</g>
<g style="fill:#FFFFFF; fill-opacity:1.0000; stroke:none;">
<circle cx="58.0250" cy="20.3250" r="0.7000" /> 
<path style="fill:#FFFFFF; fill-opacity:1.0000; stroke:none;fill-rule:evenodd;"
d="M 35.1750,15.1750
36.3750,15.1750
36.3750,16.3750
35.1750,16.3750
Z" /> 
</g>
<g style="fill:#FFFFFF; fill-opacity:1.0000; stroke:none;">
<circle cx="35.7750" cy="17.3750" r="0.7000" /> 
</g>
<g style="fill:#FFFFFF; fill-opacity:1.0000; stroke:none;">
<circle cx="35.7750" cy="18.9750" r="0.7000" /> 
</g>
<g style="fill:#FFFFFF; fill-opacity:1.0000; stroke:none;">
<circle cx="35.7750" cy="20.5750" r="0.7000" /> 
<path style="fill:#FFFFFF; fill-opacity:1.0000; stroke:none;fill-rule:evenodd;"
d="M 4.0850,14.6650
2.3850,14.6650
2.3850,12.9650
4.0850,12.9650
Z" /> 
</g>
<g style="fill:#FFFFFF; fill-opacity:1.0000; stroke:none;">
<circle cx="3.2350" cy="11.2750" r="0.8500" /> 
</g>
<g style="fill:#FFFFFF; fill-opacity:1.0000; stroke:none;">
<circle cx="5.7750" cy="13.8150" r="0.8500" /> 
</g>
<g style="fill:#FFFFFF; fill-opacity:1.0000; stroke:none;">
<circle cx="5.7750" cy="11.2750" r="0.8500" /> 
<path style="fill:#FFFFFF; fill-opacity:1.0000; stroke:none;fill-rule:evenodd;"
d="M 17.4250,15.4250
18.6250,15.4250
18.6250,16.6250
17.4250,16.6250
Z" /> 
</g>
<g style="fill:#FFFFFF; fill-opacity:1.0000; stroke:none;">
<circle cx="18.0250" cy="17.6250" r="0.7000" /> 
</g>
<g style="fill:#FFFFFF; fill-opacity:1.0000; stroke:none;">
<circle cx="18.0250" cy="19.2250" r="0.7000" /> 
</g>
<g style="fill:#FFFFFF; fill-opacity:1.0000; stroke:none;">
<circle cx="18.0250" cy="20.8250" r="0.7000" /> 
</g>
<g style="fill:none; 
stroke:#FFFFFF; stroke-width:0.4000; stroke-opacity:1; 
stroke-linecap:round; stroke-linejoin:round;">
<path d="M13.2750 15.0250
L13.2750 16.2750
" />
<path d="M7.2750 9.0250
L11.7750 13.5250
" />
<path d="M30.3250 13.5250
L52.8250 13.5250
" />
<path d="M13.2750 16.2750
L15.0750 16.2750
" />
<path d="M5.4850 9.0250
L7.2750 9.0250
" />
<path d="M15.0750 16.2750
L18.0250 19.2250
" />
<path d="M30.3250 13.5250
L35.7750 18.9750
" />
<path d="M11.7750 13.5250
L13.2750 15.0250
" />
<path d="M11.7750 13.5250
L30.3250 13.5250
" />
<path d="M3.2350 11.2750
L5.4850 9.0250
" />
<path d="M52.8250 13.5250
L58.0250 18.7250
" />
<path d="M29.3250 20.5750
L35.7750 20.5750
" />
<path d="M26.3750 17.6250
L29.3250 20.5750
" />
<path d="M18.0250 17.6250
L26.3750 17.6250
" />
<path d="M48.3250 20.3250
L58.0250 20.3250
" />
<path d="M45.3750 17.3750
L48.3250 20.3250
" />
<path d="M35.7750 17.3750
L45.3750 17.3750
" />
<path style="fill:#FFFFFF; fill-opacity:1.0000; stroke:none;fill-rule:evenodd;"
d="M 4.3503,12.0367
4.3503,12.0367
4.3896,11.9826
4.3942,11.9735
4.4422,11.9227
4.5100,11.9059
4.5762,11.9284
4.6152,11.9735
4.6199,11.9828
4.7449,12.1548
4.8952,12.3051
5.0672,12.4300
5.0759,12.4345
5.1267,12.4825
5.1435,12.5503
5.1210,12.6164
5.0759,12.6555
5.0672,12.6599
4.8952,12.7849
4.7817,12.8984
4.7203,12.9319
4.6507,12.9269
4.5947,12.8851
4.5778,12.8541
4.5288,12.7227
4.5288,12.7227
4.4425,12.6075
4.4425,12.6075
4.3273,12.5212
4.3273,12.5212
4.1925,12.4709
4.1925,12.4709
4.1329,12.4645
4.1329,12.4645
4.1329,12.4645
4.1329,12.4645
4.1223,12.4645
4.0553,12.4448
4.0346,12.4282
3.3644,11.7580
3.4280,11.7409
3.5420,11.6751
3.6351,11.5820
3.7009,11.4680
3.7180,11.4044
Z" /> 
<path style="fill:#FFFFFF; fill-opacity:1.0000; stroke:none;fill-rule:evenodd;"
d="M 69.4675,0.5452
69.5133,0.5980
69.5245,0.6495
69.5245,24.4005
69.5048,24.4675
69.4520,24.5133
69.4005,24.5245
0.6495,24.5245
0.5825,24.5048
0.5367,24.4520
0.5255,24.4005
0.5255,22.1439
4.0245,22.1439
4.0245,22.4061
4.0454,22.5651
4.0587,22.6661
4.0802,22.7462
4.1266,22.9194
4.1266,22.9194
4.2270,23.1617
4.2270,23.1617
4.3581,23.3888
4.5177,23.5969
4.5177,23.5969
4.7031,23.7823
4.7031,23.7823
4.9112,23.9419
5.1383,24.0730
5.1383,24.0730
5.3806,24.1734
5.3806,24.1734
5.6339,24.2413
5.8939,24.2755
5.8939,24.2755
6.1561,24.2755
6.1561,24.2755
6.4161,24.2413
6.6694,24.1734
6.9117,24.0730
7.1388,23.9419
7.3469,23.7823
7.3469,23.7823
7.3469,23.7823
7.5323,23.5969
7.5323,23.5969
7.5323,23.5969
7.6919,23.3888
7.8230,23.1617
7.9234,22.9194
7.9913,22.6661
8.0255,22.4061
8.0255,22.1439
7.9913,21.8839
7.9234,21.6306
7.9202,21.6230
7.8230,21.3883
7.8230,21.3883
7.6919,21.1612
7.5671,20.9986
7.5323,20.9531
7.5323,20.9531
7.5323,20.9531
7.3469,20.7677
7.3469,20.7677
7.1388,20.6081
6.9117,20.4770
6.9117,20.4770
6.6694,20.3766
6.6694,20.3766
6.6694,20.3766
6.4161,20.3087
6.3583,20.3011
6.1561,20.2745
6.1561,20.2745
5.8939,20.2745
5.8939,20.2745
5.6628,20.3049
5.6339,20.3087
5.4270,20.3642
5.3806,20.3766
5.3806,20.3766
5.1383,20.4770
5.1383,20.4770
4.9112,20.6081
4.7031,20.7677
4.5177,20.9531
4.3581,21.1612
4.2270,21.3883
4.2270,21.3883
4.1266,21.6306
4.1266,21.6306
4.0587,21.8839
4.0245,22.1439
0.5255,22.1439
0.5255,17.5305
16.8245,17.5305
16.8245,17.7195
16.8541,17.9061
16.9125,18.0858
16.9545,18.1683
16.9982,18.2542
17.0500,18.3255
17.0697,18.3525
17.0932,18.4183
17.0773,18.4864
17.0697,18.4983
16.9987,18.5961
16.9129,18.7644
16.8545,18.9440
16.8250,19.1306
16.8250,19.3194
16.8545,19.5060
16.9129,19.6856
16.9987,19.8539
17.0697,19.9517
17.0932,20.0175
17.0773,20.0856
17.0697,20.0975
16.9982,20.1958
16.9125,20.3642
16.8541,20.5439
16.8245,20.7305
16.8245,20.9195
16.8541,21.1061
16.9125,21.2858
16.9675,21.3939
16.9982,21.4542
17.1093,21.6071
17.2429,21.7407
17.3958,21.8518
17.4588,21.8839
17.5642,21.9375
17.5642,21.9375
17.5642,21.9375
17.6605,21.9688
17.7439,21.9959
17.9305,22.0255
17.9305,22.0255
18.1195,22.0255
18.3061,21.9959
18.4858,21.9375
18.6542,21.8518
18.8071,21.7407
18.9407,21.6071
19.0518,21.4542
19.1375,21.2858
19.1959,21.1061
19.2056,21.0452
19.2255,20.9195
19.2255,20.7305
19.1959,20.5439
19.1375,20.3642
19.0919,20.2745
19.0518,20.1958
18.9803,20.0975
18.9568,20.0317
18.9727,19.9636
18.9803,19.9517
19.0513,19.8539
19.1371,19.6856
19.1955,19.5060
19.2250,19.3194
19.2250,19.1306
19.1955,18.9440
19.1371,18.7644
19.0513,18.5961
18.9978,18.5224
18.9743,18.4566
18.9901,18.3885
19.0403,18.3398
19.0981,18.3255
26.0335,18.3255
26.1005,18.3452
26.1212,18.3618
28.8785,21.1191
28.8785,21.1191
28.9932,21.1958
29.1207,21.2486
29.1207,21.2486
29.1207,21.2486
29.1207,21.2486
29.2560,21.2755
29.2560,21.2755
29.2560,21.2755
34.7369,21.2755
34.8039,21.2952
34.8372,21.3266
34.8593,21.3571
34.9929,21.4907
35.1458,21.6018
35.2023,21.6306
35.3142,21.6875
35.3142,21.6875
35.3142,21.6875
35.4105,21.7188
35.4939,21.7459
35.6805,21.7755
35.6805,21.7755
35.8695,21.7755
36.0561,21.7459
36.0723,21.7407
36.2358,21.6875
36.4042,21.6018
36.5571,21.4907
36.6907,21.3571
36.8018,21.2042
36.8875,21.0358
36.9459,20.8561
36.9755,20.6695
36.9755,20.4805
36.9459,20.2939
36.8875,20.1142
36.8423,20.0253
36.8018,19.9458
36.7303,19.8475
36.7068,19.7817
36.7227,19.7136
36.7303,19.7017
36.8013,19.6039
36.8871,19.4356
36.9455,19.2560
36.9750,19.0694
36.9750,18.8806
36.9455,18.6940
36.8871,18.5144
36.8013,18.3461
36.7478,18.2724
36.7243,18.2066
36.7401,18.1385
36.7903,18.0898
36.8481,18.0755
45.0335,18.0755
45.1005,18.0952
45.1212,18.1118
47.8785,20.8691
47.8785,20.8691
47.9932,20.9458
48.1207,20.9986
48.1207,20.9986
48.1207,20.9986
48.1207,20.9986
48.2560,21.0255
48.2560,21.0255
48.2560,21.0255
56.9869,21.0255
57.0539,21.0452
57.0872,21.0766
57.1093,21.1071
57.2429,21.2407
57.3958,21.3518
57.4675,21.3883
57.5642,21.4375
57.5642,21.4375
57.5642,21.4375
57.6605,21.4688
57.7439,21.4959
57.9305,21.5255
57.9305,21.5255
58.1195,21.5255
58.3061,21.4959
58.3223,21.4907
58.4858,21.4375
58.5715,21.3939
64.2745,21.3939
64.2745,21.6561
64.2856,21.7407
64.3087,21.9161
64.3738,22.1591
64.3766,22.1694
64.3766,22.1694
64.4770,22.4117
64.4770,22.4117
64.6081,22.6388
64.7677,22.8469
64.7677,22.8469
64.9531,23.0323
64.9531,23.0323
65.1612,23.1919
65.3883,23.3230
65.3883,23.3230
65.5471,23.3888
65.6306,23.4234
65.8839,23.4913
66.1439,23.5255
66.1439,23.5255
66.4061,23.5255
66.4061,23.5255
66.6661,23.4913
66.9194,23.4234
67.1617,23.3230
67.3888,23.1919
67.5969,23.0323
67.5969,23.0323
67.5969,23.0323
67.7823,22.8469
67.7823,22.8469
67.7823,22.8469
67.9419,22.6388
68.0730,22.4117
68.1734,22.1694
68.2413,21.9161
68.2755,21.6561
68.2755,21.3939
68.2413,21.1339
68.1734,20.8806
68.1686,20.8691
68.0730,20.6383
68.0730,20.6383
67.9419,20.4112
67.7823,20.2031
67.7823,20.2031
67.5969,20.0177
67.5969,20.0177
67.3888,19.8581
67.1617,19.7270
67.1617,19.7270
66.9194,19.6266
66.9194,19.6266
66.9194,19.6266
66.6661,19.5587
66.5864,19.5482
66.4061,19.5245
66.4061,19.5245
66.1439,19.5245
66.1439,19.5245
65.9128,19.5549
65.8839,19.5587
65.6384,19.6245
65.6306,19.6266
65.6306,19.6266
65.3883,19.7270
65.3883,19.7270
65.1612,19.8581
64.9531,20.0177
64.7677,20.2031
64.6081,20.4112
64.4770,20.6383
64.4770,20.6383
64.3766,20.8806
64.3766,20.8806
64.3127,21.1191
64.3087,21.1339
64.2745,21.3939
58.5715,21.3939
58.6542,21.3518
58.8071,21.2407
58.9407,21.1071
59.0518,20.9542
59.1375,20.7858
59.1959,20.6061
59.2058,20.5439
59.2255,20.4195
59.2255,20.2305
59.1959,20.0439
59.1641,19.9458
59.1375,19.8642
59.1375,19.8642
59.1375,19.8642
59.0676,19.7270
59.0518,19.6958
58.9803,19.5975
58.9568,19.5317
58.9727,19.4636
58.9803,19.4517
59.0513,19.3539
59.1371,19.1856
59.1955,19.0060
59.2250,18.8194
59.2250,18.6306
59.1955,18.4440
59.1371,18.2644
59.0513,18.0961
58.9803,17.9983
58.9568,17.9325
58.9727,17.8644
58.9803,17.8525
59.0518,17.7542
59.0518,17.7542
59.0518,17.7542
59.1375,17.5858
59.1959,17.4061
59.2058,17.3439
59.2255,17.2195
59.2255,17.0305
59.1959,16.8439
59.1668,16.7542
59.1375,16.6642
59.1375,16.6642
59.1375,16.6642
59.0548,16.5017
59.0419,16.4330
59.0660,16.3711
59.0688,16.3673
59.1191,16.2325
59.1255,16.1729
59.1255,14.8771
59.1191,14.8175
59.1036,14.7759
59.0688,14.6827
59.0688,14.6827
58.9825,14.5675
58.9825,14.5675
58.8673,14.4812
58.8673,14.4812
58.7325,14.4309
58.7325,14.4309
58.6729,14.4245
58.6729,14.4245
58.6729,14.4245
58.6729,14.4245
57.3771,14.4245
57.3771,14.4245
57.3175,14.4309
57.1827,14.4812
57.1827,14.4812
57.0675,14.5675
57.0675,14.5675
56.9812,14.6827
56.9812,14.6827
56.9309,14.8175
56.9279,14.8451
56.9245,14.8771
56.9245,14.8771
56.9245,16.1729
56.9245,16.1729
56.9309,16.2325
56.9812,16.3673
56.9812,16.3673
56.9840,16.3711
57.0084,16.4366
56.9952,16.5017
56.9125,16.6642
56.8541,16.8439
56.8245,17.0305
56.8245,17.2195
56.8541,17.4061
56.9125,17.5858
56.9982,17.7542
57.0697,17.8525
57.0932,17.9183
57.0773,17.9864
57.0697,17.9983
56.9987,18.0961
56.9129,18.2644
56.8545,18.4440
56.8250,18.6306
56.8250,18.8194
56.8545,19.0060
56.9129,19.1856
56.9987,19.3539
57.0522,19.4276
57.0757,19.4934
57.0599,19.5615
57.0097,19.6102
56.9519,19.6245
48.6665,19.6245
48.5995,19.6048
48.5788,19.5882
45.8215,16.8309
45.8215,16.8309
45.7068,16.7542
45.5793,16.7014
45.5793,16.7014
45.4440,16.6745
45.4440,16.6745
45.4440,16.6745
36.9761,16.6745
36.9090,16.6548
36.8633,16.6020
36.8533,16.5329
36.8599,16.5072
36.8691,16.4825
36.8691,16.4825
36.8755,16.4229
36.8755,15.1271
36.8691,15.0675
36.8687,15.0666
36.8188,14.9327
36.8188,14.9327
36.7325,14.8175
36.7325,14.8175
36.6173,14.7312
36.6173,14.7312
36.4825,14.6809
36.4825,14.6809
36.4229,14.6745
36.4229,14.6745
36.4229,14.6745
36.4229,14.6745
35.1271,14.6745
35.1271,14.6745
35.0675,14.6809
34.9327,14.7312
34.9327,14.7312
34.8175,14.8175
34.8175,14.8175
34.7312,14.9327
34.7312,14.9327
34.6809,15.0675
34.6745,15.1271
34.6745,15.1271
34.6745,15.1271
34.6745,16.4229
34.6745,16.4229
34.6809,16.4825
34.7312,16.6173
34.7312,16.6173
34.7340,16.6211
34.7584,16.6866
34.7452,16.7517
34.6625,16.9142
34.6041,17.0939
34.5745,17.2805
34.5745,17.4695
34.6041,17.6561
34.6625,17.8358
34.7392,17.9864
34.7482,18.0042
34.8000,18.0755
34.8197,18.1025
34.8432,18.1683
34.8273,18.2364
34.8197,18.2483
34.7487,18.3461
34.6629,18.5144
34.6045,18.6940
34.5750,18.8806
34.5750,19.0694
34.6045,19.2560
34.6629,19.4356
34.7487,19.6039
34.8022,19.6776
34.8257,19.7434
34.8099,19.8115
34.7597,19.8602
34.7019,19.8745
29.6665,19.8745
29.5995,19.8548
29.5788,19.8382
26.8215,17.0809
26.8215,17.0809
26.7068,17.0042
26.5793,16.9514
26.5793,16.9514
26.4440,16.9245
26.4440,16.9245
26.4440,16.9245
19.2261,16.9245
19.1590,16.9048
19.1133,16.8520
19.1033,16.7829
19.1099,16.7572
19.1191,16.7325
19.1191,16.7325
19.1255,16.6729
19.1255,15.3771
19.1191,15.3175
19.0688,15.1827
19.0688,15.1827
19.0688,15.1827
18.9825,15.0675
18.9825,15.0675
18.8673,14.9812
18.8673,14.9812
18.7325,14.9309
18.7325,14.9309
18.6729,14.9245
18.6729,14.9245
18.6729,14.9245
18.6729,14.9245
17.3771,14.9245
17.3771,14.9245
17.3175,14.9309
17.1827,14.9812
17.1827,14.9812
17.0675,15.0675
17.0675,15.0675
16.9812,15.1827
16.9812,15.1827
16.9309,15.3175
16.9245,15.3771
16.9245,15.3771
16.9245,15.3771
16.9245,16.6729
16.9245,16.6729
16.9309,16.7325
16.9812,16.8673
16.9812,16.8673
16.9840,16.8711
17.0084,16.9366
16.9952,17.0017
16.9125,17.1642
16.8541,17.3439
16.8245,17.5305
0.5255,17.5305
0.5255,12.9171
1.8845,12.9171
1.8845,14.7129
1.8845,14.7129
1.8909,14.7725
1.9412,14.9073
1.9412,14.9073
2.0275,15.0225
2.0275,15.0225
2.1427,15.1088
2.1427,15.1088
2.2775,15.1591
2.2775,15.1591
2.2844,15.1598
2.3371,15.1655
4.1329,15.1655
4.1925,15.1591
4.3273,15.1088
4.4425,15.0225
4.5288,14.9073
4.5778,14.7759
4.6197,14.7200
4.6851,14.6956
4.7534,14.7104
4.7817,14.7316
4.8952,14.8451
5.0672,14.9700
5.0672,14.9700
5.0672,14.9701
5.2566,15.0666
5.4588,15.1322
5.6687,15.1655
5.6687,15.1655
5.8813,15.1655
5.8813,15.1655
6.0912,15.1322
6.2934,15.0666
6.4828,14.9701
6.5691,14.9073
6.6548,14.8451
6.6548,14.8451
6.6548,14.8451
6.8051,14.6948
6.8051,14.6948
6.8051,14.6948
6.9300,14.5228
6.9300,14.5228
6.9301,14.5228
7.0266,14.3334
7.0922,14.1312
7.1255,13.9213
7.1255,13.7087
7.0922,13.4988
7.0266,13.2966
6.9301,13.1072
6.9300,13.1072
6.9300,13.1072
6.8051,12.9352
6.6548,12.7849
6.4828,12.6600
6.4821,12.6596
6.4741,12.6555
6.4233,12.6075
6.4065,12.5397
6.4290,12.4736
6.4741,12.4345
6.4828,12.4301
6.5048,12.4141
6.6548,12.3051
6.6548,12.3051
6.6548,12.3051
6.8051,12.1548
6.8051,12.1548
6.8051,12.1548
6.9300,11.9828
6.9300,11.9828
6.9301,11.9828
7.0266,11.7934
7.0922,11.5912
7.1255,11.3813
7.1255,11.1687
7.0922,10.9588
7.0266,10.7566
6.9301,10.5672
6.9300,10.5672
6.9300,10.5672
6.8051,10.3952
6.6548,10.2449
6.4828,10.1200
6.2934,10.0234
6.2934,10.0234
6.2934,10.0234
6.0912,9.9578
6.0912,9.9578
6.0912,9.9578
5.9300,9.9322
5.8813,9.9245
5.6687,9.9245
5.6200,9.9322
5.4588,9.9578
5.2566,10.0234
5.0672,10.1200
4.8952,10.2449
4.7449,10.3952
4.6199,10.5672
4.6152,10.5765
4.5672,10.6273
4.4994,10.6441
4.4333,10.6215
4.3942,10.5765
4.3896,10.5675
4.3503,10.5133
4.3503,10.5133
3.7180,11.1456
3.7009,11.0820
3.6351,10.9680
3.5420,10.8749
3.4280,10.8091
3.3644,10.7920
3.9967,10.1597
3.9425,10.1204
3.7532,10.0239
3.5511,9.9582
3.3412,9.9250
3.1288,9.9250
2.9189,9.9582
2.9189,9.9582
2.7168,10.0239
2.5274,10.1204
2.4733,10.1597
2.4733,10.1597
3.1056,10.7920
3.0420,10.8091
2.9280,10.8749
2.8349,10.9680
2.7691,11.0820
2.7520,11.1456
2.1197,10.5133
2.1197,10.5133
2.0804,10.5674
1.9839,10.7568
1.9182,10.9589
1.9182,10.9589
1.8850,11.1688
1.8850,11.3812
1.9182,11.5911
1.9182,11.5911
1.9839,11.7932
2.0804,11.9825
2.1197,12.0367
2.7520,11.4044
2.7691,11.4680
2.8349,11.5820
2.9280,11.6751
3.0420,11.7409
3.1056,11.7580
2.4354,12.4282
2.3740,12.4617
2.3477,12.4645
2.3371,12.4645
2.3371,12.4645
2.2775,12.4709
2.1427,12.5212
2.1427,12.5212
2.0275,12.6075
2.0275,12.6075
1.9412,12.7227
1.9412,12.7227
1.8909,12.8575
1.8845,12.9171
1.8845,12.9171
0.5255,12.9171
0.5255,4.3939
4.0245,4.3939
4.0245,4.6561
4.0454,4.8151
4.0587,4.9161
4.0802,4.9962
4.1266,5.1694
4.1266,5.1694
4.2270,5.4117
4.2270,5.4117
4.3581,5.6388
4.5177,5.8469
4.5177,5.8469
4.7031,6.0323
4.7031,6.0323
4.9112,6.1919
5.1383,6.3230
5.1383,6.3230
5.3806,6.4234
5.3806,6.4234
5.6339,6.4913
5.8939,6.5255
5.8939,6.5255
6.1561,6.5255
6.1561,6.5255
6.4161,6.4913
6.6694,6.4234
6.9117,6.3230
7.1388,6.1919
7.3469,6.0323
7.3469,6.0323
7.3469,6.0323
7.5323,5.8469
7.5323,5.8469
7.5323,5.8469
7.6919,5.6388
7.8230,5.4117
7.9234,5.1694
7.9913,4.9161
8.0255,4.6561
8.0255,4.3939
7.9913,4.1339
7.9234,3.8806
7.8703,3.7524
7.8433,3.6873
7.8253,3.6439
64.0245,3.6439
64.0245,3.9061
64.0439,4.0538
64.0587,4.1661
64.1238,4.4091
64.1266,4.4194
64.1266,4.4194
64.2270,4.6617
64.2270,4.6617
64.3581,4.8888
64.5177,5.0969
64.5177,5.0969
64.7031,5.2823
64.7031,5.2823
64.9112,5.4419
65.1383,5.5730
65.1383,5.5730
65.2971,5.6388
65.3806,5.6734
65.6339,5.7413
65.8939,5.7755
65.8939,5.7755
66.1561,5.7755
66.1561,5.7755
66.4161,5.7413
66.6694,5.6734
66.9117,5.5730
67.1388,5.4419
67.3469,5.2823
67.3469,5.2823
67.3469,5.2823
67.5323,5.0969
67.5323,5.0969
67.5323,5.0969
67.6919,4.8888
67.8230,4.6617
67.9234,4.4194
67.9913,4.1661
68.0255,3.9061
68.0255,3.6439
67.9913,3.3839
67.9234,3.1306
67.8252,2.8935
67.8230,2.8883
67.8230,2.8883
67.6919,2.6612
67.5323,2.4531
67.5323,2.4531
67.3469,2.2677
67.3469,2.2677
67.1388,2.1081
66.9117,1.9770
66.9117,1.9770
66.6694,1.8766
66.6694,1.8766
66.6694,1.8766
66.4161,1.8087
66.3583,1.8011
66.1561,1.7745
66.1561,1.7745
65.8939,1.7745
65.8939,1.7745
65.6628,1.8049
65.6339,1.8087
65.3806,1.8766
65.3806,1.8766
65.1383,1.9770
65.1383,1.9770
64.9112,2.1081
64.7031,2.2677
64.5177,2.4531
64.3581,2.6612
64.2270,2.8883
64.2270,2.8883
64.1266,3.1306
64.1266,3.1306
64.0587,3.3839
64.0245,3.6439
7.8253,3.6439
7.8230,3.6383
7.8230,3.6383
7.6919,3.4112
7.5323,3.2031
7.5323,3.2031
7.3469,3.0177
7.3469,3.0177
7.1388,2.8581
6.9117,2.7270
6.9117,2.7270
6.6694,2.6266
6.6694,2.6266
6.6694,2.6266
6.4161,2.5587
6.3583,2.5511
6.1561,2.5245
6.1561,2.5245
5.8939,2.5245
5.8939,2.5245
5.6628,2.5549
5.6339,2.5587
5.3806,2.6266
5.3806,2.6266
5.1383,2.7270
5.1383,2.7270
4.9112,2.8581
4.7031,3.0177
4.5177,3.2031
4.3581,3.4112
4.2270,3.6383
4.2270,3.6383
4.1266,3.8806
4.1266,3.8806
4.0587,4.1339
4.0245,4.3939
0.5255,4.3939
0.5255,0.6495
0.5452,0.5825
0.5980,0.5367
0.6495,0.5255
69.4005,0.5255
Z" /> 
</g> 
</svg>
