<?xml version="1.0" standalone="no"?>
 <!DOCTYPE svg PUBLIC "-//W3C//DTD SVG 1.1//EN" 
 "http://www.w3.org/Graphics/SVG/1.1/DTD/svg11.dtd"> 
<svg
  xmlns:svg="http://www.w3.org/2000/svg"
  xmlns="http://www.w3.org/2000/svg"
  xmlns:xlink="http://www.w3.org/1999/xlink"
  version="1.1"
  width="70.0278mm" height="27.7114mm" viewBox="0.0000 0.0000 70.0278 27.7114">
<title>SVG Image created as Proto-1-F_Cu.svg date 2025/09/13 14:24:06 </title>
  <desc>Image generated by PCBNEW </desc>
<g style="fill:#000000; fill-opacity:1.0000;stroke:#000000; stroke-opacity:1.0000;
stroke-linecap:round; stroke-linejoin:round;"
 transform="translate(0 0) scale(1 1)">
</g>
<g style="fill:#000000; fill-opacity:1.0000; 
stroke:#000000; stroke-width:0.0212; stroke-opacity:1; 
stroke-linecap:round; stroke-linejoin:round;">
<rect x="-5.000000" y="-5.000000" width="80.050000" height="37.713810" rx="0.000000" />
<path style="fill:#FFFFFF; fill-opacity:1.0000; stroke:none;fill-rule:evenodd;"
d="M 14.6650,9.9250
14.6306,9.9181
14.6014,9.8986
14.5819,9.8694
14.5750,9.8350
14.5750,8.5150
14.5819,8.4806
14.6014,8.4514
14.6306,8.4319
14.6650,8.4250
15.3850,8.4250
15.4194,8.4319
15.4486,8.4514
15.4681,8.4806
15.4750,8.5150
15.4750,9.8350
15.4681,9.8694
15.4486,9.8986
15.4194,9.9181
15.3850,9.9250
Z" /> 
<path style="fill:#FFFFFF; fill-opacity:1.0000; stroke:none;fill-rule:evenodd;"
d="M 17.9650,9.9250
17.9306,9.9181
17.9014,9.8986
17.8819,9.8694
17.8750,9.8350
17.8750,8.5150
17.8819,8.4806
17.9014,8.4514
17.9306,8.4319
17.9650,8.4250
18.6850,8.4250
18.7194,8.4319
18.7486,8.4514
18.7681,8.4806
18.7750,8.5150
18.7750,9.8350
18.7681,9.8694
18.7486,9.8986
18.7194,9.9181
18.6850,9.9250
Z" /> 
<path style="fill:#FFFFFF; fill-opacity:1.0000; stroke:none;fill-rule:evenodd;"
d="M 17.9650,5.0250
17.9306,5.0181
17.9014,4.9986
17.8819,4.9694
17.8750,4.9350
17.8750,3.6150
17.8819,3.5806
17.9014,3.5514
17.9306,3.5319
17.9650,3.5250
18.6850,3.5250
18.7194,3.5319
18.7486,3.5514
18.7681,3.5806
18.7750,3.6150
18.7750,4.9350
18.7681,4.9694
18.7486,4.9986
18.7194,5.0181
18.6850,5.0250
Z" /> 
<path style="fill:#FFFFFF; fill-opacity:1.0000; stroke:none;fill-rule:evenodd;"
d="M 14.6650,5.0250
14.6306,5.0181
14.6014,4.9986
14.5819,4.9694
14.5750,4.9350
14.5750,3.6150
14.5819,3.5806
14.6014,3.5514
14.6306,3.5319
14.6650,3.5250
15.3850,3.5250
15.4194,3.5319
15.4486,3.5514
15.4681,3.5806
15.4750,3.6150
15.4750,4.9350
15.4681,4.9694
15.4486,4.9986
15.4194,5.0181
15.3850,5.0250
Z" /> 
<path style="fill:#FFFFFF; fill-opacity:1.0000; stroke:none;fill-rule:evenodd;"
d="M 33.5600,9.7400
33.5256,9.7331
33.4964,9.7136
33.4769,9.6844
33.4700,9.6500
33.4700,8.3300
33.4769,8.2956
33.4964,8.2664
33.5256,8.2469
33.5600,8.2400
34.2800,8.2400
34.3144,8.2469
34.3436,8.2664
34.3631,8.2956
34.3700,8.3300
34.3700,9.6500
34.3631,9.6844
34.3436,9.7136
34.3144,9.7331
34.2800,9.7400
Z" /> 
<path style="fill:#FFFFFF; fill-opacity:1.0000; stroke:none;fill-rule:evenodd;"
d="M 36.8600,9.7400
36.8256,9.7331
36.7964,9.7136
36.7769,9.6844
36.7700,9.6500
36.7700,8.3300
36.7769,8.2956
36.7964,8.2664
36.8256,8.2469
36.8600,8.2400
37.5800,8.2400
37.6144,8.2469
37.6436,8.2664
37.6631,8.2956
37.6700,8.3300
37.6700,9.6500
37.6631,9.6844
37.6436,9.7136
37.6144,9.7331
37.5800,9.7400
Z" /> 
<path style="fill:#FFFFFF; fill-opacity:1.0000; stroke:none;fill-rule:evenodd;"
d="M 36.8600,4.8400
36.8256,4.8331
36.7964,4.8136
36.7769,4.7844
36.7700,4.7500
36.7700,3.4300
36.7769,3.3956
36.7964,3.3664
36.8256,3.3469
36.8600,3.3400
37.5800,3.3400
37.6144,3.3469
37.6436,3.3664
37.6631,3.3956
37.6700,3.4300
37.6700,4.7500
37.6631,4.7844
37.6436,4.8136
37.6144,4.8331
37.5800,4.8400
Z" /> 
<path style="fill:#FFFFFF; fill-opacity:1.0000; stroke:none;fill-rule:evenodd;"
d="M 33.5600,4.8400
33.5256,4.8331
33.4964,4.8136
33.4769,4.7844
33.4700,4.7500
33.4700,3.4300
33.4769,3.3956
33.4964,3.3664
33.5256,3.3469
33.5600,3.3400
34.2800,3.3400
34.3144,3.3469
34.3436,3.3664
34.3631,3.3956
34.3700,3.4300
34.3700,4.7500
34.3631,4.7844
34.3436,4.8136
34.3144,4.8331
34.2800,4.8400
Z" /> 
<path style="fill:#FFFFFF; fill-opacity:1.0000; stroke:none;fill-rule:evenodd;"
d="M 57.4250,14.9250
58.6250,14.9250
58.6250,16.1250
57.4250,16.1250
Z" /> 
</g>
<g style="fill:#FFFFFF; fill-opacity:1.0000; stroke:none;">
<circle cx="58.0250" cy="17.1250" r="0.7000" /> 
</g>
<g style="fill:#FFFFFF; fill-opacity:1.0000; stroke:none;">
<circle cx="58.0250" cy="18.7250" r="0.7000" /> 
</g>
<g style="fill:#FFFFFF; fill-opacity:1.0000; stroke:none;">
<circle cx="58.0250" cy="20.3250" r="0.7000" /> 
<path style="fill:#FFFFFF; fill-opacity:1.0000; stroke:none;fill-rule:evenodd;"
d="M 35.1750,15.1750
36.3750,15.1750
36.3750,16.3750
35.1750,16.3750
Z" /> 
</g>
<g style="fill:#FFFFFF; fill-opacity:1.0000; stroke:none;">
<circle cx="35.7750" cy="17.3750" r="0.7000" /> 
</g>
<g style="fill:#FFFFFF; fill-opacity:1.0000; stroke:none;">
<circle cx="35.7750" cy="18.9750" r="0.7000" /> 
</g>
<g style="fill:#FFFFFF; fill-opacity:1.0000; stroke:none;">
<circle cx="35.7750" cy="20.5750" r="0.7000" /> 
<path style="fill:#FFFFFF; fill-opacity:1.0000; stroke:none;fill-rule:evenodd;"
d="M 55.6400,9.4900
55.6056,9.4831
55.5764,9.4636
55.5569,9.4344
55.5500,9.4000
55.5500,8.0800
55.5569,8.0456
55.5764,8.0164
55.6056,7.9969
55.6400,7.9900
56.3600,7.9900
56.3944,7.9969
56.4236,8.0164
56.4431,8.0456
56.4500,8.0800
56.4500,9.4000
56.4431,9.4344
56.4236,9.4636
56.3944,9.4831
56.3600,9.4900
Z" /> 
<path style="fill:#FFFFFF; fill-opacity:1.0000; stroke:none;fill-rule:evenodd;"
d="M 58.9400,9.4900
58.9056,9.4831
58.8764,9.4636
58.8569,9.4344
58.8500,9.4000
58.8500,8.0800
58.8569,8.0456
58.8764,8.0164
58.9056,7.9969
58.9400,7.9900
59.6600,7.9900
59.6944,7.9969
59.7236,8.0164
59.7431,8.0456
59.7500,8.0800
59.7500,9.4000
59.7431,9.4344
59.7236,9.4636
59.6944,9.4831
59.6600,9.4900
Z" /> 
<path style="fill:#FFFFFF; fill-opacity:1.0000; stroke:none;fill-rule:evenodd;"
d="M 58.9400,4.5900
58.9056,4.5831
58.8764,4.5636
58.8569,4.5344
58.8500,4.5000
58.8500,3.1800
58.8569,3.1456
58.8764,3.1164
58.9056,3.0969
58.9400,3.0900
59.6600,3.0900
59.6944,3.0969
59.7236,3.1164
59.7431,3.1456
59.7500,3.1800
59.7500,4.5000
59.7431,4.5344
59.7236,4.5636
59.6944,4.5831
59.6600,4.5900
Z" /> 
<path style="fill:#FFFFFF; fill-opacity:1.0000; stroke:none;fill-rule:evenodd;"
d="M 55.6400,4.5900
55.6056,4.5831
55.5764,4.5636
55.5569,4.5344
55.5500,4.5000
55.5500,3.1800
55.5569,3.1456
55.5764,3.1164
55.6056,3.0969
55.6400,3.0900
56.3600,3.0900
56.3944,3.0969
56.4236,3.1164
56.4431,3.1456
56.4500,3.1800
56.4500,4.5000
56.4431,4.5344
56.4236,4.5636
56.3944,4.5831
56.3600,4.5900
Z" /> 
<path style="fill:#FFFFFF; fill-opacity:1.0000; stroke:none;fill-rule:evenodd;"
d="M 4.0850,14.6650
2.3850,14.6650
2.3850,12.9650
4.0850,12.9650
Z" /> 
</g>
<g style="fill:#FFFFFF; fill-opacity:1.0000; stroke:none;">
<circle cx="3.2350" cy="11.2750" r="0.8500" /> 
</g>
<g style="fill:#FFFFFF; fill-opacity:1.0000; stroke:none;">
<circle cx="5.7750" cy="13.8150" r="0.8500" /> 
</g>
<g style="fill:#FFFFFF; fill-opacity:1.0000; stroke:none;">
<circle cx="5.7750" cy="11.2750" r="0.8500" /> 
<path style="fill:#FFFFFF; fill-opacity:1.0000; stroke:none;fill-rule:evenodd;"
d="M 17.4250,15.4250
18.6250,15.4250
18.6250,16.6250
17.4250,16.6250
Z" /> 
</g>
<g style="fill:#FFFFFF; fill-opacity:1.0000; stroke:none;">
<circle cx="18.0250" cy="17.6250" r="0.7000" /> 
</g>
<g style="fill:#FFFFFF; fill-opacity:1.0000; stroke:none;">
<circle cx="18.0250" cy="19.2250" r="0.7000" /> 
</g>
<g style="fill:#FFFFFF; fill-opacity:1.0000; stroke:none;">
<circle cx="18.0250" cy="20.8250" r="0.7000" /> 
</g>
<g style="fill:none; 
stroke:#FFFFFF; stroke-width:0.4000; stroke-opacity:1; 
stroke-linecap:round; stroke-linejoin:round;">
<path d="M30.0900 4.0900
L33.9200 4.0900
" />
<path d="M21.6750 9.1750
L21.7750 9.2750
" />
<path d="M18.3250 9.1750
L21.6750 9.1750
" />
<path d="M27.0250 4.0250
L30.0250 4.0250
" />
<path d="M30.0250 4.0250
L30.0900 4.0900
" />
<path d="M21.7750 9.2750
L27.0250 4.0250
" />
<path d="M52.9650 11.7750
L56.0000 8.7400
" />
<path d="M52.0250 11.7750
L55.7750 15.5250
" />
<path d="M31.1350 11.7750
L33.9200 8.9900
" />
<path d="M52.0250 11.7750
L52.9650 11.7750
" />
<path d="M55.7750 15.5250
L58.0250 15.5250
" />
<path d="M12.5250 11.6750
L15.0250 9.1750
" />
<path d="M31.1350 11.7750
L31.7750 11.7750
" />
<path d="M10.2750 11.7750
L12.5250 11.7750
" />
<path d="M31.7750 11.7750
L35.7750 15.7750
" />
<path d="M8.2350 13.8150
L10.2750 11.7750
" />
<path d="M5.7750 13.8150
L8.2350 13.8150
" />
<path d="M12.5250 11.7750
L12.7750 11.7750
" />
<path d="M12.7750 11.7750
L30.7750 11.7750
" />
<path d="M12.5250 11.7750
L12.5250 11.6750
" />
<path d="M30.7750 11.7750
L31.1350 11.7750
" />
<path d="M12.7750 11.7750
L17.0250 16.0250
" />
<path d="M30.7750 11.7750
L52.0250 11.7750
" />
<path d="M17.0250 16.0250
L18.0250 16.0250
" />
<path d="M12.7750 4.2750
L15.0250 4.2750
" />
<path d="M5.7750 11.2750
L12.7750 4.2750
" />
<path d="M37.2200 8.9900
L45.2400 8.9900
" />
<path d="M52.2750 3.7750
L52.3400 3.8400
" />
<path d="M51.0250 3.7750
L52.2750 3.7750
" />
<path d="M45.5250 9.2750
L51.0250 3.7750
" />
<path d="M45.2400 8.9900
L45.5250 9.2750
" />
<path d="M52.3400 3.8400
L56.0000 3.8400
" />
<path d="M15.2250 18.0250
L18.0250 20.8250
" />
<path d="M7.4450 18.0250
L15.2250 18.0250
" />
<path d="M3.2350 13.8150
L7.4450 18.0250
" />
<path style="fill:#FFFFFF; fill-opacity:1.0000; stroke:none;fill-rule:evenodd;"
d="M 12.5005,12.4952
12.5212,12.5118
16.5785,16.5691
16.5785,16.5691
16.6932,16.6458
16.7065,16.6513
16.9751,17.0412
16.9125,17.1642
16.8541,17.3439
16.8245,17.5305
16.8245,17.7195
16.8541,17.9061
16.9125,18.0858
16.9982,18.2542
17.0697,18.3525
17.0780,18.3758
17.0901,18.3972
17.0895,18.4081
17.0932,18.4183
17.0876,18.4424
17.0862,18.4670
17.0784,18.4817
17.0773,18.4864
17.0698,18.4982
17.0213,18.5650
16.7557,18.5650
15.6715,17.4809
15.6715,17.4809
15.5568,17.4042
15.4293,17.3514
15.4293,17.3514
15.2940,17.3245
15.2940,17.3245
15.2940,17.3245
7.7865,17.3245
7.7195,17.3048
7.6988,17.2882
6.4106,16.0000
6.0250,15.2750
7.8478,14.5155
8.3040,14.5155
8.3950,14.4974
8.4393,14.4886
8.5031,14.4622
8.5668,14.4358
8.5668,14.4358
8.5668,14.4358
8.6815,14.3591
9.0090,14.0317
9.0250,14.0250
10.5494,12.5006
10.5902,12.4783
10.6165,12.4755
12.4335,12.4755
Z" /> 
<path style="fill:#FFFFFF; fill-opacity:1.0000; stroke:none;fill-rule:evenodd;"
d="M 4.3503,12.0367
4.3503,12.0367
4.3896,11.9826
4.3942,11.9735
4.4422,11.9227
4.5100,11.9059
4.5762,11.9284
4.6152,11.9735
4.6199,11.9828
4.7449,12.1548
4.8952,12.3051
5.0672,12.4300
5.0759,12.4345
5.1267,12.4825
5.1435,12.5503
5.1210,12.6164
5.0759,12.6555
5.0672,12.6599
4.8952,12.7849
4.7817,12.8984
4.7203,12.9319
4.6507,12.9269
4.5947,12.8851
4.5778,12.8541
4.5288,12.7227
4.5288,12.7227
4.4425,12.6075
4.4425,12.6075
4.3273,12.5212
4.3273,12.5212
4.1925,12.4709
4.1925,12.4709
4.1329,12.4645
4.1329,12.4645
4.1329,12.4645
4.1329,12.4645
4.1223,12.4645
4.0553,12.4448
4.0346,12.4282
3.3644,11.7580
3.4280,11.7409
3.5420,11.6751
3.6351,11.5820
3.7009,11.4680
3.7180,11.4044
Z" /> 
<path style="fill:#FFFFFF; fill-opacity:1.0000; stroke:none;fill-rule:evenodd;"
d="M 69.4675,0.5452
69.5133,0.5980
69.5245,0.6495
69.5245,24.4005
69.5048,24.4675
69.4520,24.5133
69.4005,24.5245
0.6495,24.5245
0.5825,24.5048
0.5367,24.4520
0.5255,24.4005
0.5255,22.1439
4.0245,22.1439
4.0245,22.4061
4.0454,22.5651
4.0587,22.6661
4.0802,22.7462
4.1266,22.9194
4.1266,22.9194
4.2270,23.1617
4.2270,23.1617
4.3581,23.3888
4.5177,23.5969
4.5177,23.5969
4.7031,23.7823
4.7031,23.7823
4.9112,23.9419
5.1383,24.0730
5.1383,24.0730
5.3806,24.1734
5.3806,24.1734
5.6339,24.2413
5.8939,24.2755
5.8939,24.2755
6.1561,24.2755
6.1561,24.2755
6.4161,24.2413
6.6694,24.1734
6.9117,24.0730
7.1388,23.9419
7.3469,23.7823
7.3469,23.7823
7.3469,23.7823
7.5323,23.5969
7.5323,23.5969
7.5323,23.5969
7.6919,23.3888
7.8230,23.1617
7.9234,22.9194
7.9913,22.6661
8.0255,22.4061
8.0255,22.1439
7.9913,21.8839
7.9234,21.6306
7.9202,21.6230
7.8230,21.3883
7.8230,21.3883
7.6919,21.1612
7.5694,21.0016
7.5323,20.9531
7.5323,20.9531
7.5323,20.9531
7.3469,20.7677
7.3469,20.7677
7.1388,20.6081
6.9117,20.4770
6.9117,20.4770
6.6694,20.3766
6.6694,20.3766
6.6694,20.3766
6.4161,20.3087
6.3583,20.3011
6.1561,20.2745
6.1561,20.2745
5.8939,20.2745
5.8939,20.2745
5.6628,20.3049
5.6339,20.3087
5.4270,20.3642
5.3806,20.3766
5.3806,20.3766
5.1383,20.4770
5.1383,20.4770
4.9112,20.6081
4.7031,20.7677
4.5177,20.9531
4.3581,21.1612
4.2270,21.3883
4.2270,21.3883
4.1266,21.6306
4.1266,21.6306
4.0587,21.8839
4.0245,22.1439
0.5255,22.1439
0.5255,12.9171
1.8845,12.9171
1.8845,14.7129
1.8845,14.7129
1.8909,14.7725
1.9412,14.9073
1.9412,14.9073
2.0275,15.0225
2.0275,15.0225
2.1427,15.1088
2.1427,15.1088
2.2775,15.1591
2.2775,15.1591
2.2844,15.1598
2.3371,15.1655
3.5435,15.1655
3.6105,15.1852
3.6312,15.2018
6.9985,18.5691
6.9985,18.5691
7.1132,18.6458
7.2331,18.6954
7.2407,18.6986
7.2407,18.6986
7.2407,18.6986
7.3760,18.7255
7.3760,18.7255
7.3760,18.7255
14.8835,18.7255
14.9505,18.7452
14.9712,18.7618
16.7956,20.5863
16.8291,20.6476
16.8304,20.6933
16.8245,20.7305
16.8245,20.9195
16.8541,21.1061
16.9125,21.2858
16.9675,21.3939
16.9982,21.4542
17.1093,21.6071
17.2429,21.7407
17.3958,21.8518
17.4588,21.8839
17.5642,21.9375
17.5642,21.9375
17.5642,21.9375
17.6605,21.9688
17.7439,21.9959
17.9305,22.0255
17.9305,22.0255
18.1195,22.0255
18.3061,21.9959
18.4858,21.9375
18.6542,21.8518
18.8071,21.7407
18.9407,21.6071
19.0518,21.4542
19.1375,21.2858
19.1959,21.1061
19.2042,21.0538
19.2255,20.9195
19.2255,20.7305
19.1959,20.5439
19.1375,20.3642
19.0919,20.2745
19.0518,20.1958
18.9803,20.0975
18.9568,20.0317
18.9727,19.9636
18.9803,19.9517
19.0513,19.8539
19.1371,19.6856
19.1955,19.5060
19.2250,19.3194
19.2250,19.1306
19.1955,18.9440
19.1371,18.7644
19.0513,18.5961
18.9803,18.4983
18.9568,18.4325
18.9727,18.3644
18.9803,18.3525
19.0000,18.3255
19.0518,18.2542
19.1375,18.0858
19.1959,17.9061
19.2044,17.8525
19.2255,17.7195
19.2255,17.5305
19.1959,17.3439
19.1375,17.1642
19.0548,17.0017
19.0419,16.9330
19.0660,16.8711
19.0688,16.8673
19.1191,16.7325
19.1255,16.6729
19.1255,15.3771
19.1191,15.3175
19.1185,15.3159
19.0688,15.1827
19.0688,15.1827
18.9825,15.0675
18.9825,15.0675
18.8673,14.9812
18.8673,14.9812
18.7325,14.9309
18.7325,14.9309
18.6729,14.9245
18.6729,14.9245
18.6729,14.9245
18.6729,14.9245
17.3771,14.9245
17.3771,14.9245
17.3175,14.9309
17.1827,14.9812
17.1827,14.9812
17.1481,15.0071
17.0827,15.0315
17.0144,15.0166
16.9861,14.9955
14.6778,12.6872
14.6444,12.6259
14.6493,12.5562
14.6912,12.5002
14.7567,12.4758
14.7655,12.4755
30.7060,12.4755
31.0660,12.4755
31.0660,12.4755
31.4335,12.4755
31.5005,12.4952
31.5212,12.5118
34.6382,15.6288
34.6717,15.6902
34.6745,15.7165
34.6745,16.4229
34.6745,16.4229
34.6809,16.4825
34.7312,16.6173
34.7312,16.6173
34.7340,16.6211
34.7584,16.6866
34.7452,16.7517
34.6625,16.9142
34.6041,17.0939
34.5745,17.2805
34.5745,17.4695
34.6041,17.6561
34.6625,17.8358
34.7482,18.0042
34.8197,18.1025
34.8432,18.1683
34.8273,18.2364
34.8197,18.2483
34.7487,18.3461
34.6629,18.5144
34.6045,18.6940
34.5750,18.8806
34.5750,19.0694
34.6045,19.2560
34.6629,19.4356
34.7487,19.6039
34.8197,19.7017
34.8432,19.7675
34.8273,19.8356
34.8197,19.8475
34.7482,19.9458
34.6625,20.1142
34.6041,20.2939
34.5745,20.4805
34.5745,20.6695
34.6041,20.8561
34.6625,21.0358
34.7124,21.1339
34.7482,21.2042
34.8593,21.3571
34.9929,21.4907
35.1458,21.6018
35.2023,21.6306
35.3142,21.6875
35.3142,21.6875
35.3142,21.6875
35.4105,21.7188
35.4939,21.7459
35.6805,21.7755
35.6805,21.7755
35.8695,21.7755
36.0561,21.7459
36.0723,21.7407
36.2358,21.6875
36.4042,21.6018
36.5571,21.4907
36.6907,21.3571
36.8018,21.2042
36.8875,21.0358
36.9459,20.8561
36.9755,20.6695
36.9755,20.4805
36.9459,20.2939
36.8875,20.1142
36.8423,20.0253
36.8018,19.9458
36.7303,19.8475
36.7068,19.7817
36.7227,19.7136
36.7303,19.7017
36.8013,19.6039
36.8871,19.4356
36.9455,19.2560
36.9750,19.0694
36.9750,18.8806
36.9455,18.6940
36.8871,18.5144
36.8013,18.3461
36.7303,18.2483
36.7068,18.1825
36.7227,18.1144
36.7303,18.1025
36.7752,18.0407
36.8018,18.0042
36.8875,17.8358
36.9459,17.6561
36.9755,17.4695
36.9755,17.2805
36.9459,17.0939
36.9043,16.9657
36.8875,16.9142
36.8875,16.9142
36.8875,16.9142
36.8048,16.7517
36.7919,16.6830
36.8160,16.6211
36.8188,16.6173
36.8691,16.4825
36.8755,16.4229
36.8755,15.1271
36.8691,15.0675
36.8687,15.0666
36.8188,14.9327
36.8188,14.9327
36.7325,14.8175
36.7325,14.8175
36.6173,14.7312
36.6173,14.7312
36.4825,14.6809
36.4825,14.6809
36.4229,14.6745
36.4229,14.6745
36.4229,14.6745
36.4229,14.6745
35.7165,14.6745
35.6495,14.6548
35.6288,14.6382
33.6778,12.6872
33.6444,12.6259
33.6493,12.5562
33.6912,12.5002
33.7567,12.4758
33.7655,12.4755
51.6835,12.4755
51.7505,12.4952
51.7712,12.5118
55.3285,16.0691
55.3285,16.0691
55.4432,16.1458
55.5707,16.1986
55.5707,16.1986
55.5707,16.1986
55.5707,16.1986
55.7060,16.2255
55.7060,16.2255
55.7060,16.2255
56.8422,16.2255
56.8599,16.2307
56.8784,16.2309
56.8928,16.2403
56.9092,16.2452
56.9214,16.2592
56.9368,16.2693
56.9507,16.2930
56.9550,16.2980
56.9556,16.2992
56.9571,16.3027
56.9812,16.3673
56.9924,16.3823
56.9981,16.3951
57.0009,16.4164
57.0084,16.4366
57.0055,16.4510
57.0073,16.4644
56.9994,16.4812
56.9952,16.5017
56.9125,16.6642
56.8541,16.8439
56.8245,17.0305
56.8245,17.2195
56.8541,17.4061
56.9125,17.5858
56.9982,17.7542
57.0697,17.8525
57.0932,17.9183
57.0773,17.9864
57.0697,17.9983
56.9987,18.0961
56.9129,18.2644
56.8545,18.4440
56.8250,18.6306
56.8250,18.8194
56.8545,19.0060
56.9129,19.1856
56.9987,19.3539
57.0697,19.4517
57.0932,19.5175
57.0773,19.5856
57.0697,19.5975
56.9982,19.6958
56.9125,19.8642
56.8541,20.0439
56.8245,20.2305
56.8245,20.4195
56.8541,20.6061
56.9125,20.7858
56.9806,20.9195
56.9982,20.9542
57.1093,21.1071
57.2429,21.2407
57.3958,21.3518
57.4675,21.3883
57.5642,21.4375
57.5642,21.4375
57.5642,21.4375
57.6605,21.4688
57.7439,21.4959
57.9305,21.5255
57.9305,21.5255
58.1195,21.5255
58.3061,21.4959
58.3223,21.4907
58.4858,21.4375
58.5715,21.3939
64.2745,21.3939
64.2745,21.6561
64.2856,21.7407
64.3087,21.9161
64.3738,22.1591
64.3766,22.1694
64.3766,22.1694
64.4770,22.4117
64.4770,22.4117
64.6081,22.6388
64.7677,22.8469
64.7677,22.8469
64.9531,23.0323
64.9531,23.0323
65.1612,23.1919
65.3883,23.3230
65.3883,23.3230
65.5471,23.3888
65.6306,23.4234
65.8839,23.4913
66.1439,23.5255
66.1439,23.5255
66.4061,23.5255
66.4061,23.5255
66.6661,23.4913
66.9194,23.4234
67.1617,23.3230
67.3888,23.1919
67.5969,23.0323
67.5969,23.0323
67.5969,23.0323
67.7823,22.8469
67.7823,22.8469
67.7823,22.8469
67.9419,22.6388
68.0730,22.4117
68.1734,22.1694
68.2413,21.9161
68.2755,21.6561
68.2755,21.3939
68.2413,21.1339
68.1734,20.8806
68.1633,20.8561
68.0730,20.6383
68.0730,20.6383
67.9419,20.4112
67.7823,20.2031
67.7823,20.2031
67.5969,20.0177
67.5969,20.0177
67.3888,19.8581
67.1617,19.7270
67.1617,19.7270
66.9194,19.6266
66.9194,19.6266
66.9194,19.6266
66.6661,19.5587
66.5864,19.5482
66.4061,19.5245
66.4061,19.5245
66.1439,19.5245
66.1439,19.5245
65.9128,19.5549
65.8839,19.5587
65.7152,19.6039
65.6306,19.6266
65.6306,19.6266
65.3883,19.7270
65.3883,19.7270
65.1612,19.8581
64.9531,20.0177
64.7677,20.2031
64.6081,20.4112
64.4770,20.6383
64.4770,20.6383
64.3766,20.8806
64.3766,20.8806
64.3159,21.1071
64.3087,21.1339
64.2745,21.3939
58.5715,21.3939
58.6542,21.3518
58.8071,21.2407
58.9407,21.1071
59.0518,20.9542
59.1375,20.7858
59.1959,20.6061
59.2058,20.5439
59.2255,20.4195
59.2255,20.2305
59.1959,20.0439
59.1641,19.9458
59.1375,19.8642
59.1375,19.8642
59.1375,19.8642
59.0676,19.7270
59.0518,19.6958
58.9803,19.5975
58.9568,19.5317
58.9727,19.4636
58.9803,19.4517
59.0513,19.3539
59.1371,19.1856
59.1955,19.0060
59.2250,18.8194
59.2250,18.6306
59.1955,18.4440
59.1371,18.2644
59.0513,18.0961
58.9803,17.9983
58.9568,17.9325
58.9727,17.8644
58.9803,17.8525
59.0518,17.7542
59.0518,17.7542
59.0518,17.7542
59.1375,17.5858
59.1959,17.4061
59.2058,17.3439
59.2255,17.2195
59.2255,17.0305
59.1959,16.8439
59.1522,16.7093
59.1375,16.6642
59.1375,16.6642
59.1375,16.6642
59.0548,16.5017
59.0419,16.4330
59.0660,16.3711
59.0688,16.3673
59.1191,16.2325
59.1255,16.1729
59.1255,14.8771
59.1191,14.8175
59.1144,14.8048
59.0688,14.6827
59.0688,14.6827
58.9825,14.5675
58.9825,14.5675
58.8673,14.4812
58.8673,14.4812
58.7325,14.4309
58.7325,14.4309
58.6729,14.4245
58.6729,14.4245
58.6729,14.4245
58.6729,14.4245
57.3771,14.4245
57.3771,14.4245
57.3175,14.4309
57.1827,14.4812
57.1827,14.4812
57.0675,14.5675
57.0675,14.5675
56.9812,14.6827
56.9812,14.6827
56.9584,14.7438
56.9165,14.7998
56.8511,14.8242
56.8422,14.8245
56.1165,14.8245
56.0495,14.8048
56.0288,14.7882
53.5733,12.3327
53.5399,12.2714
53.5448,12.2017
53.5733,12.1573
55.7038,10.0268
55.7652,9.9933
55.7915,9.9905
56.3987,9.9905
56.5141,9.9753
56.5141,9.9753
56.5142,9.9753
56.6578,9.9158
56.7811,9.8211
56.8758,9.6978
56.9353,9.5542
56.9505,9.4387
56.9505,8.0413
56.9505,8.0413
58.3495,8.0413
58.3495,9.4387
58.3647,9.5541
58.3647,9.5542
58.4204,9.6887
58.4242,9.6978
58.5189,9.8211
58.6422,9.9158
58.7858,9.9753
58.9013,9.9905
59.6987,9.9905
59.6987,9.9905
59.8141,9.9753
59.8141,9.9753
59.8142,9.9753
59.9578,9.9158
60.0811,9.8211
60.1758,9.6978
60.2353,9.5542
60.2505,9.4387
60.2505,8.0413
60.2505,8.0413
60.2505,8.0413
60.2353,7.9259
60.2353,7.9258
60.2353,7.9258
60.1758,7.7822
60.0811,7.6589
59.9578,7.5642
59.9578,7.5642
59.8142,7.5047
59.8141,7.5047
59.6987,7.4895
58.9013,7.4895
58.7859,7.5047
58.7858,7.5047
58.6422,7.5642
58.5189,7.6589
58.4242,7.7822
58.3647,7.9258
58.3647,7.9258
58.3495,8.0413
56.9505,8.0413
56.9505,8.0413
56.9353,7.9259
56.9353,7.9258
56.9353,7.9258
56.8758,7.7822
56.7811,7.6589
56.6578,7.5642
56.6578,7.5642
56.5142,7.5047
56.5141,7.5047
56.3987,7.4895
55.6013,7.4895
55.4859,7.5047
55.4858,7.5047
55.3422,7.5642
55.2189,7.6589
55.1242,7.7822
55.0647,7.9258
55.0647,7.9258
55.0495,8.0413
55.0495,8.6485
55.0298,8.7155
55.0132,8.7362
52.7112,11.0382
52.6498,11.0717
52.6235,11.0745
33.1255,11.0745
33.0585,11.0548
33.0127,11.0020
33.0028,10.9329
33.0318,10.8693
33.0378,10.8628
33.6238,10.2768
33.6852,10.2433
33.7115,10.2405
34.3187,10.2405
34.4341,10.2253
34.4341,10.2253
34.4342,10.2253
34.5778,10.1658
34.7011,10.0711
34.7958,9.9478
34.8553,9.8042
34.8705,9.6887
34.8705,8.2913
34.8705,8.2913
36.2695,8.2913
36.2695,9.6887
36.2847,9.8041
36.2847,9.8042
36.3348,9.9250
36.3442,9.9478
36.4389,10.0711
36.5622,10.1658
36.7058,10.2253
36.8213,10.2405
37.6187,10.2405
37.6187,10.2405
37.7341,10.2253
37.7341,10.2253
37.7342,10.2253
37.8778,10.1658
38.0011,10.0711
38.0958,9.9478
38.1553,9.8042
38.1561,9.7983
38.1843,9.7344
38.2427,9.6959
38.2790,9.6905
44.8985,9.6905
44.9655,9.7102
44.9862,9.7268
45.0785,9.8191
45.1932,9.8958
45.1932,9.8958
45.3188,9.9478
45.3207,9.9486
45.3207,9.9486
45.3207,9.9486
45.4560,9.9755
45.4560,9.9755
45.5940,9.9755
45.7069,9.9530
45.7293,9.9486
45.8116,9.9145
45.8568,9.8958
45.8568,9.8958
45.8568,9.8958
45.9715,9.8191
46.0691,9.7215
51.2788,4.5118
51.3402,4.4783
51.3665,4.4755
52.0191,4.4755
52.0665,4.4849
52.1357,4.5136
52.1357,4.5136
52.1357,4.5136
52.2710,4.5405
52.2710,4.5405
52.2710,4.5405
54.9410,4.5405
55.0080,4.5602
55.0538,4.6130
55.0639,4.6483
55.0647,4.6541
55.0647,4.6542
55.1241,4.7975
55.1242,4.7978
55.2189,4.9211
55.3422,5.0158
55.4858,5.0753
55.6013,5.0905
56.3987,5.0905
56.3987,5.0905
56.5141,5.0753
56.5141,5.0753
56.5142,5.0753
56.6578,5.0158
56.7811,4.9211
56.8758,4.7978
56.9353,4.6542
56.9505,4.5387
56.9505,4.5387
58.3500,4.5387
58.3652,4.6540
58.3652,4.6540
58.4246,4.7975
58.4246,4.7975
58.5192,4.9208
58.6425,5.0154
58.7860,5.0748
58.7860,5.0748
58.9013,5.0900
59.0500,5.0900
59.5500,5.0900
59.6987,5.0900
59.8140,5.0748
59.8140,5.0748
59.9575,5.0154
59.9575,5.0154
60.0808,4.9208
60.1754,4.7975
60.1754,4.7975
60.2348,4.6540
60.2348,4.6540
60.2500,4.5387
60.2500,4.0900
59.5500,4.0900
59.5500,5.0900
59.0500,5.0900
59.0500,4.0900
58.3500,4.0900
58.3500,4.5387
56.9505,4.5387
56.9505,3.8400
56.9505,3.6439
64.0245,3.6439
64.0245,3.9061
64.0439,4.0538
64.0587,4.1661
64.1238,4.4091
64.1266,4.4194
64.1266,4.4194
64.2270,4.6617
64.2270,4.6617
64.3581,4.8888
64.5177,5.0969
64.5177,5.0969
64.7031,5.2823
64.7031,5.2823
64.9112,5.4419
65.1383,5.5730
65.1383,5.5730
65.2971,5.6388
65.3806,5.6734
65.6339,5.7413
65.8939,5.7755
65.8939,5.7755
66.1561,5.7755
66.1561,5.7755
66.4161,5.7413
66.6694,5.6734
66.9117,5.5730
67.1388,5.4419
67.3469,5.2823
67.3469,5.2823
67.3469,5.2823
67.5323,5.0969
67.5323,5.0969
67.5323,5.0969
67.6919,4.8888
67.8230,4.6617
67.8262,4.6541
67.8703,4.5476
67.9234,4.4194
67.9913,4.1661
68.0255,3.9061
68.0255,3.6439
67.9913,3.3839
67.9234,3.1306
67.9089,3.0956
67.8230,2.8883
67.8230,2.8883
67.6919,2.6612
67.5323,2.4531
67.5323,2.4531
67.3469,2.2677
67.3469,2.2677
67.1388,2.1081
66.9117,1.9770
66.9117,1.9770
66.6694,1.8766
66.6694,1.8766
66.6694,1.8766
66.4161,1.8087
66.3583,1.8011
66.1561,1.7745
66.1561,1.7745
65.8939,1.7745
65.8939,1.7745
65.6628,1.8049
65.6339,1.8087
65.3806,1.8766
65.3806,1.8766
65.1383,1.9770
65.1383,1.9770
64.9112,2.1081
64.7031,2.2677
64.5177,2.4531
64.3581,2.6612
64.2270,2.8883
64.2270,2.8883
64.1266,3.1306
64.1266,3.1306
64.0598,3.3801
64.0587,3.3839
64.0245,3.6439
56.9505,3.6439
56.9505,3.1413
58.3500,3.1413
58.3500,3.5900
59.0500,3.5900
59.5500,3.5900
60.2500,3.5900
60.2500,3.1413
60.2348,3.0260
60.2348,3.0260
60.1754,2.8825
60.1754,2.8825
60.0808,2.7592
59.9575,2.6646
59.8140,2.6052
59.8140,2.6052
59.6987,2.5900
59.5500,2.5900
59.5500,3.5900
59.0500,3.5900
59.0500,2.5900
58.9013,2.5900
58.7860,2.6052
58.7860,2.6052
58.6425,2.6646
58.6425,2.6646
58.5192,2.7592
58.4246,2.8825
58.4246,2.8825
58.3652,3.0260
58.3652,3.0260
58.3500,3.1413
56.9505,3.1413
56.9505,3.1413
56.9353,3.0259
56.9353,3.0258
56.9353,3.0258
56.8758,2.8822
56.7811,2.7589
56.6578,2.6642
56.6578,2.6642
56.5142,2.6047
56.5141,2.6047
56.3987,2.5895
55.6013,2.5895
55.4859,2.6047
55.4858,2.6047
55.3422,2.6642
55.3422,2.6642
55.3422,2.6642
55.2189,2.7589
55.1427,2.8581
55.1242,2.8822
55.0647,3.0258
55.0647,3.0258
55.0639,3.0317
55.0357,3.0956
54.9773,3.1341
54.9410,3.1395
52.5959,3.1395
52.5485,3.1301
52.4793,3.1014
52.4793,3.1014
52.3440,3.0745
52.3440,3.0745
52.3440,3.0745
51.0940,3.0745
50.9560,3.0745
50.9560,3.0745
50.8207,3.1014
50.8207,3.1014
50.6932,3.1542
50.5785,3.2309
45.5317,8.2776
45.4704,8.3111
45.4199,8.3116
45.3090,8.2895
45.3090,8.2895
45.3090,8.2895
38.2790,8.2895
38.2120,8.2698
38.1662,8.2170
38.1561,8.1817
38.1553,8.1759
38.1553,8.1759
38.1553,8.1758
38.0958,8.0322
38.0011,7.9089
37.8778,7.8142
37.8778,7.8142
37.7342,7.7547
37.7341,7.7547
37.6187,7.7395
36.8213,7.7395
36.7059,7.7547
36.7058,7.7547
36.5622,7.8142
36.5622,7.8142
36.5622,7.8142
36.4389,7.9089
36.3695,7.9992
36.3442,8.0322
36.2847,8.1758
36.2847,8.1759
36.2695,8.2913
34.8705,8.2913
34.8705,8.2913
34.8553,8.1759
34.8553,8.1759
34.8553,8.1758
34.7958,8.0322
34.7011,7.9089
34.5778,7.8142
34.5778,7.8142
34.4342,7.7547
34.4341,7.7547
34.3187,7.7395
33.5213,7.7395
33.4059,7.7547
33.4058,7.7547
33.2622,7.8142
33.2622,7.8142
33.2622,7.8142
33.1389,7.9089
33.0695,7.9992
33.0442,8.0322
32.9847,8.1758
32.9847,8.1759
32.9695,8.2913
32.9695,8.8985
32.9498,8.9655
32.9332,8.9862
30.8812,11.0382
30.8198,11.0717
30.7935,11.0745
14.4155,11.0745
14.3485,11.0548
14.3027,11.0020
14.2928,10.9329
14.3218,10.8693
14.3278,10.8628
14.7288,10.4618
14.7902,10.4283
14.8165,10.4255
15.4237,10.4255
15.5391,10.4103
15.5391,10.4103
15.5392,10.4103
15.6828,10.3508
15.8061,10.2561
15.9008,10.1328
15.9603,9.9892
15.9755,9.8737
15.9755,8.4763
15.9755,8.4763
17.3745,8.4763
17.3745,9.8737
17.3897,9.9891
17.3897,9.9892
17.4439,10.1200
17.4492,10.1328
17.5439,10.2561
17.6672,10.3508
17.8108,10.4103
17.9263,10.4255
18.7237,10.4255
18.7237,10.4255
18.8391,10.4103
18.8391,10.4103
18.8392,10.4103
18.9828,10.3508
19.1061,10.2561
19.2008,10.1328
19.2603,9.9892
19.2611,9.9833
19.2893,9.9194
19.3477,9.8809
19.3840,9.8755
21.3752,9.8755
21.4259,9.8863
21.4355,9.8906
21.4432,9.8958
21.4915,9.9158
21.5707,9.9486
21.5860,9.9516
21.5931,9.9530
21.5931,9.9530
21.5931,9.9530
21.6496,9.9643
21.7060,9.9755
21.7060,9.9755
21.8440,9.9755
21.9569,9.9530
21.9793,9.9486
22.0616,9.9145
22.1068,9.8958
22.1068,9.8958
22.1068,9.8958
22.2215,9.8191
27.2788,4.7618
27.3402,4.7283
27.3665,4.7255
29.7691,4.7255
29.8165,4.7349
29.8857,4.7636
29.8857,4.7636
29.8857,4.7636
30.0210,4.7905
30.0210,4.7905
30.0210,4.7905
32.8610,4.7905
32.9280,4.8102
32.9738,4.8630
32.9839,4.8983
32.9847,4.9041
32.9847,4.9042
33.0441,5.0475
33.0442,5.0478
33.1389,5.1711
33.2622,5.2658
33.4058,5.3253
33.5213,5.3405
34.3187,5.3405
34.3187,5.3405
34.4341,5.3253
34.4341,5.3253
34.4342,5.3253
34.5778,5.2658
34.7011,5.1711
34.7958,5.0478
34.8553,4.9042
34.8705,4.7887
34.8705,4.7887
36.2700,4.7887
36.2852,4.9040
36.2852,4.9040
36.3446,5.0475
36.3446,5.0475
36.4392,5.1708
36.5625,5.2654
36.7060,5.3248
36.7060,5.3248
36.8213,5.3400
36.9700,5.3400
37.4700,5.3400
37.6187,5.3400
37.7340,5.3248
37.7340,5.3248
37.8775,5.2654
37.8775,5.2654
38.0008,5.1708
38.0954,5.0475
38.0954,5.0475
38.1548,4.9040
38.1548,4.9040
38.1700,4.7887
38.1700,4.3400
37.4700,4.3400
37.4700,5.3400
36.9700,5.3400
36.9700,4.3400
36.2700,4.3400
36.2700,4.7887
34.8705,4.7887
34.8705,4.0900
34.8705,3.3913
36.2700,3.3913
36.2700,3.8400
36.9700,3.8400
37.4700,3.8400
38.1700,3.8400
38.1700,3.3913
38.1548,3.2760
38.1548,3.2760
38.0954,3.1325
38.0954,3.1325
38.0008,3.0092
37.8775,2.9146
37.7340,2.8552
37.7340,2.8552
37.6187,2.8400
37.4700,2.8400
37.4700,3.8400
36.9700,3.8400
36.9700,2.8400
36.8213,2.8400
36.7060,2.8552
36.7060,2.8552
36.5625,2.9146
36.5625,2.9146
36.4392,3.0092
36.3446,3.1325
36.3446,3.1325
36.2852,3.2760
36.2852,3.2760
36.2700,3.3913
34.8705,3.3913
34.8705,3.3913
34.8553,3.2759
34.8553,3.2758
34.8553,3.2758
34.7958,3.1322
34.7011,3.0089
34.5778,2.9142
34.5778,2.9142
34.4342,2.8547
34.4341,2.8547
34.3187,2.8395
33.5213,2.8395
33.4059,2.8547
33.4058,2.8547
33.2622,2.9142
33.2622,2.9142
33.2622,2.9142
33.1389,3.0089
33.0695,3.0992
33.0442,3.1322
32.9847,3.2758
32.9847,3.2758
32.9839,3.2817
32.9557,3.3456
32.8973,3.3841
32.8610,3.3895
30.3459,3.3895
30.2985,3.3801
30.2293,3.3514
30.2293,3.3514
30.0940,3.3245
30.0940,3.3245
30.0940,3.3245
26.9560,3.3245
26.9560,3.3245
26.8476,3.3461
26.8476,3.3461
26.8207,3.3514
26.8207,3.3514
26.6932,3.4042
26.5785,3.4809
26.5785,3.4809
21.6212,8.4382
21.5598,8.4717
21.5335,8.4745
19.3840,8.4745
19.3170,8.4548
19.2712,8.4020
19.2611,8.3667
19.2603,8.3609
19.2603,8.3609
19.2603,8.3608
19.2008,8.2172
19.1061,8.0939
18.9828,7.9992
18.9828,7.9992
18.8392,7.9397
18.8391,7.9397
18.7237,7.9245
17.9263,7.9245
17.8109,7.9397
17.8108,7.9397
17.6672,7.9992
17.6672,7.9992
17.6672,7.9992
17.5439,8.0939
17.4809,8.1758
17.4492,8.2172
17.3897,8.3608
17.3897,8.3608
17.3745,8.4763
15.9755,8.4763
15.9755,8.4763
15.9603,8.3609
15.9603,8.3608
15.9603,8.3608
15.9008,8.2172
15.8061,8.0939
15.6828,7.9992
15.6828,7.9992
15.5392,7.9397
15.5391,7.9397
15.4237,7.9245
14.6263,7.9245
14.5109,7.9397
14.5108,7.9397
14.3672,7.9992
14.3672,7.9992
14.3672,7.9992
14.2439,8.0939
14.1809,8.1758
14.1492,8.2172
14.0897,8.3608
14.0897,8.3608
14.0745,8.4763
14.0745,9.0835
14.0548,9.1505
14.0382,9.1712
12.1712,11.0382
12.1098,11.0717
12.0835,11.0745
10.2060,11.0745
10.0707,11.1014
10.0707,11.1014
9.9432,11.1542
9.8285,11.2309
9.8285,11.2309
7.9812,13.0782
7.9198,13.1117
7.8935,13.1145
6.9985,13.1145
6.9315,13.0948
6.8982,13.0634
6.8567,13.0062
6.8051,12.9352
6.6548,12.7849
6.4828,12.6600
6.4821,12.6596
6.4741,12.6555
6.4233,12.6075
6.4065,12.5397
6.4290,12.4736
6.4741,12.4345
6.4828,12.4301
6.6168,12.3327
6.6548,12.3051
6.6548,12.3051
6.6548,12.3051
6.8051,12.1548
6.8051,12.1548
6.8051,12.1548
6.9300,11.9828
6.9300,11.9828
6.9301,11.9828
7.0266,11.7934
7.0922,11.5912
7.1255,11.3813
7.1255,11.1687
7.1007,11.0122
7.1097,10.9429
7.1355,10.9052
13.0288,5.0118
13.0902,4.9783
13.1165,4.9755
13.9660,4.9755
14.0330,4.9952
14.0788,5.0480
14.0889,5.0833
14.0897,5.0891
14.0897,5.0892
14.1491,5.2325
14.1492,5.2328
14.2439,5.3561
14.3672,5.4508
14.5108,5.5103
14.6263,5.5255
15.4237,5.5255
15.4237,5.5255
15.5391,5.5103
15.5391,5.5103
15.5392,5.5103
15.6828,5.4508
15.8061,5.3561
15.9008,5.2328
15.9603,5.0892
15.9755,4.9737
15.9755,4.9737
17.3750,4.9737
17.3902,5.0890
17.3902,5.0890
17.4496,5.2325
17.4496,5.2325
17.5442,5.3558
17.6675,5.4504
17.8110,5.5098
17.8110,5.5098
17.9263,5.5250
18.0750,5.5250
18.5750,5.5250
18.7237,5.5250
18.8390,5.5098
18.8390,5.5098
18.9825,5.4504
18.9825,5.4504
19.1058,5.3558
19.2004,5.2325
19.2004,5.2325
19.2598,5.0890
19.2598,5.0890
19.2750,4.9737
19.2750,4.5250
18.5750,4.5250
18.5750,5.5250
18.0750,5.5250
18.0750,4.5250
17.3750,4.5250
17.3750,4.9737
15.9755,4.9737
15.9755,4.2462
15.9755,3.5763
17.3750,3.5763
17.3750,4.0250
18.0750,4.0250
18.5750,4.0250
19.2750,4.0250
19.2750,3.5763
19.2598,3.4610
19.2598,3.4610
19.2004,3.3175
19.2004,3.3175
19.1058,3.1942
18.9825,3.0996
18.8390,3.0402
18.8390,3.0402
18.7237,3.0250
18.5750,3.0250
18.5750,4.0250
18.0750,4.0250
18.0750,3.0250
17.9263,3.0250
17.8110,3.0402
17.8110,3.0402
17.6675,3.0996
17.6675,3.0996
17.5442,3.1942
17.4496,3.3175
17.4496,3.3175
17.3902,3.4610
17.3902,3.4610
17.3750,3.5763
15.9755,3.5763
15.9755,3.5763
15.9603,3.4609
15.9603,3.4608
15.9603,3.4608
15.9008,3.3172
15.8061,3.1939
15.6828,3.0992
15.6828,3.0992
15.5392,3.0397
15.5391,3.0397
15.4237,3.0245
14.6263,3.0245
14.5109,3.0397
14.5108,3.0397
14.3672,3.0992
14.3672,3.0992
14.3672,3.0992
14.2439,3.1939
14.1809,3.2758
14.1492,3.3172
14.0897,3.4608
14.0897,3.4608
14.0889,3.4667
14.0607,3.5306
14.0023,3.5691
13.9660,3.5745
12.7060,3.5745
12.5707,3.6014
12.5707,3.6014
12.4432,3.6542
12.3285,3.7309
6.1448,9.9145
6.0835,9.9480
6.0378,9.9493
5.8813,9.9245
5.6687,9.9245
5.6200,9.9322
5.4588,9.9578
5.2566,10.0234
5.0672,10.1200
4.8952,10.2449
4.7449,10.3952
4.6199,10.5672
4.6152,10.5765
4.5672,10.6273
4.4994,10.6441
4.4333,10.6215
4.3942,10.5765
4.3896,10.5675
4.3503,10.5133
4.3503,10.5133
3.7180,11.1456
3.7009,11.0820
3.6351,10.9680
3.5420,10.8749
3.4280,10.8091
3.3644,10.7920
3.9967,10.1597
3.9425,10.1204
3.7532,10.0239
3.5511,9.9582
3.3412,9.9250
3.1288,9.9250
2.9189,9.9582
2.9189,9.9582
2.7168,10.0239
2.5274,10.1204
2.4733,10.1597
2.4733,10.1597
3.1056,10.7920
3.0420,10.8091
2.9280,10.8749
2.8349,10.9680
2.7691,11.0820
2.7520,11.1456
2.1197,10.5133
2.1197,10.5133
2.0804,10.5674
1.9839,10.7568
1.9182,10.9589
1.9182,10.9589
1.8850,11.1688
1.8850,11.3812
1.9182,11.5911
1.9182,11.5911
1.9839,11.7932
2.0804,11.9825
2.1197,12.0367
2.7520,11.4044
2.7691,11.4680
2.8349,11.5820
2.9280,11.6751
3.0420,11.7409
3.1056,11.7580
2.4354,12.4282
2.3740,12.4617
2.3477,12.4645
2.3371,12.4645
2.3371,12.4645
2.2775,12.4709
2.1427,12.5212
2.1427,12.5212
2.0275,12.6075
2.0275,12.6075
1.9412,12.7227
1.9412,12.7227
1.8909,12.8575
1.8845,12.9171
1.8845,12.9171
0.5255,12.9171
0.5255,4.3939
4.0245,4.3939
4.0245,4.6561
4.0454,4.8151
4.0587,4.9161
4.1053,5.0900
4.1266,5.1694
4.1266,5.1694
4.2270,5.4117
4.2270,5.4117
4.3581,5.6388
4.5177,5.8469
4.5177,5.8469
4.7031,6.0323
4.7031,6.0323
4.9112,6.1919
5.1383,6.3230
5.1383,6.3230
5.3806,6.4234
5.3806,6.4234
5.6339,6.4913
5.8939,6.5255
5.8939,6.5255
6.1561,6.5255
6.1561,6.5255
6.4161,6.4913
6.6694,6.4234
6.9117,6.3230
7.1388,6.1919
7.3469,6.0323
7.3469,6.0323
7.3469,6.0323
7.5323,5.8469
7.5323,5.8469
7.5323,5.8469
7.6919,5.6388
7.8230,5.4117
7.9234,5.1694
7.9913,4.9161
8.0255,4.6561
8.0255,4.3939
7.9913,4.1339
7.9234,3.8806
7.8614,3.7309
7.8230,3.6383
7.8230,3.6383
7.6919,3.4112
7.5536,3.2309
7.5323,3.2031
7.5323,3.2031
7.5323,3.2031
7.3469,3.0177
7.3469,3.0177
7.1388,2.8581
6.9117,2.7270
6.9117,2.7270
6.6694,2.6266
6.6694,2.6266
6.6694,2.6266
6.4161,2.5587
6.3583,2.5511
6.1561,2.5245
6.1561,2.5245
5.8939,2.5245
5.8939,2.5245
5.6628,2.5549
5.6339,2.5587
5.3806,2.6266
5.3806,2.6266
5.1383,2.7270
5.1383,2.7270
4.9112,2.8581
4.7031,3.0177
4.5177,3.2031
4.3581,3.4112
4.2270,3.6383
4.2270,3.6383
4.1266,3.8806
4.1266,3.8806
4.0587,4.1339
4.0245,4.3939
0.5255,4.3939
0.5255,0.6495
0.5452,0.5825
0.5980,0.5367
0.6495,0.5255
69.4005,0.5255
Z" /> 
</g> 
</svg>
