<?xml version="1.0" encoding="UTF-8" standalone="no"?>
<!-- Created with Inkscape (http://www.inkscape.org/) -->

<svg
   width="159.9808mm"
   height="243.65771mm"
   viewBox="0 0 159.9808 243.65771"
   version="1.1"
   id="svg1"
   sodipodi:docname="Zeichnung.svg"
   xmlns:inkscape="http://www.inkscape.org/namespaces/inkscape"
   xmlns:sodipodi="http://sodipodi.sourceforge.net/DTD/sodipodi-0.dtd"
   xmlns="http://www.w3.org/2000/svg"
   xmlns:svg="http://www.w3.org/2000/svg">
  <sodipodi:namedview
     id="namedview1"
     pagecolor="#ffffff"
     bordercolor="#000000"
     borderopacity="0.25"
     inkscape:showpageshadow="2"
     inkscape:pageopacity="0.0"
     inkscape:pagecheckerboard="0"
     inkscape:deskcolor="#d1d1d1"
     inkscape:document-units="mm" />
  <defs
     id="defs1" />
  <g
     id="layer2"
     style="display:none"
     transform="translate(-23.010481,-20.941635)">
    <text
       xml:space="preserve"
       style="font-style:normal;font-variant:normal;font-weight:normal;font-stretch:normal;font-size:4.23333px;font-family:Bauhaus;-inkscape-font-specification:'Bauhaus, Normal';font-variant-ligatures:normal;font-variant-caps:normal;font-variant-numeric:normal;font-variant-east-asian:normal;text-align:end;text-anchor:end;fill:none;fill-opacity:0.379487;stroke:#000000;stroke-width:0.1;stroke-linecap:round;stroke-linejoin:round"
       x="54.114403"
       y="65.440681"
       id="text1"><tspan
         id="tspan1"
         style="font-style:normal;font-variant:normal;font-weight:normal;font-stretch:normal;font-size:4.23333px;font-family:Bauhaus;-inkscape-font-specification:'Bauhaus, Normal';font-variant-ligatures:normal;font-variant-caps:normal;font-variant-numeric:normal;font-variant-east-asian:normal;stroke-width:0.1"
         x="54.114403"
         y="65.440681">ESKISTAFÜNF</tspan><tspan
         style="font-style:normal;font-variant:normal;font-weight:normal;font-stretch:normal;font-size:4.23333px;font-family:Bauhaus;-inkscape-font-specification:'Bauhaus, Normal';font-variant-ligatures:normal;font-variant-caps:normal;font-variant-numeric:normal;font-variant-east-asian:normal;stroke-width:0.1"
         x="54.114403"
         y="70.732346"
         id="tspan2">    ZEHNZWANZIG</tspan><tspan
         style="font-style:normal;font-variant:normal;font-weight:normal;font-stretch:normal;font-size:4.23333px;font-family:Bauhaus;-inkscape-font-specification:'Bauhaus, Normal';font-variant-ligatures:normal;font-variant-caps:normal;font-variant-numeric:normal;font-variant-east-asian:normal;stroke-width:0.1"
         x="54.114403"
         y="76.024002"
         id="tspan3">    DREIVIERTEL</tspan><tspan
         style="font-style:normal;font-variant:normal;font-weight:normal;font-stretch:normal;font-size:4.23333px;font-family:Bauhaus;-inkscape-font-specification:'Bauhaus, Normal';font-variant-ligatures:normal;font-variant-caps:normal;font-variant-numeric:normal;font-variant-east-asian:normal;stroke-width:0.1"
         x="54.114403"
         y="81.315666"
         id="tspan4">    VORFUNKNACH</tspan><tspan
         style="font-style:normal;font-variant:normal;font-weight:normal;font-stretch:normal;font-size:4.23333px;font-family:Bauhaus;-inkscape-font-specification:'Bauhaus, Normal';font-variant-ligatures:normal;font-variant-caps:normal;font-variant-numeric:normal;font-variant-east-asian:normal;stroke-width:0.1"
         x="54.114403"
         y="86.60733"
         id="tspan5">    HALBAELFÜNF</tspan><tspan
         style="font-style:normal;font-variant:normal;font-weight:normal;font-stretch:normal;font-size:4.23333px;font-family:Bauhaus;-inkscape-font-specification:'Bauhaus, Normal';font-variant-ligatures:normal;font-variant-caps:normal;font-variant-numeric:normal;font-variant-east-asian:normal;stroke-width:0.1"
         x="54.114403"
         y="91.898994"
         id="tspan6">    EINSXAMZWEI</tspan><tspan
         style="font-style:normal;font-variant:normal;font-weight:normal;font-stretch:normal;font-size:4.23333px;font-family:Bauhaus;-inkscape-font-specification:'Bauhaus, Normal';font-variant-ligatures:normal;font-variant-caps:normal;font-variant-numeric:normal;font-variant-east-asian:normal;stroke-width:0.1"
         x="54.114403"
         y="97.190659"
         id="tspan7">    DREIPMJVIER</tspan><tspan
         style="font-style:normal;font-variant:normal;font-weight:normal;font-stretch:normal;font-size:4.23333px;font-family:Bauhaus;-inkscape-font-specification:'Bauhaus, Normal';font-variant-ligatures:normal;font-variant-caps:normal;font-variant-numeric:normal;font-variant-east-asian:normal;stroke-width:0.1"
         x="54.114403"
         y="102.48232"
         id="tspan8">    SECHSNLACHT</tspan><tspan
         style="font-style:normal;font-variant:normal;font-weight:normal;font-stretch:normal;font-size:4.23333px;font-family:Bauhaus;-inkscape-font-specification:'Bauhaus, Normal';font-variant-ligatures:normal;font-variant-caps:normal;font-variant-numeric:normal;font-variant-east-asian:normal;stroke-width:0.1"
         x="54.114403"
         y="107.77398"
         id="tspan9">    SIEBENZWÖLF</tspan><tspan
         style="font-style:normal;font-variant:normal;font-weight:normal;font-stretch:normal;font-size:4.23333px;font-family:Bauhaus;-inkscape-font-specification:'Bauhaus, Normal';font-variant-ligatures:normal;font-variant-caps:normal;font-variant-numeric:normal;font-variant-east-asian:normal;stroke-width:0.1"
         x="54.114403"
         y="113.06564"
         id="tspan10">    ZEHNEUNKUHR</tspan></text>
  </g>
  <g
     id="layer1"
     style="display:inline"
     transform="translate(-23.010481,-20.941635)">
    <g
       id="text20"
       style="font-size:4.23333px;font-family:Bauhaus;-inkscape-font-specification:'Bauhaus, Normal';text-align:end;text-anchor:end;fill:none;fill-opacity:0.379487;stroke:#000000;stroke-width:0.1;stroke-linecap:round;stroke-linejoin:round"
       aria-label="ESKISTAFÜNF&#10;    ZEHNZWANZIG&#10;    DREIVIERTEL&#10;    VORFUNKNACH&#10;    HALBAELFÜNF&#10;    EINSXAMZWEI&#10;    DREIPMJVIER&#10;    SECHSNLACHT&#10;    SIEBENZWÖLF&#10;    ZEHNEUNKUHR"
       transform="matrix(6.0556209,0,0,4.7502476,-144.57202,-272.98936)">
      <path
         d="m 33.14254,65.114715 v 0.325966 h -0.330199 q -0.6731,0 -1.062566,-0.431799 -0.385233,-0.4318 -0.385233,-0.973666 0,-0.605366 0.414866,-1.011766 0.414867,-0.4064 1.037166,-0.4064 h 0.325966 v 0.325967 h -0.186266 q -0.491066,0 -0.817033,0.245533 -0.321733,0.245533 -0.355599,0.651933 h 1.358898 v 0.325966 h -1.358898 q 0,0.156633 0.05503,0.296333 0.05927,0.1397 0.262466,0.397933 0.2032,0.254 0.8128,0.254 z m 0.32596,0.325966 v -0.325966 h 0.884766 q 0.5969,0 0.5969,-0.402166 0,-0.258233 -0.3175,-0.410633 L 33.9257,63.967483 q -0.465666,-0.220133 -0.465666,-0.656166 0,-0.694267 0.876299,-0.694267 h 0.859366 v 0.325967 h -0.757766 q -0.2032,0 -0.296333,0.01693 -0.09313,0.01693 -0.194733,0.09737 -0.09737,0.08043 -0.09737,0.258233 0,0.135466 0.0635,0.2159 0.0635,0.08043 0.2286,0.156633 l 0.745066,0.3429 q 0.452966,0.211666 0.452966,0.677332 0,0.732366 -0.880532,0.732366 z m 2.671228,0 H 35.762961 V 62.61705 h 0.376767 v 1.176866 h 0.325966 q 0.198967,0 0.3048,-0.08043 0.105833,-0.08043 0.198966,-0.3048 l 0.3175,-0.791633 h 0.402166 l -0.364066,0.8509 q -0.08467,0.198966 -0.148166,0.2794 -0.05927,0.0762 -0.182034,0.143933 0.182034,0.0508 0.2794,0.110066 0.1016,0.05927 0.186267,0.1778 0.0889,0.118533 0.1143,0.237067 0.0254,0.1143 0.0254,0.380999 v 0.338667 l 0.0127,0.304799 h -0.372533 l -0.01693,-0.275166 v -0.338666 q 0,-0.2286 -0.02117,-0.325967 -0.02117,-0.09737 -0.135466,-0.237066 -0.1143,-0.143933 -0.440266,-0.143933 h -0.486833 z m 2.396058,0 H 38.15902 V 62.61705 h 0.376766 z m 0.474127,0 v -0.325966 h 0.884766 q 0.5969,0 0.5969,-0.402166 0,-0.258233 -0.3175,-0.410633 l -0.706966,-0.334433 q -0.465666,-0.220133 -0.465666,-0.656166 0,-0.694267 0.876299,-0.694267 h 0.859366 v 0.325967 h -0.757766 q -0.2032,0 -0.296333,0.01693 -0.09313,0.01693 -0.194734,0.09737 -0.09737,0.08043 -0.09737,0.258233 0,0.135466 0.0635,0.2159 0.0635,0.08043 0.2286,0.156633 l 0.745066,0.3429 q 0.452966,0.211666 0.452966,0.677332 0,0.732366 -0.880533,0.732366 z m 3.289294,0 H 41.92244 V 62.943017 H 41.202774 V 62.61705 h 1.807632 v 0.325967 h -0.711199 z m 3.052224,0 h -0.376766 v -1.219199 h -1.075266 v -0.325966 h 1.075266 v -0.182033 q 0,-0.245533 -0.0254,-0.3556 -0.02117,-0.110066 -0.143934,-0.283633 -0.122766,-0.1778 -0.423333,-0.1778 -0.622299,0 -0.622299,0.783166 v 1.761065 H 43.382933 V 63.69655 q 0,-0.537633 0.258233,-0.8382 0.262466,-0.304799 0.723899,-0.304799 0.262466,0 0.474133,0.114299 0.2159,0.110067 0.325966,0.283634 0.1143,0.173566 0.148167,0.342899 0.0381,0.1651 0.0381,0.423333 z m 0.800093,0 h -0.376767 v -1.888065 q 0,-0.461433 0.249767,-0.698499 0.249766,-0.237067 0.736599,-0.237067 h 0.508 v 0.325967 h -0.503767 q -0.321733,0 -0.469899,0.156633 -0.143933,0.1524 -0.143933,0.4953 v 0.304799 h 1.117599 v 0.325967 h -1.117599 z m 3.018363,-2.823631 h 0.376766 v 1.773766 q 0,0.283633 -0.05927,0.469899 -0.05927,0.182033 -0.270933,0.410633 -0.207433,0.224367 -0.647699,0.224367 -0.465667,0 -0.715433,-0.296333 -0.249766,-0.300567 -0.249766,-0.7493 V 62.61705 h 0.376766 v 1.786466 q 0,0.359833 0.156633,0.554566 0.156633,0.194733 0.4445,0.194733 0.321733,0 0.431799,-0.186266 0.1143,-0.1905 0.135467,-0.296334 0.02117,-0.110066 0.02117,-0.304799 z m -0.9525,-0.681566 q 0.08043,0 0.135467,0.05503 0.05503,0.05503 0.05503,0.135466 0,0.08043 -0.05503,0.135467 -0.05503,0.05503 -0.135467,0.05503 -0.08043,0 -0.135466,-0.05503 -0.05503,-0.05503 -0.05503,-0.135467 0,-0.08043 0.05503,-0.135466 0.05503,-0.05503 0.135466,-0.05503 z m 0.706966,-0.0085 q 0.08043,0 0.135467,0.05503 0.05503,0.05503 0.05503,0.135467 0,0.08467 -0.05503,0.139699 -0.05503,0.05503 -0.135467,0.05503 -0.08467,0 -0.139699,-0.05503 -0.05503,-0.05503 -0.05503,-0.139699 0,-0.08043 0.05503,-0.135467 0.05503,-0.05503 0.139699,-0.05503 z m 2.726258,0.690032 h 0.376766 v 2.472265 q 0,0.381 -0.287866,0.381 -0.2286,0 -0.376766,-0.3048 L 50.393312,63.12505 v 2.315631 h -0.376766 v -2.446864 q 0,-0.4064 0.296333,-0.4064 0.2413,0 0.389466,0.313267 l 0.948266,2.006598 z m 1.22766,2.823631 h -0.376766 v -1.888065 q 0,-0.461433 0.249766,-0.698499 0.249767,-0.237067 0.7366,-0.237067 h 0.507999 v 0.325967 h -0.503766 q -0.321733,0 -0.4699,0.156633 -0.143933,0.1524 -0.143933,0.4953 v 0.304799 h 1.117599 v 0.325967 h -1.117599 z"
         id="path20" />
      <path
         d="m 29.658508,70.406377 v 0.325967 h -1.528232 q -0.4064,0 -0.4064,-0.283633 0,-0.131234 0.131233,-0.3175 l 1.418166,-1.896532 h -1.392766 v -0.325966 h 1.363132 q 0.397933,0 0.397933,0.283633 0,0.08467 -0.03387,0.160866 -0.03387,0.0762 -0.135467,0.2159 l -1.371599,1.837265 z m 2.010828,0 v 0.325967 h -0.3302 q -0.673099,0 -1.062566,-0.4318 -0.385233,-0.4318 -0.385233,-0.973666 0,-0.605366 0.414866,-1.011766 0.414867,-0.406399 1.037166,-0.406399 h 0.325967 v 0.325966 h -0.186267 q -0.491066,0 -0.817032,0.245533 -0.321734,0.245533 -0.3556,0.651933 h 1.358899 v 0.325966 h -1.358899 q 0,0.156634 0.05503,0.296333 0.05927,0.1397 0.262467,0.397933 0.203199,0.254 0.812799,0.254 z m 2.417224,0.325967 h -0.376766 v -1.303866 h -1.240365 v 1.303866 h -0.376767 v -2.823631 h 0.376767 v 1.193799 h 1.240365 v -1.193799 h 0.376766 z m 2.158996,-2.823631 h 0.376766 v 2.472264 q 0,0.381 -0.287866,0.381 -0.2286,0 -0.376767,-0.3048 l -0.969432,-2.040465 v 2.315632 h -0.376766 v -2.446865 q 0,-0.4064 0.296333,-0.4064 0.241299,0 0.389466,0.313267 l 0.948266,2.006598 z m 2.734726,2.497664 v 0.325967 H 37.45205 q -0.406399,0 -0.406399,-0.283633 0,-0.131234 0.131233,-0.3175 l 1.418165,-1.896532 h -1.392765 v -0.325966 h 1.363132 q 0.397933,0 0.397933,0.283633 0,0.08467 -0.03387,0.160866 -0.03387,0.0762 -0.135466,0.2159 l -1.371599,1.837265 z m 3.318928,-2.497664 h 0.376766 v 1.849965 q 0,0.287866 -0.04657,0.448733 -0.04657,0.160866 -0.2413,0.372533 -0.1905,0.207433 -0.605366,0.207433 -0.283633,0 -0.474133,-0.110067 -0.186267,-0.1143 -0.3175,-0.364066 -0.254,0.474133 -0.749299,0.474133 -0.3937,0 -0.639233,-0.254 -0.245533,-0.254 -0.245533,-0.660399 v -1.964265 h 0.376766 v 1.875365 q 0,0.660399 0.524933,0.660399 0.2667,0 0.410633,-0.173566 0.148167,-0.1778 0.148167,-0.4953 v -1.866898 h 0.376766 v 1.871131 q 0,0.3175 0.143933,0.491067 0.143933,0.173566 0.4064,0.173566 0.321733,0 0.436033,-0.1905 0.118533,-0.190499 0.118533,-0.499533 z m 2.768589,2.823631 h -0.376766 v -1.219199 h -1.075266 v -0.325967 h 1.075266 v -0.182033 q 0,-0.245533 -0.0254,-0.3556 -0.02117,-0.110066 -0.143933,-0.283633 -0.122767,-0.1778 -0.423333,-0.1778 -0.6223,0 -0.6223,0.783166 v 1.761066 h -0.376766 v -1.744132 q 0,-0.537633 0.258233,-0.838199 0.262467,-0.3048 0.7239,-0.3048 0.262466,0 0.474132,0.1143 0.2159,0.110066 0.325967,0.283633 0.1143,0.173566 0.148166,0.342899 0.0381,0.1651 0.0381,0.423333 z m 2.108192,-2.823631 h 0.376766 v 2.472264 q 0,0.381 -0.287866,0.381 -0.2286,0 -0.376766,-0.3048 l -0.969433,-2.040465 v 2.315632 h -0.376766 v -2.446865 q 0,-0.4064 0.296333,-0.4064 0.2413,0 0.389466,0.313267 l 0.948266,2.006598 z m 2.734727,2.497664 v 0.325967 h -1.528232 q -0.406399,0 -0.406399,-0.283633 0,-0.131234 0.131233,-0.3175 l 1.418165,-1.896532 H 48.13272 v -0.325966 h 1.363132 q 0.397933,0 0.397933,0.283633 0,0.08467 -0.03387,0.160866 -0.03387,0.0762 -0.135466,0.2159 l -1.371599,1.837265 z m 0.846663,0.325967 h -0.376767 v -2.823631 h 0.376767 z m 1.79916,-1.583266 h 1.485898 v 0.122767 q 0,0.3429 -0.122766,0.681566 -0.122767,0.338666 -0.491067,0.588433 -0.364066,0.249766 -0.821266,0.249766 -0.622299,0 -1.045632,-0.427566 -0.423333,-0.427566 -0.423333,-1.058332 0,-0.613833 0.423333,-1.032933 0.423333,-0.4191 1.049866,-0.4191 0.647699,0 1.109132,0.452967 l -0.2667,0.249766 q -0.372533,-0.359833 -0.829732,-0.359833 -0.4699,0 -0.783166,0.313267 -0.313267,0.313266 -0.313267,0.783166 0,0.495299 0.309033,0.825499 0.309034,0.3302 0.778933,0.3302 0.436033,0 0.732366,-0.275167 0.296333,-0.275166 0.296333,-0.698499 h -1.087965 z"
         id="path21" />
      <path
         d="m 33.481212,76.024006 h -0.376767 v -2.823631 h 0.601133 q 0.537633,0 0.855133,0.1905 0.317499,0.1905 0.499533,0.520699 0.182033,0.325967 0.182033,0.6985 0,0.668866 -0.414867,1.041399 -0.410633,0.372533 -0.952499,0.372533 H 33.612445 V 75.68534 h 0.194733 q 0.461433,0 0.753533,-0.296334 0.292099,-0.296333 0.292099,-0.761999 0,-0.486833 -0.309033,-0.791633 -0.304799,-0.309033 -0.791632,-0.309033 h -0.270933 z m 2.425696,0 h -0.376766 v -1.862665 q 0,-0.491066 0.237066,-0.762 0.2413,-0.275166 0.677333,-0.275166 0.372533,0 0.630766,0.2286 0.258233,0.2286 0.258233,0.558799 0,0.4191 -0.419099,0.6604 0.262466,0.09313 0.364066,0.2667 0.1016,0.169333 0.1016,0.533399 v 0.651933 H 37.003341 V 75.48214 q 0,-0.364067 -0.110067,-0.529167 -0.105833,-0.169333 -0.461433,-0.169333 h -0.376766 v -0.325966 h 0.270933 q 0.2921,0 0.452966,-0.131233 0.1651,-0.131234 0.1651,-0.3683 0,-0.211667 -0.1397,-0.351366 -0.1397,-0.1397 -0.351366,-0.1397 -0.1524,0 -0.270933,0.06773 -0.118534,0.06773 -0.198967,0.207433 -0.0762,0.1397 -0.0762,0.486833 z m 3.488257,-0.325967 v 0.325967 h -0.3302 q -0.673099,0 -1.062565,-0.4318 -0.385233,-0.431799 -0.385233,-0.973666 0,-0.605366 0.414866,-1.011765 0.414866,-0.4064 1.037166,-0.4064 h 0.325966 v 0.325966 h -0.186266 q -0.491067,0 -0.817033,0.245533 -0.321733,0.245534 -0.3556,0.651933 h 1.358899 v 0.325967 h -1.358899 q 0,0.156633 0.05503,0.296333 0.05927,0.1397 0.262466,0.397933 0.2032,0.253999 0.812799,0.253999 z m 0.84666,0.325967 h -0.376767 v -2.823631 h 0.376767 z m 2.247893,-2.823631 h 0.389466 l -0.745066,2.527298 q -0.09737,0.321733 -0.376767,0.321733 -0.270933,0 -0.376766,-0.3302 l -0.774699,-2.518831 h 0.385233 l 0.770466,2.501898 z m 1.134528,2.823631 H 43.24748 v -2.823631 h 0.376766 z m 2.158993,-0.325967 v 0.325967 h -0.3302 q -0.673099,0 -1.062565,-0.4318 -0.385233,-0.431799 -0.385233,-0.973666 0,-0.605366 0.414866,-1.011765 0.414866,-0.4064 1.037166,-0.4064 h 0.325966 v 0.325966 h -0.186266 q -0.491067,0 -0.817033,0.245533 -0.321733,0.245534 -0.3556,0.651933 h 1.358899 v 0.325967 H 44.42434 q 0,0.156633 0.05503,0.296333 0.05927,0.1397 0.262466,0.397933 0.2032,0.253999 0.812799,0.253999 z m 0.753525,0.325967 h -0.376766 v -1.862665 q 0,-0.491066 0.237066,-0.762 0.2413,-0.275166 0.677333,-0.275166 0.372533,0 0.630766,0.2286 0.258233,0.2286 0.258233,0.558799 0,0.4191 -0.419099,0.6604 0.262466,0.09313 0.364066,0.2667 0.1016,0.169333 0.1016,0.533399 v 0.651933 H 47.633197 V 75.48214 q 0,-0.364067 -0.110067,-0.529167 -0.105833,-0.169333 -0.461433,-0.169333 h -0.376766 v -0.325966 h 0.270933 q 0.2921,0 0.452966,-0.131233 0.1651,-0.131234 0.1651,-0.3683 0,-0.211667 -0.1397,-0.351366 -0.1397,-0.1397 -0.351366,-0.1397 -0.1524,0 -0.270933,0.06773 -0.118533,0.06773 -0.198967,0.207433 -0.0762,0.1397 -0.0762,0.486833 z m 2.895592,0 H 49.05559 v -2.497665 h -0.719666 v -0.325966 h 1.807631 v 0.325966 h -0.711199 z m 2.722025,-0.325967 v 0.325967 h -0.3302 q -0.6731,0 -1.062566,-0.4318 -0.385233,-0.431799 -0.385233,-0.973666 0,-0.605366 0.414866,-1.011765 0.414867,-0.4064 1.037166,-0.4064 h 0.325967 v 0.325966 h -0.186267 q -0.491066,0 -0.817033,0.245533 -0.321733,0.245534 -0.355599,0.651933 h 1.358899 v 0.325967 h -1.358899 q 0,0.156633 0.05503,0.296333 0.05927,0.1397 0.262466,0.397933 0.2032,0.253999 0.8128,0.253999 z m 1.841492,0 v 0.325967 h -0.516466 q -0.495299,0 -0.723899,-0.2286 -0.224367,-0.232833 -0.224367,-0.740833 v -1.854198 h 0.376767 v 1.777998 q 0,0.2413 0.0381,0.3683 0.0381,0.127 0.131233,0.211667 0.09313,0.08043 0.2032,0.110066 0.1143,0.02963 0.325966,0.02963 z"
         id="path22" />
      <path
         d="m 29.887106,78.492037 h 0.389466 l -0.745066,2.527298 q -0.09737,0.321733 -0.376766,0.321733 -0.270933,0 -0.376766,-0.3302 l -0.7747,-2.518831 h 0.385233 l 0.770466,2.501898 z m 1.976961,-0.05503 q 0.618066,0 1.041399,0.427566 0.427567,0.423333 0.427567,1.049866 0,0.592666 -0.4318,1.024466 -0.4318,0.431799 -1.028699,0.431799 -0.6096,0 -1.037166,-0.427566 -0.427566,-0.427566 -0.427566,-1.037166 0,-0.609599 0.423333,-1.037166 0.427566,-0.431799 1.032932,-0.431799 z m 0.0085,0.3429 q -0.4445,0 -0.762,0.330199 -0.313266,0.325967 -0.313266,0.783166 0,0.474133 0.313266,0.804333 0.313267,0.3302 0.762,0.3302 0.436033,0 0.753533,-0.3302 0.317499,-0.3302 0.317499,-0.787399 0,-0.474133 -0.313266,-0.8001 -0.309033,-0.330199 -0.757766,-0.330199 z m 2.125125,2.535764 h -0.376766 v -1.862665 q 0,-0.491066 0.237066,-0.761999 0.2413,-0.275167 0.677333,-0.275167 0.372533,0 0.630766,0.2286 0.258233,0.2286 0.258233,0.5588 0,0.419099 -0.4191,0.660399 0.262467,0.09313 0.364067,0.2667 0.1016,0.169333 0.1016,0.533399 v 0.651933 h -0.376767 v -0.541866 q 0,-0.364066 -0.110066,-0.529166 -0.105834,-0.169334 -0.461433,-0.169334 h -0.376767 v -0.325966 h 0.270934 q 0.292099,0 0.452966,-0.131233 0.1651,-0.131233 0.1651,-0.3683 0,-0.211666 -0.1397,-0.351366 -0.1397,-0.1397 -0.351367,-0.1397 -0.152399,0 -0.270933,0.06773 -0.118533,0.06773 -0.198966,0.207433 -0.0762,0.1397 -0.0762,0.486833 z m 2.226725,0 h -0.376766 v -1.888065 q 0,-0.461433 0.249767,-0.698499 0.249766,-0.237067 0.736599,-0.237067 h 0.508 v 0.325967 H 36.83825 q -0.321733,0 -0.469899,0.156633 -0.143934,0.1524 -0.143934,0.495299 v 0.3048 h 1.1176 v 0.325966 h -1.1176 z M 39.24278,78.49204 h 0.376767 v 1.773765 q 0,0.283633 -0.05927,0.4699 -0.05927,0.182033 -0.270933,0.410633 -0.207433,0.224366 -0.647699,0.224366 -0.465667,0 -0.715433,-0.296333 -0.249767,-0.300566 -0.249767,-0.749299 V 78.49204 h 0.376767 v 1.786465 q 0,0.359833 0.156633,0.554567 0.156633,0.194733 0.4445,0.194733 0.321733,0 0.431799,-0.186267 0.1143,-0.1905 0.135467,-0.296333 0.02117,-0.110066 0.02117,-0.3048 z m 2.480724,0 h 0.376766 v 2.472265 q 0,0.380999 -0.287866,0.380999 -0.2286,0 -0.376766,-0.304799 L 40.466205,79.00004 v 2.315631 h -0.376766 v -2.446865 q 0,-0.406399 0.296333,-0.406399 0.2413,0 0.389466,0.313266 l 0.948266,2.006599 z m 1.278462,2.823631 H 42.6252 V 78.49204 h 0.376766 v 1.176866 h 0.325966 q 0.198967,0 0.3048,-0.08043 0.105833,-0.08043 0.198967,-0.3048 l 0.317499,-0.791633 h 0.402167 l -0.364067,0.850899 q -0.08467,0.198967 -0.148166,0.2794 -0.05927,0.0762 -0.182033,0.143933 0.182033,0.0508 0.279399,0.110067 0.1016,0.05927 0.186267,0.1778 0.0889,0.118533 0.1143,0.237066 0.0254,0.1143 0.0254,0.381 v 0.338666 l 0.0127,0.3048 h -0.372533 l -0.01693,-0.275166 v -0.338667 q 0,-0.2286 -0.02117,-0.325966 -0.02117,-0.09737 -0.135467,-0.237067 -0.1143,-0.143933 -0.440266,-0.143933 h -0.486833 z m 3.60679,-2.823631 h 0.376766 v 2.472265 q 0,0.380999 -0.287866,0.380999 -0.2286,0 -0.376766,-0.304799 L 45.351457,79.00004 v 2.315631 h -0.376766 v -2.446865 q 0,-0.406399 0.296333,-0.406399 0.2413,0 0.389466,0.313266 l 0.948266,2.006599 z m 2.819392,2.823631 h -0.376766 v -1.219199 h -1.075266 v -0.325966 h 1.075266 V 79.58847 q 0,-0.245534 -0.0254,-0.3556 -0.02117,-0.110067 -0.143934,-0.283633 -0.122766,-0.1778 -0.423332,-0.1778 -0.6223,0 -0.6223,0.783166 v 1.761065 H 47.45965 v -1.744132 q 0,-0.537633 0.258233,-0.838199 0.262466,-0.3048 0.723899,-0.3048 0.262467,0 0.474133,0.1143 0.2159,0.110067 0.325967,0.283633 0.114299,0.173567 0.148166,0.3429 0.0381,0.1651 0.0381,0.423333 z m 2.048927,-0.338666 v 0.338666 h -0.1143 q -0.448733,0 -0.664633,-0.0508 -0.2159,-0.05503 -0.457199,-0.237066 -0.2413,-0.186267 -0.385233,-0.4826 -0.143934,-0.296333 -0.143934,-0.643466 0,-0.5969 0.4191,-1.003299 0.4191,-0.4064 1.041399,-0.4064 h 0.3048 v 0.338667 h -0.207433 q -0.516466,0 -0.842433,0.300566 -0.325966,0.300566 -0.325966,0.778933 0,0.283633 0.1397,0.537633 0.1397,0.249766 0.325966,0.359833 0.186267,0.110066 0.347133,0.139699 0.160867,0.02963 0.474133,0.02963 z m 2.374897,0.338666 H 53.475205 V 80.011806 H 52.23484 v 1.303865 h -0.3768 V 78.49204 h 0.376767 v 1.193799 h 1.240365 V 78.49204 h 0.376767 z"
         id="path23" />
      <path
         d="m 32.562567,86.60733 h -0.376766 v -1.303865 h -1.240366 v 1.303865 h -0.376766 v -2.823631 h 0.376766 v 1.193799 h 1.240366 v -1.193799 h 0.376766 z m 2.442628,0 h -0.376766 v -1.219199 h -1.075266 v -0.325966 h 1.075266 v -0.182033 q 0,-0.245533 -0.0254,-0.3556 -0.02117,-0.110067 -0.143933,-0.283633 -0.122767,-0.1778 -0.423333,-0.1778 -0.6223,0 -0.6223,0.783166 v 1.761065 h -0.376766 v -1.744132 q 0,-0.537632 0.258233,-0.838199 0.262467,-0.3048 0.7239,-0.3048 0.262466,0 0.474133,0.1143 0.215899,0.110067 0.325966,0.283633 0.1143,0.173567 0.148166,0.3429 0.0381,0.1651 0.0381,0.423333 z m 1.892293,-0.325966 v 0.325966 h -0.516466 q -0.4953,0 -0.723899,-0.228599 -0.224367,-0.232834 -0.224367,-0.740833 v -1.854199 h 0.376766 v 1.777999 q 0,0.2413 0.0381,0.3683 0.0381,0.126999 0.131234,0.211666 0.09313,0.08043 0.203199,0.110067 0.1143,0.02963 0.325967,0.02963 z m 0.711196,0.325966 h -0.376766 v -1.888065 q 0,-0.457199 0.249766,-0.723899 0.249767,-0.2667 0.6858,-0.2667 0.385233,0 0.639233,0.2159 0.253999,0.2159 0.253999,0.546099 0,0.414867 -0.376766,0.613833 0.5207,0.194733 0.5207,0.7112 0,0.359833 -0.245533,0.575733 -0.245534,0.215899 -0.6604,0.215899 h -0.546099 v -0.325966 h 0.452966 q 0.609599,0 0.609599,-0.491066 0,-0.2794 -0.156633,-0.372533 -0.156633,-0.09737 -0.249766,-0.1143 -0.0889,-0.01693 -0.275167,-0.01693 h -0.380999 v -0.292099 h 0.287866 q 0.1778,0 0.275166,-0.02117 0.09737,-0.02117 0.224367,-0.118533 0.131233,-0.09737 0.131233,-0.334433 0,-0.194733 -0.143933,-0.321733 -0.143933,-0.127 -0.364066,-0.127 -0.283634,0 -0.4191,0.173566 Q 37.608684,84.4187 37.608684,84.787 Z m 3.932759,0 h -0.376767 v -1.219199 h -1.075265 v -0.325966 h 1.075265 v -0.182033 q 0,-0.245533 -0.0254,-0.3556 -0.02117,-0.110067 -0.143933,-0.283633 -0.122766,-0.1778 -0.423333,-0.1778 -0.622299,0 -0.622299,0.783166 v 1.761065 h -0.376767 v -1.744132 q 0,-0.537632 0.258233,-0.838199 0.262467,-0.3048 0.7239,-0.3048 0.262466,0 0.474133,0.1143 0.2159,0.110067 0.325966,0.283633 0.1143,0.173567 0.148167,0.3429 0.0381,0.1651 0.0381,0.423333 z m 2.061626,-0.325966 v 0.325966 h -0.3302 q -0.6731,0 -1.062566,-0.431799 -0.385233,-0.4318 -0.385233,-0.973666 0,-0.605366 0.414866,-1.011766 0.414867,-0.4064 1.037166,-0.4064 h 0.325967 v 0.325967 h -0.186267 q -0.491066,0 -0.817033,0.245533 -0.321733,0.245533 -0.355599,0.651933 h 1.358899 v 0.325966 H 42.24417 q 0,0.156633 0.05503,0.296333 0.05927,0.1397 0.262467,0.397933 0.203199,0.254 0.812799,0.254 z m 1.841491,0 v 0.325966 h -0.516467 q -0.495299,0 -0.723899,-0.228599 -0.224366,-0.232834 -0.224366,-0.740833 v -1.854199 h 0.376766 v 1.777999 q 0,0.2413 0.0381,0.3683 0.0381,0.126999 0.131233,0.211666 0.09313,0.08043 0.2032,0.110067 0.1143,0.02963 0.325966,0.02963 z m 0.706964,0.325966 h -0.376766 v -1.888065 q 0,-0.461433 0.249766,-0.698499 0.249767,-0.237067 0.7366,-0.237067 h 0.507999 v 0.325967 h -0.503766 q -0.321733,0 -0.469899,0.156633 -0.143934,0.1524 -0.143934,0.4953 v 0.304799 h 1.117599 v 0.325967 h -1.117599 z m 3.018363,-2.823631 h 0.376767 v 1.773766 q 0,0.283633 -0.05927,0.469899 -0.05927,0.182033 -0.270933,0.410633 -0.207433,0.224367 -0.647699,0.224367 -0.465667,0 -0.715433,-0.296333 -0.249767,-0.300567 -0.249767,-0.7493 v -1.833032 h 0.376767 v 1.786466 q 0,0.359833 0.156633,0.554566 0.156633,0.194733 0.4445,0.194733 0.321733,0 0.431799,-0.186267 0.1143,-0.190499 0.135467,-0.296333 0.02117,-0.110066 0.02117,-0.304799 z m -0.952499,-0.681566 q 0.08043,0 0.135467,0.05503 0.05503,0.05503 0.05503,0.135466 0,0.08043 -0.05503,0.135467 -0.05503,0.05503 -0.135467,0.05503 -0.08043,0 -0.135466,-0.05503 -0.05503,-0.05503 -0.05503,-0.135467 0,-0.08043 0.05503,-0.135466 0.05503,-0.05503 0.135466,-0.05503 z m 0.706966,-0.0085 q 0.08043,0 0.135467,0.05503 0.05503,0.05503 0.05503,0.135466 0,0.08467 -0.05503,0.1397 -0.05503,0.05503 -0.135467,0.05503 -0.08467,0 -0.1397,-0.05503 -0.05503,-0.05503 -0.05503,-0.1397 0,-0.08043 0.05503,-0.135466 0.05503,-0.05503 0.1397,-0.05503 z m 2.726256,0.690032 h 0.376766 v 2.472265 q 0,0.381 -0.287866,0.381 -0.2286,0 -0.376767,-0.3048 l -0.969432,-2.040465 v 2.315631 h -0.376766 v -2.446864 q 0,-0.4064 0.296333,-0.4064 0.2413,0 0.389466,0.313266 l 0.948266,2.006599 z m 1.227662,2.823631 h -0.376766 v -1.888065 q 0,-0.461433 0.249766,-0.698499 0.249766,-0.237067 0.736599,-0.237067 h 0.508 v 0.325967 h -0.503766 q -0.321733,0 -0.4699,0.156633 -0.143933,0.1524 -0.143933,0.4953 v 0.304799 h 1.117599 v 0.325967 h -1.117599 z"
         id="path24" />
      <path
         d="m 30.653345,91.573026 v 0.325967 h -0.330199 q -0.6731,0 -1.062566,-0.4318 -0.385233,-0.4318 -0.385233,-0.973666 0,-0.605366 0.414866,-1.011766 0.414866,-0.406399 1.037166,-0.406399 h 0.325966 v 0.325966 h -0.186266 q -0.491067,0 -0.817033,0.245533 -0.321733,0.245533 -0.3556,0.651933 h 1.358899 v 0.325966 h -1.358899 q 0,0.156633 0.05503,0.296333 0.05927,0.1397 0.262466,0.397933 0.2032,0.254 0.812799,0.254 z m 0.84666,0.325967 h -0.376767 v -2.823631 h 0.376767 z m 2.205559,-2.823631 h 0.376767 v 2.472264 q 0,0.381 -0.287867,0.381 -0.2286,0 -0.376766,-0.3048 l -0.969433,-2.040465 v 2.315632 h -0.376766 v -2.446865 q 0,-0.4064 0.296333,-0.4064 0.2413,0 0.389466,0.313267 l 0.948266,2.006598 z m 0.804328,2.823631 v -0.325967 h 0.884766 q 0.5969,0 0.5969,-0.402166 0,-0.258233 -0.3175,-0.410633 l -0.706966,-0.334433 q -0.465666,-0.220133 -0.465666,-0.656166 0,-0.694266 0.876299,-0.694266 h 0.859366 v 0.325966 h -0.757766 q -0.2032,0 -0.296333,0.01693 -0.09313,0.01693 -0.194733,0.09737 -0.09737,0.08043 -0.09737,0.258233 0,0.135467 0.0635,0.2159 0.0635,0.08043 0.2286,0.156633 l 0.745066,0.3429 q 0.452966,0.211666 0.452966,0.677332 0,0.732367 -0.880532,0.732367 z m 4.60586,-0.338667 v 0.338667 q -0.262467,0 -0.4445,-0.0635 -0.182033,-0.06773 -0.351366,-0.198967 -0.1651,-0.131233 -0.254,-0.245533 -0.08467,-0.118533 -0.160866,-0.300566 -0.182034,0.419099 -0.461433,0.613832 -0.275167,0.194734 -0.740833,0.194734 v -0.338667 q 0.220133,0 0.376766,-0.06773 0.160867,-0.06773 0.3937,-0.300567 0.237066,-0.237066 0.237066,-0.706966 0,-0.457199 -0.287866,-0.761999 -0.283633,-0.309033 -0.719666,-0.309033 v -0.338666 q 0.478366,0 0.711199,0.182033 0.232833,0.1778 0.321733,0.296333 0.0889,0.118533 0.169334,0.321733 0.156633,-0.414866 0.419099,-0.567266 0.262467,-0.1524 0.414867,-0.1905 0.156633,-0.04233 0.376766,-0.04233 v 0.338666 q -0.220133,0 -0.364066,0.0508 -0.143934,0.0508 -0.397933,0.275166 -0.254,0.220134 -0.254,0.728133 0,0.465666 0.283633,0.778933 0.283633,0.313266 0.732366,0.313266 z m 2.341031,0.338667 h -0.376766 v -1.219199 h -1.075266 v -0.325967 h 1.075266 v -0.182033 q 0,-0.245533 -0.0254,-0.3556 -0.02117,-0.110066 -0.143934,-0.283633 -0.122766,-0.1778 -0.423333,-0.1778 -0.622299,0 -0.622299,0.783166 v 1.761066 h -0.376766 v -1.744132 q 0,-0.537633 0.258233,-0.8382 0.262466,-0.304799 0.723899,-0.304799 0.262467,0 0.474133,0.1143 0.2159,0.110066 0.325966,0.283633 0.1143,0.173566 0.148167,0.342899 0.0381,0.1651 0.0381,0.423333 z m 3.488257,0 h -0.3683 l -0.279399,-2.404532 -0.656166,2.197098 q -0.07197,0.237067 -0.254,0.237067 -0.186267,0 -0.2794,-0.3048 l -0.618066,-2.146298 -0.296333,2.421465 h -0.364067 l 0.300567,-2.484965 q 0.04233,-0.364066 0.334433,-0.364066 0.275166,0 0.364066,0.321733 l 0.563033,1.964265 0.575733,-1.934632 q 0.05503,-0.1905 0.1397,-0.270933 0.0889,-0.08043 0.237066,-0.08043 0.156633,0 0.2286,0.08467 0.0762,0.08043 0.09737,0.287867 z m 2.256359,-0.325967 v 0.325967 h -1.528232 q -0.4064,0 -0.4064,-0.283634 0,-0.131233 0.131234,-0.317499 l 1.418165,-1.896532 h -1.392765 v -0.325966 h 1.363132 q 0.397933,0 0.397933,0.283633 0,0.08467 -0.03387,0.160866 -0.03387,0.0762 -0.135466,0.2159 l -1.371599,1.837265 z m 3.318925,-2.497664 h 0.376766 v 1.849965 q 0,0.287866 -0.04657,0.448733 -0.04657,0.160866 -0.2413,0.372533 -0.1905,0.207433 -0.605366,0.207433 -0.283633,0 -0.474133,-0.110067 -0.186267,-0.1143 -0.3175,-0.364066 -0.254,0.474133 -0.749299,0.474133 -0.3937,0 -0.639233,-0.254 -0.245533,-0.254 -0.245533,-0.660399 v -1.964265 h 0.376766 v 1.875365 q 0,0.660399 0.524933,0.660399 0.2667,0 0.410633,-0.173566 0.148167,-0.1778 0.148167,-0.4953 v -1.866898 h 0.376766 v 1.871131 q 0,0.3175 0.143933,0.491067 0.143933,0.173566 0.4064,0.173566 0.321733,0 0.436033,-0.1905 0.118533,-0.1905 0.118533,-0.499533 z m 2.438392,2.497664 v 0.325967 h -0.3302 q -0.6731,0 -1.062566,-0.4318 -0.385233,-0.4318 -0.385233,-0.973666 0,-0.605366 0.414866,-1.011766 0.414867,-0.406399 1.037166,-0.406399 h 0.325967 v 0.325966 h -0.186267 q -0.491066,0 -0.817033,0.245533 -0.321733,0.245533 -0.355599,0.651933 h 1.358899 v 0.325966 h -1.358899 q 0,0.156633 0.05503,0.296333 0.05927,0.1397 0.262466,0.397933 0.2032,0.254 0.8128,0.254 z m 0.84666,0.325967 H 53.42861 v -2.823631 h 0.376766 z"
         id="path25" />
      <path
         d="m 32.126539,97.190655 h -0.376766 v -2.823631 h 0.601133 q 0.537633,0 0.855132,0.1905 0.3175,0.190499 0.499533,0.520699 0.182033,0.325967 0.182033,0.6985 0,0.668866 -0.414866,1.041399 -0.410633,0.372533 -0.952499,0.372533 h -0.262467 v -0.338667 h 0.194734 q 0.461433,0 0.753532,-0.296333 0.2921,-0.296333 0.2921,-0.761999 0,-0.486833 -0.309033,-0.791633 -0.3048,-0.309033 -0.791633,-0.309033 h -0.270933 z m 2.425697,0 H 34.17547 V 95.32799 q 0,-0.491067 0.237066,-0.762 0.2413,-0.275166 0.677333,-0.275166 0.372533,0 0.630766,0.2286 0.258233,0.228599 0.258233,0.558799 0,0.4191 -0.4191,0.6604 0.262467,0.09313 0.364067,0.266699 0.1016,0.169334 0.1016,0.5334 v 0.651933 h -0.376767 v -0.541866 q 0,-0.364067 -0.110066,-0.529167 -0.105833,-0.169333 -0.461433,-0.169333 h -0.376767 v -0.325966 h 0.270934 q 0.292099,0 0.452966,-0.131233 0.1651,-0.131234 0.1651,-0.3683 0,-0.211667 -0.1397,-0.351367 -0.1397,-0.139699 -0.351367,-0.139699 -0.152399,0 -0.270933,0.06773 -0.118533,0.06773 -0.198966,0.207433 -0.0762,0.1397 -0.0762,0.486833 z m 3.488257,-0.325967 v 0.325967 h -0.3302 q -0.673099,0 -1.062566,-0.4318 -0.385233,-0.4318 -0.385233,-0.973666 0,-0.605366 0.414867,-1.011766 0.414866,-0.406399 1.037165,-0.406399 h 0.325967 v 0.325966 h -0.186267 q -0.491066,0 -0.817032,0.245533 -0.321733,0.245533 -0.3556,0.651933 h 1.358899 v 0.325966 h -1.358899 q 0,0.156634 0.05503,0.296334 0.05927,0.139699 0.262467,0.397933 0.2032,0.253999 0.812799,0.253999 z m 0.846659,0.325967 h -0.376766 v -2.823631 h 0.376766 z m 0.897461,0 h -0.376766 v -1.816099 q 0,-0.499533 0.258233,-0.778932 0.258233,-0.283633 0.685799,-0.283633 0.402167,0 0.6731,0.266699 0.275166,0.262467 0.275166,0.651933 0,0.402166 -0.254,0.651933 -0.253999,0.249766 -0.660399,0.249766 h -0.4572 v -0.325966 h 0.4064 q 0.262466,0 0.4191,-0.1524 0.156633,-0.1524 0.156633,-0.414866 0,-0.254 -0.160867,-0.4191 -0.160866,-0.1651 -0.410633,-0.1651 -0.258233,0 -0.406399,0.1905 -0.148167,0.186267 -0.148167,0.516466 z m 4.952995,0 h -0.3683 l -0.279399,-2.404532 -0.656167,2.197099 q -0.07197,0.237066 -0.253999,0.237066 -0.186267,0 -0.2794,-0.3048 l -0.618066,-2.146298 -0.296333,2.421465 h -0.364067 l 0.300567,-2.484965 q 0.04233,-0.364066 0.334433,-0.364066 0.275166,0 0.364066,0.321733 l 0.563033,1.964265 0.575733,-1.934632 q 0.05503,-0.1905 0.1397,-0.270933 0.0889,-0.08043 0.237066,-0.08043 0.156633,0 0.2286,0.08467 0.0762,0.08043 0.09737,0.287867 z M 46.2743,94.367024 v 1.862665 q 0,0.287866 -0.0508,0.4445 -0.0508,0.156633 -0.186266,0.283633 -0.135467,0.127 -0.309034,0.182033 -0.173566,0.0508 -0.436032,0.0508 h -0.338667 v -0.325967 h 0.2286 q 0.2286,0 0.3429,-0.02963 0.118533,-0.02963 0.207433,-0.1143 0.09313,-0.0889 0.127,-0.207433 0.0381,-0.118533 0.0381,-0.321733 v -1.824565 z m 2.154763,0 h 0.389466 l -0.745066,2.527298 q -0.09737,0.321733 -0.376766,0.321733 -0.270933,0 -0.376766,-0.3302 l -0.7747,-2.518831 h 0.385233 l 0.770466,2.501898 z m 1.134529,2.823631 h -0.376767 v -2.823631 h 0.376767 z m 2.158993,-0.325967 v 0.325967 h -0.3302 q -0.6731,0 -1.062566,-0.4318 -0.385233,-0.4318 -0.385233,-0.973666 0,-0.605366 0.414866,-1.011766 0.414867,-0.406399 1.037166,-0.406399 h 0.325967 v 0.325966 h -0.186267 q -0.491066,0 -0.817033,0.245533 -0.321733,0.245533 -0.355599,0.651933 h 1.358899 v 0.325966 h -1.358899 q 0,0.156634 0.05503,0.296334 0.05927,0.139699 0.262466,0.397933 0.2032,0.253999 0.8128,0.253999 z m 0.753525,0.325967 H 52.099343 V 95.32799 q 0,-0.491067 0.237067,-0.762 0.2413,-0.275166 0.677333,-0.275166 0.372533,0 0.630766,0.2286 0.258233,0.228599 0.258233,0.558799 0,0.4191 -0.4191,0.6604 0.262467,0.09313 0.364067,0.266699 0.1016,0.169334 0.1016,0.5334 v 0.651933 h -0.376767 v -0.541866 q 0,-0.364067 -0.110066,-0.529167 -0.105834,-0.169333 -0.461433,-0.169333 h -0.376767 v -0.325966 h 0.270933 q 0.2921,0 0.452967,-0.131233 0.1651,-0.131234 0.1651,-0.3683 0,-0.211667 -0.1397,-0.351367 -0.1397,-0.139699 -0.351367,-0.139699 -0.152399,0 -0.270933,0.06773 -0.118533,0.06773 -0.198966,0.207433 -0.0762,0.1397 -0.0762,0.486833 z"
         id="path26" />
      <path
         d="m 30.069131,102.48232 v -0.32597 h 0.884765 q 0.5969,0 0.5969,-0.40217 0,-0.25823 -0.3175,-0.41063 l -0.706966,-0.33443 q -0.465666,-0.22013 -0.465666,-0.65617 0,-0.694264 0.876299,-0.694264 h 0.859366 v 0.325966 h -0.757766 q -0.2032,0 -0.296333,0.01694 -0.09313,0.0169 -0.194733,0.0974 -0.09737,0.0804 -0.09737,0.25824 0,0.13546 0.0635,0.2159 0.0635,0.0804 0.2286,0.15663 l 0.745066,0.3429 q 0.452966,0.21166 0.452966,0.67733 0,0.73237 -0.880532,0.73237 z m 3.881959,-0.32597 v 0.32597 h -0.330199 q -0.6731,0 -1.062566,-0.4318 -0.385233,-0.4318 -0.385233,-0.97367 0,-0.60536 0.414866,-1.01176 0.414866,-0.406404 1.037166,-0.406404 h 0.325966 v 0.325966 h -0.186266 q -0.491067,0 -0.817033,0.245538 -0.321733,0.24553 -0.3556,0.65193 h 1.358899 v 0.32596 h -1.358899 q 0,0.15664 0.05503,0.29634 0.05927,0.1397 0.262466,0.39793 0.2032,0.254 0.812799,0.254 z m 1.998126,-0.0127 v 0.33867 h -0.1143 q -0.448733,0 -0.664633,-0.0508 -0.2159,-0.055 -0.457199,-0.23707 -0.2413,-0.18627 -0.385233,-0.4826 -0.143934,-0.29633 -0.143934,-0.64347 0,-0.59689 0.4191,-1.00329 0.4191,-0.406404 1.041399,-0.406404 h 0.3048 v 0.338666 h -0.207433 q -0.516466,0 -0.842433,0.300568 -0.325966,0.30057 -0.325966,0.77893 0,0.28363 0.1397,0.53763 0.139699,0.24977 0.325966,0.35984 0.186267,0.11006 0.347133,0.1397 0.160867,0.0296 0.474133,0.0296 z m 2.374897,0.33867 h -0.376767 v -1.30387 h -1.240365 v 1.30387 h -0.376767 v -2.823634 h 0.376767 v 1.193804 h 1.240365 v -1.193804 h 0.376767 z m 0.427563,0 v -0.32597 h 0.884766 q 0.5969,0 0.5969,-0.40217 0,-0.25823 -0.3175,-0.41063 l -0.706966,-0.33443 q -0.465666,-0.22013 -0.465666,-0.65617 0,-0.694264 0.876299,-0.694264 h 0.859366 v 0.325966 h -0.757766 q -0.2032,0 -0.296333,0.01694 -0.09313,0.0169 -0.194734,0.0974 -0.09737,0.0804 -0.09737,0.25824 0,0.13546 0.0635,0.2159 0.0635,0.0804 0.2286,0.15663 l 0.745066,0.3429 q 0.452966,0.21166 0.452966,0.67733 0,0.73237 -0.880533,0.73237 z m 3.928527,-2.823634 h 0.376766 v 2.472264 q 0,0.381 -0.287866,0.381 -0.2286,0 -0.376766,-0.3048 l -0.969433,-2.04046 v 2.31563 h -0.376766 v -2.44687 q 0,-0.406397 0.296333,-0.406397 0.2413,0 0.389466,0.313266 l 0.948266,2.006601 z m 2.319861,2.497664 v 0.32597 h -0.516466 q -0.4953,0 -0.7239,-0.2286 -0.224366,-0.23284 -0.224366,-0.74084 v -1.854194 h 0.376766 v 1.777994 q 0,0.2413 0.0381,0.3683 0.0381,0.127 0.131234,0.21167 0.09313,0.0804 0.203199,0.11007 0.1143,0.0296 0.325967,0.0296 z m 2.298695,0.32597 h -0.376766 v -1.2192 h -1.075266 v -0.32597 h 1.075266 v -0.18203 q 0,-0.24553 -0.0254,-0.3556 -0.02117,-0.11007 -0.143934,-0.28363 -0.122766,-0.177804 -0.423333,-0.177804 -0.622299,0 -0.622299,0.783164 v 1.76107 h -0.376766 v -1.74413 q 0,-0.53764 0.258233,-0.838204 0.262466,-0.3048 0.723899,-0.3048 0.262467,0 0.474133,0.1143 0.2159,0.110067 0.325966,0.283633 0.1143,0.173571 0.148167,0.342901 0.0381,0.1651 0.0381,0.42333 z m 2.048925,-0.33867 v 0.33867 h -0.1143 q -0.448733,0 -0.664633,-0.0508 -0.2159,-0.055 -0.457199,-0.23707 -0.2413,-0.18627 -0.385233,-0.4826 -0.143934,-0.29633 -0.143934,-0.64347 0,-0.59689 0.4191,-1.00329 0.4191,-0.406404 1.041399,-0.406404 h 0.3048 v 0.338666 h -0.207433 q -0.516466,0 -0.842433,0.300568 -0.325966,0.30057 -0.325966,0.77893 0,0.28363 0.1397,0.53763 0.1397,0.24977 0.325966,0.35984 0.186267,0.11006 0.347133,0.1397 0.160867,0.0296 0.474133,0.0296 z m 2.374897,0.33867 h -0.376767 v -1.30387 h -1.240365 v 1.30387 h -0.376767 v -2.823634 h 0.376767 v 1.193804 h 1.240365 v -1.193804 h 0.376767 z m 1.519763,0 h -0.376766 v -2.497668 h -0.719666 v -0.325966 h 1.807632 v 0.325966 h -0.7112 z"
         id="path27" />
      <path
         d="m 29.489176,107.77398 v -0.32597 h 0.884766 q 0.5969,0 0.5969,-0.40216 0,-0.25824 -0.3175,-0.41064 l -0.706966,-0.33443 q -0.465667,-0.22013 -0.465667,-0.65617 0,-0.69426 0.8763,-0.69426 h 0.859366 v 0.32596 h -0.757766 q -0.2032,0 -0.296333,0.0169 -0.09313,0.0169 -0.194734,0.0974 -0.09737,0.0804 -0.09737,0.25824 0,0.13546 0.0635,0.2159 0.0635,0.0804 0.2286,0.15663 l 0.745066,0.3429 q 0.452966,0.21167 0.452966,0.67733 0,0.73237 -0.880533,0.73237 z m 2.717794,0 h -0.376766 v -2.82363 h 0.376766 z m 2.158993,-0.32597 v 0.32597 h -0.3302 q -0.6731,0 -1.062566,-0.4318 -0.385233,-0.4318 -0.385233,-0.97367 0,-0.60536 0.414866,-1.01176 0.414867,-0.4064 1.037166,-0.4064 h 0.325967 v 0.32596 h -0.186267 q -0.491066,0 -0.817033,0.24554 -0.321733,0.24553 -0.355599,0.65193 h 1.358899 v 0.32597 h -1.358899 q 0,0.15663 0.05503,0.29633 0.05927,0.1397 0.262467,0.39793 0.203199,0.254 0.812799,0.254 z m 0.753526,0.32597 h -0.376767 v -1.88807 q 0,-0.4572 0.249767,-0.7239 0.249766,-0.2667 0.685799,-0.2667 0.385233,0 0.639233,0.2159 0.254,0.2159 0.254,0.5461 0,0.41487 -0.376766,0.61384 0.520699,0.19473 0.520699,0.7112 0,0.35983 -0.245533,0.57573 -0.245533,0.2159 -0.660399,0.2159 h -0.5461 v -0.32597 h 0.452966 q 0.6096,0 0.6096,-0.49106 0,-0.2794 -0.156633,-0.37254 -0.156634,-0.0974 -0.249767,-0.1143 -0.0889,-0.0169 -0.275166,-0.0169 h -0.381 v -0.2921 h 0.287866 q 0.1778,0 0.275167,-0.0212 0.09737,-0.0212 0.224366,-0.11853 0.131234,-0.0974 0.131234,-0.33443 0,-0.19474 -0.143934,-0.32174 -0.143933,-0.127 -0.364066,-0.127 -0.283633,0 -0.4191,0.17357 -0.135466,0.17357 -0.135466,0.54187 z m 3.602559,-0.32597 v 0.32597 h -0.330199 q -0.6731,0 -1.062566,-0.4318 -0.385233,-0.4318 -0.385233,-0.97367 0,-0.60536 0.414866,-1.01176 0.414867,-0.4064 1.037166,-0.4064 h 0.325966 v 0.32596 h -0.186266 q -0.491066,0 -0.817033,0.24554 -0.321733,0.24553 -0.355599,0.65193 h 1.358898 v 0.32597 H 37.36315 q 0,0.15663 0.05503,0.29633 0.05927,0.1397 0.262466,0.39793 0.2032,0.254 0.8128,0.254 z m 2.057392,-2.49766 h 0.376767 v 2.47226 q 0,0.381 -0.287867,0.381 -0.2286,0 -0.376766,-0.3048 l -0.969433,-2.04046 v 2.31563 h -0.376766 v -2.44687 q 0,-0.4064 0.296333,-0.4064 0.2413,0 0.389466,0.31327 l 0.948266,2.0066 z m 2.734728,2.49766 v 0.32597 h -1.528232 q -0.4064,0 -0.4064,-0.28363 0,-0.13124 0.131233,-0.3175 l 1.418166,-1.89654 h -1.392766 v -0.32596 h 1.363132 q 0.397933,0 0.397933,0.28363 0,0.0847 -0.03387,0.16087 -0.03387,0.0762 -0.135467,0.2159 l -1.371599,1.83726 z m 3.318924,-2.49766 h 0.376767 v 1.84996 q 0,0.28787 -0.04657,0.44874 -0.04657,0.16086 -0.2413,0.37253 -0.190499,0.20743 -0.605366,0.20743 -0.283633,0 -0.474133,-0.11006 -0.186266,-0.1143 -0.317499,-0.36407 -0.254,0.47413 -0.7493,0.47413 -0.393699,0 -0.639233,-0.254 -0.245533,-0.254 -0.245533,-0.6604 v -1.96426 h 0.376767 v 1.87536 q 0,0.6604 0.524932,0.6604 0.2667,0 0.410633,-0.17356 0.148167,-0.1778 0.148167,-0.4953 v -1.8669 h 0.376766 v 1.87113 q 0,0.3175 0.143934,0.49107 0.143933,0.17356 0.406399,0.17356 0.321733,0 0.436033,-0.1905 0.118533,-0.1905 0.118533,-0.49953 z m 2.116659,-0.055 q 0.618066,0 1.041399,0.42757 0.427566,0.42333 0.427566,1.04987 0,0.59266 -0.431799,1.02446 -0.4318,0.4318 -1.028699,0.4318 -0.6096,0 -1.037166,-0.42756 -0.427566,-0.42757 -0.427566,-1.03717 0,-0.6096 0.423332,-1.03717 0.427567,-0.4318 1.032933,-0.4318 z m 0.0085,0.3429 q -0.4445,0 -0.762,0.3302 -0.313266,0.32597 -0.313266,0.78317 0,0.47413 0.313266,0.80433 0.313267,0.3302 0.762,0.3302 0.436033,0 0.753532,-0.3302 0.3175,-0.3302 0.3175,-0.7874 0,-0.47413 -0.313266,-0.8001 -0.309033,-0.3302 -0.757766,-0.3302 z m -0.3556,-0.96943 q 0.08043,0 0.135466,0.055 0.05503,0.055 0.05503,0.13546 0,0.0804 -0.05503,0.13547 -0.05503,0.055 -0.135466,0.055 -0.08043,0 -0.135467,-0.055 -0.05503,-0.055 -0.05503,-0.13547 0,-0.0804 0.05503,-0.13546 0.05503,-0.055 0.135467,-0.055 z m 0.706966,-0.008 q 0.08043,0 0.135467,0.055 0.05503,0.055 0.05503,0.13547 0,0.0847 -0.05503,0.1397 -0.05503,0.055 -0.135467,0.055 -0.08467,0 -0.1397,-0.055 -0.05503,-0.055 -0.05503,-0.1397 0,-0.0804 0.05503,-0.13547 0.05503,-0.055 0.1397,-0.055 z m 2.861725,3.18769 v 0.32597 h -0.516466 q -0.495299,0 -0.723899,-0.2286 -0.224367,-0.23283 -0.224367,-0.74083 v -1.8542 h 0.376767 v 1.778 q 0,0.2413 0.0381,0.3683 0.0381,0.127 0.131233,0.21166 0.09313,0.0804 0.2032,0.11007 0.1143,0.0296 0.325966,0.0296 z m 0.706963,0.32597 h -0.376766 v -1.88807 q 0,-0.46143 0.249766,-0.6985 0.249767,-0.23706 0.7366,-0.23706 h 0.507999 v 0.32596 h -0.503766 q -0.321733,0 -0.4699,0.15664 -0.143933,0.1524 -0.143933,0.4953 v 0.3048 h 1.117599 v 0.32596 h -1.117599 z"
         id="path28" />
      <path
         d="m 30.509416,112.73968 v 0.32596 h -1.528232 q -0.4064,0 -0.4064,-0.28363 0,-0.13123 0.131234,-0.3175 l 1.418165,-1.89653 h -1.392765 v -0.32597 h 1.363132 q 0.397933,0 0.397933,0.28363 0,0.0847 -0.03387,0.16087 -0.03387,0.0762 -0.135466,0.2159 l -1.371599,1.83727 z m 2.010828,0 v 0.32596 h -0.3302 q -0.673099,0 -1.062566,-0.4318 -0.385233,-0.4318 -0.385233,-0.97366 0,-0.60537 0.414867,-1.01177 0.414866,-0.4064 1.037166,-0.4064 h 0.325966 v 0.32597 h -0.186267 q -0.491066,0 -0.817032,0.24553 -0.321733,0.24553 -0.3556,0.65193 h 1.358899 v 0.32597 h -1.358899 q 0,0.15663 0.05503,0.29633 0.05927,0.1397 0.262467,0.39794 0.2032,0.254 0.812799,0.254 z m 2.417225,0.32596 h -0.376767 v -1.30386 h -1.240365 v 1.30386 H 32.94357 v -2.82363 h 0.376767 v 1.1938 h 1.240365 v -1.1938 h 0.376767 z m 2.158995,-2.82363 h 0.376766 v 2.47227 q 0,0.38099 -0.287866,0.38099 -0.2286,0 -0.376766,-0.3048 l -0.969433,-2.04046 v 2.31563 h -0.376766 v -2.44686 q 0,-0.4064 0.296333,-0.4064 0.2413,0 0.389466,0.31326 l 0.948266,2.0066 z m 2.489193,2.49767 v 0.32596 h -0.330199 q -0.6731,0 -1.062566,-0.4318 -0.385233,-0.4318 -0.385233,-0.97366 0,-0.60537 0.414866,-1.01177 0.414867,-0.4064 1.037166,-0.4064 h 0.325966 v 0.32597 h -0.186266 q -0.491066,0 -0.817033,0.24553 -0.321733,0.24553 -0.355599,0.65193 h 1.358898 v 0.32597 h -1.358898 q 0,0.15663 0.05503,0.29633 0.05927,0.1397 0.262466,0.39794 0.2032,0.254 0.8128,0.254 z m 1.943092,-2.49767 h 0.376767 v 1.77377 q 0,0.28363 -0.05927,0.4699 -0.05927,0.18203 -0.270933,0.41063 -0.207433,0.22436 -0.6477,0.22436 -0.465666,0 -0.715432,-0.29633 -0.249767,-0.30056 -0.249767,-0.7493 v -1.83303 h 0.376767 v 1.78647 q 0,0.35983 0.156633,0.55456 0.156633,0.19473 0.444499,0.19473 0.321734,0 0.4318,-0.18626 0.1143,-0.1905 0.135467,-0.29633 0.02117,-0.11007 0.02117,-0.3048 z m 2.480725,0 h 0.376766 v 2.47227 q 0,0.38099 -0.287866,0.38099 -0.2286,0 -0.376767,-0.3048 l -0.969432,-2.04046 v 2.31563 h -0.376767 v -2.44686 q 0,-0.4064 0.296334,-0.4064 0.241299,0 0.389466,0.31326 l 0.948266,2.0066 z m 1.27846,2.82363 h -0.376767 v -2.82363 h 0.376767 v 1.17687 H 45.6139 q 0.198967,0 0.3048,-0.0804 0.105833,-0.0804 0.198966,-0.3048 l 0.3175,-0.79163 h 0.402166 l -0.364066,0.8509 q -0.08467,0.19897 -0.148166,0.2794 -0.05927,0.0762 -0.182034,0.14393 0.182034,0.0508 0.2794,0.11007 0.1016,0.0593 0.186267,0.1778 0.0889,0.11853 0.1143,0.23707 0.0254,0.1143 0.0254,0.381 v 0.33866 l 0.0127,0.3048 H 46.3886 l -0.01693,-0.27517 v -0.33866 q 0,-0.2286 -0.02117,-0.32597 -0.02117,-0.0974 -0.135467,-0.23706 -0.1143,-0.14394 -0.440266,-0.14394 h -0.486833 z m 3.49249,-2.82363 h 0.376766 v 1.77377 q 0,0.28363 -0.05927,0.4699 -0.05927,0.18203 -0.270933,0.41063 -0.207434,0.22436 -0.6477,0.22436 -0.465666,0 -0.715433,-0.29633 -0.249766,-0.30056 -0.249766,-0.7493 v -1.83303 h 0.376766 v 1.78647 q 0,0.35983 0.156633,0.55456 0.156634,0.19473 0.4445,0.19473 0.321733,0 0.4318,-0.18626 0.1143,-0.1905 0.135466,-0.29633 0.02117,-0.11007 0.02117,-0.3048 z m 2.840557,2.82363 h -0.376766 v -1.30386 h -1.240366 v 1.30386 h -0.376766 v -2.82363 h 0.376766 v 1.1938 h 1.240366 v -1.1938 h 0.376766 z m 0.855129,0 h -0.376766 v -1.86266 q 0,-0.49107 0.237066,-0.762 0.2413,-0.27517 0.677333,-0.27517 0.372533,0 0.630766,0.2286 0.258233,0.2286 0.258233,0.5588 0,0.4191 -0.419099,0.6604 0.262466,0.0931 0.364066,0.2667 0.1016,0.16933 0.1016,0.5334 v 0.65193 h -0.376766 v -0.54186 q 0,-0.36407 -0.110067,-0.52917 -0.105833,-0.16933 -0.461433,-0.16933 h -0.376766 v -0.32597 h 0.270933 q 0.2921,0 0.452966,-0.13123 0.1651,-0.13124 0.1651,-0.3683 0,-0.21167 -0.1397,-0.35137 -0.1397,-0.1397 -0.351366,-0.1397 -0.1524,0 -0.270933,0.0677 -0.118534,0.0677 -0.198967,0.20744 -0.0762,0.1397 -0.0762,0.48683 z"
         id="path29" />
    </g>
  </g>
</svg>
