<?xml version="1.0" encoding="UTF-8" standalone="no"?>
<!-- Created with Inkscape (http://www.inkscape.org/) -->

<svg
   width="58.023479mm"
   height="92.169983mm"
   viewBox="0 0 58.023479 92.169983"
   version="1.1"
   id="svg1"
   xmlns:inkscape="http://www.inkscape.org/namespaces/inkscape"
   xmlns:sodipodi="http://sodipodi.sourceforge.net/DTD/sodipodi-0.dtd"
   xmlns="http://www.w3.org/2000/svg"
   xmlns:svg="http://www.w3.org/2000/svg">
  <sodipodi:namedview
     id="namedview1"
     pagecolor="#ffffff"
     bordercolor="#000000"
     borderopacity="0.25"
     inkscape:showpageshadow="2"
     inkscape:pageopacity="0.0"
     inkscape:pagecheckerboard="0"
     inkscape:deskcolor="#d1d1d1"
     inkscape:document-units="mm" />
  <defs
     id="defs1" />
  <g
     inkscape:label="Ebene 1"
     inkscape:groupmode="layer"
     id="layer1"
     transform="translate(-15.752014,-59.761652)">
    <path
       id="text4"
       style="font-size:4.23333px;font-family:Bauhaus;-inkscape-font-specification:'Bauhaus, Normal';text-align:end;text-anchor:end;fill:#000000;fill-opacity:1;stroke:none;stroke-width:0.19923;stroke-linecap:round;stroke-linejoin:round;stroke-dasharray:none;stroke-opacity:1"
       d="m 62.492073,59.761651 c -0.124428,0 -0.227858,0.0335 -0.308743,0.09955 -0.08089,0.06606 -0.120764,0.147219 -0.120764,0.243759 0,0.101613 0.03988,0.185148 0.120764,0.251202 0.08089,0.06606 0.184308,0.09955 0.308743,0.09955 0.118204,0 0.217598,-0.0335 0.298491,-0.09955 0.08089,-0.06606 0.120763,-0.149577 0.120763,-0.251202 0,-0.09653 -0.03988,-0.177699 -0.120763,-0.243759 -0.08089,-0.06606 -0.180273,-0.09955 -0.298491,-0.09955 z m -1.558534,0.01584 c -0.118204,0 -0.217598,0.03257 -0.29849,0.09862 -0.08089,0.06606 -0.121902,0.147218 -0.121902,0.243759 0,0.09653 0.04102,0.177699 0.121902,0.243759 0.08089,0.06606 0.180273,0.09955 0.29849,0.09955 0.118204,0 0.217598,-0.0335 0.298493,-0.09955 0.08089,-0.06606 0.120763,-0.147218 0.120763,-0.243759 0,-0.09653 -0.03988,-0.177699 -0.120763,-0.243759 -0.08089,-0.06606 -0.180273,-0.09862 -0.298493,-0.09862 z m -8.493325,1.112735 c -0.678192,0 -1.210369,0.183083 -1.596127,0.548924 -0.379542,0.360758 -0.569644,0.863775 -0.569644,1.509077 v 3.140031 h 0.831676 v -3.170735 c 0,-0.940003 0.457063,-1.410456 1.371693,-1.410456 0.441757,0 0.752631,0.106638 0.933069,0.320051 0.180428,0.208326 0.286749,0.378671 0.317859,0.510778 0.03732,0.132113 0.05581,0.345398 0.05581,0.640102 v 0.328425 h -2.370835 v 0.586137 h 2.370838 v 2.195698 h 0.830533 v -3.101886 c 0,-0.309947 -0.02831,-0.564749 -0.08431,-0.762912 -0.04978,-0.203243 -0.158975,-0.408517 -0.326974,-0.616843 -0.161775,-0.208321 -0.400424,-0.378668 -0.717743,-0.510778 -0.311101,-0.13719 -0.660097,-0.205613 -1.045861,-0.205613 z m 13.113102,0.06047 c -0.435538,0 -0.653946,0.244421 -0.653946,0.732207 v 4.405349 h 0.830533 v -4.169033 l 2.137288,3.673142 c 0.217775,0.365838 0.494547,0.548923 0.830535,0.548923 0.423094,0 0.634577,-0.228391 0.634577,-0.685691 V 61.004657 H 68.50177 V 65.12717 L 66.411192,61.514509 C 66.193418,61.138507 65.907967,60.9507 65.553316,60.9507 Z m -38.573709,0.05396 c -0.914628,0 -1.676779,0.243493 -2.286534,0.731279 -0.60975,0.487784 -0.914841,1.095086 -0.914841,1.821682 0,0.650382 0.283704,1.234565 0.849904,1.752836 0.57242,0.518272 1.353067,0.777797 2.342356,0.777797 h 0.728002 v -0.587092 h -0.503562 c -0.895965,0 -1.493433,-0.152889 -1.792088,-0.457746 -0.298652,-0.309947 -0.491645,-0.548716 -0.578753,-0.716394 -0.08089,-0.16767 -0.121902,-0.345107 -0.121902,-0.533108 h 2.996305 v -0.587068 h -2.996305 c 0.04978,-0.487787 0.312092,-0.878506 0.784964,-1.17321 0.479092,-0.294703 1.079453,-0.442861 1.8012,-0.442861 h 0.410141 v -0.586139 z m 3.35062,0 c -1.287947,0 -1.932216,0.416201 -1.932216,1.249499 0,0.523355 0.343212,0.917366 1.027627,1.181582 l 1.558536,0.601957 c 0.466646,0.182918 0.699517,0.429704 0.699517,0.739652 0,0.482705 -0.43857,0.723836 -1.315869,0.723836 h -1.950444 v 0.587068 h 2.183997 c 1.294167,0 1.94133,-0.440246 1.94133,-1.319278 0,-0.558919 -0.333397,-0.964742 -0.999146,-1.218797 l -1.642841,-0.617766 c -0.242658,-0.09146 -0.410232,-0.185364 -0.503561,-0.281906 -0.09331,-0.09653 -0.140127,-0.226304 -0.140127,-0.388897 0,-0.213408 0.07222,-0.36772 0.215328,-0.464262 0.149319,-0.09653 0.291483,-0.155517 0.428366,-0.175844 0.136887,-0.02033 0.355293,-0.0307 0.653949,-0.0307 h 1.670181 v -0.586139 z m 3.145549,0 v 5.083594 h 0.830536 v -2.378049 h 1.073199 c 0.47909,0 0.802673,0.0859 0.970667,0.258644 0.167993,0.167671 0.267381,0.31018 0.29849,0.427045 0.03111,0.116864 0.04672,0.312689 0.04672,0.587069 v 0.6094 l 0.03759,0.495891 h 0.82142 l -0.02849,-0.548923 V 64.92898 c 0,-0.320109 -0.01851,-0.5485 -0.05581,-0.685688 -0.03732,-0.142268 -0.121118,-0.284775 -0.25178,-0.427045 -0.12443,-0.142268 -0.261955,-0.248915 -0.41128,-0.320051 -0.143104,-0.07114 -0.347668,-0.13719 -0.615209,-0.198171 0.180427,-0.08131 0.313918,-0.167185 0.401025,-0.258645 0.09333,-0.09653 0.20254,-0.264525 0.326973,-0.503336 l 0.802052,-1.531406 h -0.88636 l -0.699517,1.425342 c -0.136886,0.269298 -0.283073,0.451453 -0.438622,0.547994 -0.155558,0.09653 -0.379742,0.145148 -0.672174,0.145148 h -0.718884 v -2.118474 z m 5.282837,0 v 5.083594 h 0.830535 v -5.083594 z m 3.789243,0 c -1.287948,0 -1.932219,0.416201 -1.932219,1.249499 0,0.523355 0.342074,0.917366 1.026492,1.181582 l 1.558533,0.601957 c 0.466646,0.182918 0.699517,0.429704 0.699517,0.739652 0,0.482705 -0.438568,0.723836 -1.315867,0.723836 h -1.950446 v 0.587068 h 2.183998 c 1.294169,0 1.941331,-0.440246 1.941331,-1.319278 0,-0.558919 -0.333397,-0.964742 -0.999146,-1.218797 L 42.118347,62.93238 c -0.242657,-0.09146 -0.411372,-0.185365 -0.5047,-0.281906 -0.09333,-0.09653 -0.140127,-0.226304 -0.140127,-0.388898 0,-0.213408 0.07222,-0.367719 0.215326,-0.464261 0.149321,-0.09653 0.292628,-0.155518 0.429511,-0.175844 0.136886,-0.02033 0.35415,-0.0307 0.652807,-0.0307 h 1.670181 v -0.586138 z m 2.921109,0 V 61.5908 h 1.585878 v 4.497456 h 0.830536 V 61.5908 h 1.568785 v -0.586138 z m 12.254085,0 c -0.715523,0 -1.257517,0.141565 -1.62461,0.426114 -0.367097,0.284541 -0.550273,0.704035 -0.550273,1.257872 v 3.399608 h 0.830535 v -2.187316 h 2.46426 v -0.587069 h -2.46426 V 62.76494 c 0,-0.41157 0.106314,-0.709314 0.317859,-0.892234 0.217775,-0.188001 0.562735,-0.281906 1.035606,-0.281906 h 1.110795 v -0.586138 z m 1.857025,0 v 3.300057 c 0,0.538597 0.183185,0.988292 0.550271,1.34905 0.367097,0.355677 0.893485,0.533108 1.577904,0.533108 0.647085,0 1.122639,-0.13449 1.427516,-0.403784 0.3111,-0.27438 0.509874,-0.521165 0.596982,-0.739652 0.08711,-0.223569 0.131025,-0.505281 0.131025,-0.845716 v -3.193063 h -0.830534 v 3.147476 c 0,0.23373 -0.01566,0.416814 -0.04672,0.548924 -0.03111,0.127017 -0.130487,0.304457 -0.298493,0.533108 -0.161776,0.223565 -0.479566,0.335866 -0.952438,0.335866 -0.423089,0 -0.749566,-0.117025 -0.979779,-0.350754 -0.230213,-0.233731 -0.3452,-0.566403 -0.3452,-0.998297 v -3.216323 z m 12.972972,0 c -0.715526,0 -1.257515,0.141565 -1.624611,0.426114 -0.367098,0.284541 -0.550272,0.704035 -0.550272,1.257872 v 3.399608 h 0.830534 v -2.187322 h 2.464259 V 63.31384 h -2.464259 v -0.548923 c 0,-0.41157 0.106301,-0.709314 0.317857,-0.892234 0.217775,-0.188002 0.562735,-0.281906 1.035606,-0.281906 h 1.110796 V 61.004638 Z M 51.81475,70.41731 c -0.678195,0 -1.210369,0.183083 -1.596129,0.548924 -0.37954,0.360755 -0.568501,0.863777 -0.568501,1.509074 v 3.140034 h 0.830536 v -3.170736 c 0,-0.940002 0.457061,-1.410456 1.371691,-1.410456 0.44176,0 0.752632,0.106638 0.93307,0.320051 0.180427,0.208325 0.286748,0.37867 0.317857,0.510779 0.03732,0.132113 0.05581,0.345397 0.05581,0.640102 v 0.328424 h -2.370836 v 0.586144 h 2.370841 v 2.195698 h 0.830534 v -3.101887 c 0,-0.309949 -0.0283,-0.564749 -0.08431,-0.762912 -0.04978,-0.203245 -0.158978,-0.408516 -0.326972,-0.616842 -0.161777,-0.208326 -0.400427,-0.378672 -0.717748,-0.510778 -0.311096,-0.13719 -0.660095,-0.205613 -1.045855,-0.205613 z m 18.806079,0.01494 c -0.920849,0 -1.692818,0.251507 -2.315016,0.754538 -0.622194,0.503026 -0.933069,1.123068 -0.933069,1.859829 0,0.757083 0.310875,1.392226 0.933069,1.905417 0.622198,0.513192 1.391273,0.769425 2.305901,0.769425 0.671974,0 1.275226,-0.149595 1.810315,-0.449374 0.541311,-0.299785 0.901879,-0.653213 1.082315,-1.059703 0.180429,-0.406486 0.271148,-0.8156 0.271148,-1.22717 v -0.2205 h -3.276566 v 0.587068 h 2.399321 c 0,0.508112 -0.218414,0.926673 -0.653945,1.256945 -0.435539,0.330272 -0.973496,0.495892 -1.614359,0.495892 -0.690637,0 -1.26269,-0.198187 -1.716893,-0.594512 -0.454203,-0.396327 -0.681289,-0.892259 -0.681289,-1.486749 0,-0.564 0.229978,-1.033523 0.690404,-1.409523 0.460425,-0.376004 1.036508,-0.563812 1.727145,-0.563812 0.671974,0 1.28101,0.215653 1.828543,0.647545 l 0.58787,-0.449366 c -0.678196,-0.543678 -1.492932,-0.815942 -2.444894,-0.815942 z m -39.030562,0.04558 c -0.435535,0 -0.652804,0.244422 -0.652804,0.732209 v 4.405348 h 0.830535 v -4.169032 l 2.137288,3.67314 c 0.217775,0.365838 0.494547,0.548923 0.830534,0.548923 0.423091,0 0.634576,-0.228389 0.634576,-0.685689 v -4.450936 h -0.830533 v 4.122511 l -2.090576,-3.612665 c -0.217774,-0.376 -0.504365,-0.563809 -0.85902,-0.563809 z m 24.098031,0 c -0.435535,0 -0.653944,0.244422 -0.653944,0.732209 v 4.405348 h 0.830534 v -4.169032 l 2.137288,3.67314 c 0.217774,0.365838 0.495686,0.548923 0.831673,0.548923 0.423093,0 0.634577,-0.228389 0.634577,-0.685689 v -4.450936 h -0.831674 v 4.122511 l -2.090575,-3.612665 c -0.217775,-0.376 -0.503225,-0.563809 -0.857879,-0.563809 z m -39.591085,0.05396 v 0.586137 h 3.071497 l -3.127321,3.414495 c -0.192884,0.223569 -0.289376,0.414671 -0.289376,0.572183 0,0.340436 0.299306,0.510779 0.896611,0.510779 h 3.368849 v -0.587055 h -3.434926 l 3.024786,-3.307502 c 0.149319,-0.16767 0.248715,-0.297438 0.298493,-0.388897 0.04979,-0.09146 0.07405,-0.188657 0.07405,-0.29028 0,-0.340431 -0.292383,-0.509846 -0.877246,-0.509846 z m 7.634309,0 c -0.914627,0 -1.676779,0.243495 -2.286532,0.731277 -0.609753,0.487786 -0.913702,1.095087 -0.913702,1.821684 0,0.650382 0.282564,1.234564 0.848764,1.752837 0.572419,0.518271 1.353065,0.777796 2.342358,0.777796 h 0.727997 v -0.58707 h -0.503559 c -0.895965,0 -1.493431,-0.152889 -1.792088,-0.457747 -0.298653,-0.309949 -0.491646,-0.548717 -0.578754,-0.716393 -0.08089,-0.167671 -0.120763,-0.345107 -0.120763,-0.533108 h 2.995164 v -0.587069 h -2.995164 c 0.04979,-0.487786 0.310954,-0.878504 0.783824,-1.173209 0.479094,-0.294704 1.079453,-0.442862 1.8012,-0.442862 h 0.41014 v -0.586137 z m 1.651955,0 v 5.083594 h 0.831674 v -2.347346 h 2.73427 v 2.347346 h 0.830534 V 70.53179 h -0.830534 v 2.149176 h -2.73427 V 70.53179 Z m 11.265191,0 v 0.586137 h 3.070357 l -3.126181,3.414495 c -0.192883,0.223569 -0.289377,0.414671 -0.289377,0.572183 0,0.340436 0.299302,0.510779 0.896612,0.510779 h 3.368848 v -0.587069 h -3.434925 l 3.023645,-3.307502 c 0.149321,-0.16767 0.249855,-0.297438 0.299631,-0.388897 0.04979,-0.09146 0.07405,-0.188657 0.07405,-0.29028 0,-0.340431 -0.292379,-0.509846 -0.877245,-0.509846 z m 4.750792,0 v 3.536373 c 0,0.487787 0.180296,0.88416 0.541158,1.189026 0.360876,0.304864 0.830646,0.456816 1.40929,0.456816 0.727968,0 1.278636,-0.284075 1.651955,-0.853158 0.192883,0.299785 0.425751,0.517797 0.699515,0.654987 0.27999,0.132112 0.628986,0.198171 1.04586,0.198171 0.609753,0 1.054106,-0.124101 1.334095,-0.373083 0.286211,-0.254052 0.463604,-0.477721 0.532043,-0.670804 0.06844,-0.193082 0.102542,-0.462985 0.102542,-0.808499 V 70.53179 h -0.830535 v 3.322385 c 0,0.370922 -0.08668,0.671027 -0.260894,0.899678 -0.167994,0.228649 -0.488683,0.34331 -0.961554,0.34331 -0.385759,0 -0.683925,-0.104274 -0.895471,-0.312608 -0.211557,-0.208325 -0.317861,-0.503707 -0.317861,-0.884792 v -3.367974 h -0.830532 v 3.36053 c 0,0.381084 -0.109204,0.678828 -0.326972,0.892234 -0.211559,0.208326 -0.512604,0.312609 -0.904588,0.312609 -0.771525,0 -1.157508,-0.396374 -1.157508,-1.189026 v -3.376347 z m 19.347238,0 v 0.586137 h 3.070358 l -3.126182,3.414495 c -0.192883,0.223569 -0.289379,0.414671 -0.289379,0.572183 0,0.340436 0.298165,0.510779 0.895474,0.510779 h 3.369989 v -0.587069 h -3.434926 l 3.023645,-3.307502 c 0.149321,-0.16767 0.248717,-0.297438 0.298491,-0.388897 0.04978,-0.09146 0.07521,-0.188657 0.07521,-0.29028 0,-0.340431 -0.292379,-0.509846 -0.877245,-0.509846 z m 4.955864,0 v 5.083594 h 0.830533 V 70.53179 Z m -30.724076,9.389391 c -0.640864,0 -1.138946,0.165618 -1.493595,0.495901 -0.348431,0.325186 -0.52293,0.781964 -0.52293,1.371378 v 3.35401 h 0.830535 v -3.232141 c 0,-0.416647 0.05661,-0.708744 0.16861,-0.876415 0.118204,-0.16767 0.264407,-0.29179 0.438623,-0.373077 0.17421,-0.08131 0.372992,-0.121887 0.596982,-0.121887 0.3111,0 0.569385,0.08354 0.774712,0.251209 0.205318,0.167671 0.308743,0.378606 0.308743,0.632659 0,0.284534 -0.121914,0.505838 -0.364569,0.663355 -0.236435,0.157516 -0.569831,0.23632 -0.999147,0.23632 H 34.119465 V 82.90863 H 34.95 c 0.522647,0 0.86183,0.101921 1.017377,0.305167 0.161778,0.198169 0.242666,0.515741 0.242666,0.952715 v 0.975958 h 0.830535 v -1.174129 c 0,-0.436973 -0.07397,-0.756922 -0.223299,-0.960151 -0.14932,-0.208341 -0.417428,-0.368307 -0.803192,-0.480092 0.615977,-0.289612 0.923956,-0.685988 0.923956,-1.189017 0,-0.396322 -0.190106,-0.732293 -0.56964,-1.006673 -0.37954,-0.27438 -0.842389,-0.411228 -1.389918,-0.411228 z m 23.434969,0 c -0.640864,0 -1.138946,0.165618 -1.493594,0.495901 -0.348432,0.325186 -0.52293,0.781964 -0.52293,1.371378 v 3.35401 h 0.831673 v -3.232141 c 0,-0.416647 0.05547,-0.708744 0.167465,-0.876415 0.118204,-0.16767 0.264408,-0.29179 0.438622,-0.373077 0.174211,-0.08131 0.372993,-0.121887 0.596983,-0.121887 0.311099,0 0.569384,0.08354 0.774712,0.251209 0.205317,0.167671 0.308743,0.378606 0.308743,0.632659 0,0.284534 -0.121914,0.505838 -0.36457,0.663355 -0.236434,0.157516 -0.568693,0.23632 -0.998008,0.23632 h -0.598122 v 0.586137 h 0.830535 c 0.522644,0 0.861828,0.101921 1.017375,0.305167 0.161776,0.198169 0.242668,0.515741 0.242668,0.952715 v 0.975958 h 0.830534 v -1.174129 c 0,-0.436973 -0.07396,-0.756922 -0.2233,-0.960151 -0.14932,-0.208341 -0.417428,-0.368307 -0.803192,-0.480092 0.615977,-0.289612 0.923956,-0.685988 0.923956,-1.189017 0,-0.396322 -0.190106,-0.732293 -0.569639,-1.006673 -0.37954,-0.27438 -0.842388,-0.411228 -1.38992,-0.411228 z m -30.799269,0.137693 v 5.083596 h 0.830533 v -4.497459 h 0.598122 c 0.715526,0 1.297397,0.185459 1.745376,0.556376 0.454203,0.365841 0.681288,0.841019 0.681288,1.425337 0,0.558933 -0.215504,1.016629 -0.644831,1.372315 -0.429315,0.355668 -0.982874,0.533115 -1.661069,0.533115 h -0.42951 v 0.610316 h 0.578757 c 0.796409,0 1.497297,-0.223664 2.100828,-0.670792 0.609753,-0.447145 0.913702,-1.071918 0.913702,-1.874715 0,-0.447146 -0.133489,-0.866637 -0.401025,-1.257881 -0.267544,-0.396322 -0.635036,-0.709177 -1.101683,-0.937826 -0.466646,-0.22865 -1.09418,-0.342382 -1.884366,-0.342382 z m 13.150698,0 c -0.914629,0 -1.676782,0.243504 -2.286532,0.731285 -0.609756,0.487781 -0.914843,1.09509 -0.914843,1.821676 0,0.650393 0.283702,1.234567 0.849902,1.752846 0.572421,0.518262 1.353067,0.777789 2.342357,0.777789 h 0.728 v -0.587073 h -0.5047 c -0.895962,0 -1.493433,-0.152871 -1.792086,-0.457733 -0.298654,-0.309955 -0.490509,-0.548724 -0.577616,-0.716394 -0.08089,-0.16769 -0.121902,-0.345118 -0.121902,-0.533116 h 2.996304 v -0.587072 h -2.996304 c 0.04978,-0.487781 0.310954,-0.878503 0.783825,-1.17321 0.479088,-0.294688 1.079451,-0.442861 1.801199,-0.442861 h 0.41128 v -0.586137 z m 1.754491,0 v 5.083596 h 0.830533 v -5.083596 z m 1.633725,0 1.707777,4.534673 c 0.15556,0.396322 0.43233,0.594509 0.830536,0.594509 0.410648,0 0.68743,-0.193453 0.830535,-0.57962 l 1.64284,-4.549562 h -0.859016 l -1.605244,4.503977 -1.698665,-4.503977 z m 5.822854,0 v 5.083596 h 0.830535 v -5.083596 z m 4.872696,0 c -0.914627,0 -1.67678,0.243504 -2.286533,0.731285 -0.609751,0.487781 -0.914842,1.09509 -0.914842,1.821676 0,0.650393 0.282564,1.234567 0.848764,1.752846 0.572422,0.518262 1.353068,0.777789 2.342358,0.777789 h 0.727999 v -0.587059 h -0.503561 c -0.895963,0 -1.493434,-0.152871 -1.792085,-0.457733 -0.298656,-0.309955 -0.491648,-0.548724 -0.578755,-0.716394 -0.08089,-0.16769 -0.120764,-0.345118 -0.120764,-0.533116 h 2.995165 v -0.587072 h -2.995165 c 0.04979,-0.487781 0.310955,-0.878503 0.783825,-1.17321 0.479092,-0.294688 1.079452,-0.442861 1.801198,-0.442861 h 0.410142 v -0.586137 z m 6.345784,0 v 0.586137 h 1.587015 v 4.497459 h 0.830535 v -4.497459 h 1.567648 v -0.586137 z m 7.699249,0 c -0.914631,0 -1.676783,0.243504 -2.286533,0.731285 -0.609754,0.487781 -0.913702,1.09509 -0.913702,1.821676 0,0.650393 0.282563,1.234567 0.848763,1.752846 0.57242,0.518262 1.353064,0.777789 2.342357,0.777789 h 0.727999 v -0.587073 h -0.503562 c -0.895961,0 -1.49343,-0.152871 -1.792085,-0.457733 -0.298656,-0.309955 -0.491645,-0.548724 -0.578752,-0.716394 -0.08089,-0.16769 -0.120764,-0.345118 -0.120764,-0.533116 h 2.995164 V 82.261082 H 66.61741 c 0.04978,-0.487781 0.310957,-0.878503 0.783823,-1.17321 0.479093,-0.294688 1.079453,-0.442861 1.801202,-0.442861 h 0.41014 v -0.586137 z m 1.549417,0 v 3.338203 c 0,0.60974 0.165835,1.053771 0.495589,1.333247 0.335983,0.27438 0.867018,0.412146 1.594989,0.412146 h 1.139279 v -0.587073 h -0.859015 c -0.311099,0 -0.550894,-0.01746 -0.718887,-0.05302 -0.161777,-0.03558 -0.310852,-0.101635 -0.447735,-0.19817 -0.136887,-0.101635 -0.233379,-0.229028 -0.289378,-0.381468 -0.056,-0.152421 -0.08431,-0.373726 -0.08431,-0.663355 V 80.058893 Z M 30.768848,89.44829 c -0.64086,0 -1.137803,0.165618 -1.492454,0.495884 -0.348431,0.325205 -0.52293,0.781983 -0.52293,1.371378 v 3.354028 h 0.830533 v -3.232141 c 0,-0.416648 0.0555,-0.708743 0.167488,-0.876415 0.118204,-0.167688 0.264405,-0.291789 0.438622,-0.373078 0.174209,-0.08131 0.374131,-0.121886 0.59812,-0.121886 0.311099,0 0.569386,0.08352 0.77471,0.251209 0.205319,0.16767 0.307605,0.378587 0.307605,0.632658 0,0.284535 -0.121915,0.50584 -0.364569,0.663356 -0.236433,0.157517 -0.568693,0.23632 -0.998007,0.23632 h -0.596995 v 0.586136 h 0.830536 c 0.522645,0 0.861826,0.101921 1.017376,0.305168 0.161778,0.198151 0.242665,0.515723 0.242665,0.952697 v 0.975976 h 0.830537 v -1.174146 c 0,-0.436973 -0.07511,-0.756904 -0.224439,-0.960151 -0.149321,-0.208323 -0.416292,-0.368288 -0.802053,-0.480075 0.615974,-0.289612 0.923956,-0.685986 0.923956,-1.189017 0,-0.396339 -0.190106,-0.732292 -0.569638,-1.006672 -0.379542,-0.27438 -0.843528,-0.411229 -1.391063,-0.411229 z m 30.659138,0.02326 c -0.678195,0 -1.210367,0.183083 -1.596129,0.548923 -0.37954,0.360763 -0.56964,0.863775 -0.56964,1.509074 v 3.140032 h 0.830535 v -3.17073 c 0,-0.940004 0.458202,-1.410465 1.372831,-1.410465 0.441761,0 0.752632,0.10666 0.933068,0.320057 0.180429,0.208323 0.285612,0.378658 0.316722,0.510772 0.03732,0.132112 0.05696,0.345405 0.05696,0.640112 v 0.32841 h -2.370842 v 0.586154 h 2.370841 v 2.19569 h 0.830534 V 91.56676 c 0,-0.309955 -0.02831,-0.563811 -0.08431,-0.76198 -0.04979,-0.203248 -0.158976,-0.40851 -0.326974,-0.616834 -0.161777,-0.208341 -0.401563,-0.378677 -0.718884,-0.51079 -0.311099,-0.13719 -0.658956,-0.205606 -1.04472,-0.205606 z m -36.548069,0.01494 c -0.889742,0 -1.649002,0.259509 -2.277419,0.777788 -0.622198,0.513185 -0.93307,1.135599 -0.93307,1.86728 0,0.588171 0.212527,1.102076 0.618628,1.549077 l 0.550272,-0.561957 c -0.200445,-0.300269 -0.309884,-0.634909 -0.309884,-1.010381 0,-0.54876 0.229977,-1.018285 0.690404,-1.409529 0.466646,-0.396321 1.025991,-0.594508 1.679296,-0.594508 0.280223,0 0.53839,0.04288 0.781546,0.114433 l 0.506979,-0.51729 C 25.789617,89.56081 25.355372,89.48649 24.879917,89.48649 Z m 18.787849,0.04558 c -0.435538,0 -0.653947,0.244422 -0.653947,0.732203 v 4.405348 h 0.830537 v -4.16903 l 2.137285,3.67313 c 0.217774,0.36584 0.49455,0.548922 0.830537,0.548922 0.42309,0 0.634576,-0.22838 0.634576,-0.68568 v -4.450936 h -0.830533 v 4.122508 l -2.090576,-3.612644 c -0.217774,-0.376012 -0.503228,-0.563812 -0.857879,-0.563812 z m 10.769604,0 c -0.435537,0 -0.652807,0.244422 -0.652807,0.732203 v 4.405348 h 0.830533 v -4.16903 l 2.137289,3.67313 c 0.217775,0.36584 0.494552,0.548922 0.830535,0.548922 0.423094,0 0.634579,-0.22838 0.634579,-0.68568 v -4.450936 h -0.830535 v 4.122508 L 55.296386,90.09588 C 55.078612,89.719868 54.792025,89.532068 54.43737,89.532068 Z m -38.069009,0.05396 1.707781,4.534672 c 0.155559,0.396322 0.432328,0.594509 0.830534,0.594509 0.410651,0 0.687429,-0.193452 0.830534,-0.579619 L 21.380052,89.58603 H 20.521035 L 18.91579,94.090006 17.217125,89.58603 Z m 19.468001,0 c -0.715527,0 -1.256376,0.141565 -1.623472,0.426118 -0.367098,0.284534 -0.550272,0.704026 -0.550272,1.257863 v 3.399614 h 0.830535 V 92.48232 h 2.46426 v -0.587073 h -2.46426 v -0.548921 c 0,-0.411572 0.105187,-0.709321 0.316718,-0.892241 0.217774,-0.187997 0.563874,-0.281905 1.036745,-0.281905 h 1.110797 v -0.586137 z m 1.858166,0 v 3.300052 c 0,0.538606 0.183182,0.988291 0.550271,1.349053 0.367096,0.355686 0.892345,0.533116 1.576762,0.533116 0.647082,0 1.123779,-0.13449 1.428656,-0.403793 0.311098,-0.274381 0.509875,-0.521161 0.596982,-0.739657 0.08711,-0.223554 0.131026,-0.50528 0.131026,-0.845717 V 89.58603 h -0.830537 v 3.147469 c 0,0.233727 -0.01566,0.416827 -0.04672,0.548922 -0.03111,0.127036 -0.130487,0.304464 -0.29849,0.533115 -0.161777,0.223573 -0.479568,0.335863 -0.952438,0.335863 -0.423095,0 -0.749569,-0.117025 -0.979782,-0.350752 -0.23021,-0.233728 -0.345199,-0.566405 -0.345199,-0.998302 V 89.58603 Z m 10.909735,0 v 5.083589 h 0.830533 v -2.378051 h 1.073201 c 0.479093,0 0.802673,0.08588 0.970666,0.258645 0.167994,0.167671 0.26738,0.310171 0.298489,0.427035 0.03112,0.116882 0.04672,0.312693 0.04672,0.587073 v 0.609398 l 0.03759,0.4959 h 0.821421 l -0.02849,-0.548922 v -0.610334 c 0,-0.320111 -0.01853,-0.54849 -0.05581,-0.68568 -0.03732,-0.142286 -0.121119,-0.284786 -0.251781,-0.427054 -0.124428,-0.142267 -0.260814,-0.248922 -0.410143,-0.320056 -0.143103,-0.07114 -0.348804,-0.13719 -0.616348,-0.198169 0.180428,-0.08128 0.313919,-0.167185 0.401026,-0.258645 0.09332,-0.09653 0.20254,-0.264514 0.326973,-0.503337 l 0.802051,-1.531397 h -0.886357 l -0.699516,1.424417 c -0.136887,0.269285 -0.283075,0.452368 -0.438626,0.548923 -0.155536,0.09653 -0.379739,0.14513 -0.672173,0.14513 h -0.718883 v -2.11847 z m 18.843675,0 c -0.91463,0 -1.680814,0.243485 -2.296787,0.731284 -0.615976,0.487781 -0.923957,1.090356 -0.923957,1.806786 0,0.416648 0.106302,0.802653 0.317859,1.158321 0.211558,0.355686 0.494111,0.645405 0.848764,0.868978 0.354653,0.218496 0.690941,0.360061 1.008262,0.426117 0.31732,0.06098 0.805584,0.0921 1.465112,0.0921 h 0.252921 v -0.610333 h -0.197094 c -0.460424,0 -0.808285,-0.01746 -1.044718,-0.05302 -0.236437,-0.03558 -0.491828,-0.119096 -0.765596,-0.251209 -0.273767,-0.132112 -0.51356,-0.348682 -0.718884,-0.648465 -0.205318,-0.30488 -0.307607,-0.627168 -0.307607,-0.967606 0,-0.574163 0.239795,-1.04133 0.718886,-1.402075 0.479088,-0.360763 1.097946,-0.541487 1.857024,-0.541487 h 0.457992 v -0.609397 z m 1.511822,0 v 5.083589 h 0.830535 V 92.32136 h 2.73427 v 2.348272 h 0.830534 v -5.083594 h -0.830534 v 2.149167 h -2.73427 v -2.149167 z m -41.890149,0.597299 -0.484193,0.532179 c 0.448171,0.388363 0.674451,0.862029 0.674451,1.423481 0,0.548762 -0.23287,1.021581 -0.699516,1.417902 -0.466648,0.396321 -1.021346,0.594508 -1.662209,0.594508 -0.440963,0 -0.832893,-0.09729 -1.18485,-0.274452 l -0.469383,0.518208 c 0.48979,0.242927 1.037799,0.373096 1.654233,0.373096 0.877295,0 1.633663,-0.258609 2.268307,-0.776871 0.634637,-0.518279 0.952436,-1.1336 0.952436,-1.844955 0,-0.751989 -0.314906,-1.382415 -0.943323,-1.890522 -0.03344,-0.0276 -0.07168,-0.04646 -0.105959,-0.07258 z m 35.422462,7.686804 c -0.124428,0 -0.227858,0.03349 -0.308743,0.09955 -0.08089,0.06606 -0.120764,0.147218 -0.120764,0.243755 0,0.101635 0.03988,0.185154 0.120764,0.25121 0.08089,0.06606 0.184308,0.09955 0.308743,0.09955 0.118204,0 0.217598,-0.03349 0.298491,-0.09955 0.08089,-0.06606 0.120763,-0.149577 0.120763,-0.25121 0,-0.09653 -0.03988,-0.177699 -0.120763,-0.243755 -0.08089,-0.06606 -0.180273,-0.09955 -0.298491,-0.09955 z m -1.558534,0.01584 c -0.118204,0 -0.217598,0.03257 -0.29849,0.09862 -0.08089,0.06606 -0.121902,0.147218 -0.121902,0.243755 0,0.09653 0.04102,0.177718 0.121902,0.243774 0.08089,0.06602 0.180273,0.09955 0.29849,0.09955 0.118204,0 0.217598,-0.03352 0.298493,-0.09955 0.08089,-0.06606 0.120763,-0.147237 0.120763,-0.243774 0,-0.09653 -0.03988,-0.177699 -0.120763,-0.243755 -0.08089,-0.06606 -0.180273,-0.09862 -0.298493,-0.09862 z M 29.63071,98.998702 c -0.678195,0 -1.210369,0.183082 -1.59613,0.548923 -0.379539,0.360763 -0.56964,0.863775 -0.56964,1.509085 v 3.14003 h 0.830535 V 101.026 c 0,-0.94001 0.458201,-1.410447 1.37283,-1.410447 0.441759,0 0.752635,0.106638 0.93307,0.320057 0.180428,0.20832 0.285611,0.37865 0.316718,0.51077 0.03732,0.13211 0.05581,0.34539 0.05581,0.64009 v 0.32843 h -2.369701 v 0.58614 h 2.369701 v 2.1957 h 0.831673 v -3.10281 c 0,-0.30996 -0.02831,-0.56383 -0.08431,-0.76199 -0.04979,-0.20324 -0.158977,-0.408519 -0.326973,-0.616843 -0.161776,-0.208323 -0.401564,-0.378659 -0.718884,-0.510772 -0.311098,-0.13719 -0.658958,-0.205623 -1.044719,-0.205623 z m 14.4096,0 c -0.678195,0 -1.210366,0.183082 -1.59613,0.548923 -0.37954,0.360763 -0.5685,0.863775 -0.5685,1.509085 v 3.14003 h 0.830535 V 101.026 c 0,-0.94001 0.457063,-1.410447 1.371691,-1.410447 0.441761,0 0.752634,0.106638 0.93307,0.320057 0.180428,0.20832 0.286748,0.37865 0.317859,0.51077 0.03732,0.13211 0.05581,0.34539 0.05581,0.64009 v 0.32843 h -2.370842 v 0.58614 h 2.370842 v 2.1957 h 0.830533 v -3.10281 c 0,-0.30996 -0.0283,-0.56383 -0.08431,-0.76199 -0.04978,-0.20324 -0.15783,-0.408519 -0.325833,-0.616843 -0.161777,-0.208323 -0.401565,-0.378659 -0.718884,-0.510772 -0.311098,-0.13719 -0.660098,-0.205623 -1.045858,-0.205623 z m -5.263468,0.01494 c -0.640864,0 -1.144731,0.159965 -1.511822,0.480076 -0.367097,0.32011 -0.550275,0.754702 -0.550275,1.303462 v 3.39962 h 0.830537 v -3.27773 c 0,-0.44207 0.09938,-0.76765 0.29849,-0.975974 0.199102,-0.208323 0.507084,-0.311685 0.923957,-0.311685 0.32354,0 0.590502,0.07551 0.80205,0.227949 0.211558,0.15244 0.317859,0.34589 0.317859,0.57962 0,0.28455 -0.09649,0.4851 -0.289376,0.60196 -0.186668,0.11686 -0.351342,0.18859 -0.494448,0.21399 -0.143103,0.0254 -0.345912,0.0372 -0.607234,0.0372 h -0.634579 v 0.5266 h 0.839648 c 0.273768,0 0.476574,0.009 0.607237,0.0298 0.136885,0.0203 0.320058,0.0897 0.550271,0.20654 0.230213,0.11179 0.345199,0.33547 0.345199,0.67081 0,0.58941 -0.447244,0.88387 -1.343209,0.88387 h -0.999146 v 0.58707 h 1.204217 c 0.609753,0 1.095124,-0.12977 1.455999,-0.3889 0.360873,-0.25913 0.541158,-0.60456 0.541158,-1.03645 0,-0.6199 -0.383092,-1.0474 -1.148395,-1.28113 0.553757,-0.23882 0.830537,-0.60641 0.830537,-1.10436 0,-0.39632 -0.186072,-0.724279 -0.559387,-0.98341 -0.37332,-0.259131 -0.843088,-0.388904 -1.409288,-0.388904 z m 26.776474,0.04558 c -0.435538,0 -0.653946,0.244422 -0.653946,0.73222 v 4.405358 h 0.830533 v -4.16905 l 2.137288,3.67314 c 0.217775,0.36585 0.494547,0.54893 0.830535,0.54893 0.423094,0 0.634577,-0.22838 0.634577,-0.68568 V 99.113198 H 68.50177 v 4.122512 l -2.090578,-3.612654 c -0.217774,-0.375995 -0.503225,-0.563812 -0.857876,-0.563812 z m -43.529572,0.05375 v 5.083578 h 0.830535 v -2.34827 h 2.735408 v 2.34829 h 0.830533 v -5.08359 h -0.830533 v 2.14916 h -2.735408 v -2.14916 z m 10.724033,0 v 3.338198 c 0,0.60972 0.164686,1.05377 0.494448,1.33323 0.335984,0.27438 0.868158,0.41215 1.596131,0.41215 h 1.138138 v -0.58706 h -0.857878 c -0.311098,0 -0.550892,-0.0184 -0.718885,-0.054 -0.161776,-0.0356 -0.310852,-0.10071 -0.447736,-0.19725 -0.136886,-0.10162 -0.233379,-0.22903 -0.289377,-0.38145 -0.056,-0.15244 -0.08431,-0.37375 -0.08431,-0.66338 v -3.200482 z m 17.294254,0 c -0.914625,0 -1.676778,0.243486 -2.286532,0.731267 -0.609751,0.487791 -0.91484,1.095081 -0.91484,1.821691 0,0.65037 0.282563,1.23455 0.848763,1.75283 0.572421,0.51828 1.353062,0.77779 2.342357,0.77779 h 0.728 v -0.58706 h -0.503561 c -0.895962,0 -1.493434,-0.15289 -1.792087,-0.45775 -0.298657,-0.30996 -0.491645,-0.54872 -0.578752,-0.7164 -0.08089,-0.16767 -0.120764,-0.34511 -0.120764,-0.53309 h 2.995164 v -0.58708 h -2.995164 c 0.04978,-0.48779 0.310956,-0.87943 0.783823,-1.17413 0.479092,-0.294713 1.079453,-0.441931 1.801201,-0.441931 h 0.41014 v -0.586137 z m 1.549421,0 v 3.338198 c 0,0.60972 0.164687,1.05377 0.494448,1.33323 0.335981,0.27438 0.86816,0.41215 1.596128,0.41215 h 1.13814 v -0.58706 h -0.859014 c -0.311101,0 -0.549755,-0.0184 -0.717748,-0.054 -0.161777,-0.0356 -0.311992,-0.10071 -0.448875,-0.19725 -0.136887,-0.10162 -0.23338,-0.22903 -0.289376,-0.38145 -0.056,-0.15244 -0.08316,-0.37375 -0.08316,-0.66338 v -3.200482 z m 6.131598,0 c -0.715523,0 -1.257517,0.141566 -1.62461,0.4261 -0.367097,0.284552 -0.550273,0.704038 -0.550273,1.257878 v 3.39961 h 0.830535 v -2.18732 h 2.46426 v -0.58708 h -2.46426 v -0.54892 c 0,-0.41157 0.106314,-0.7093 0.317859,-0.892225 0.217775,-0.188016 0.562735,-0.281906 1.035606,-0.281906 h 1.110795 v -0.586137 z m 1.857025,0 v 3.300048 c 0,0.53859 0.183185,0.98829 0.550271,1.34905 0.367097,0.35566 0.893485,0.53311 1.577904,0.53311 0.647085,0 1.122639,-0.13449 1.427516,-0.40377 0.3111,-0.27438 0.509874,-0.52118 0.596982,-0.73966 0.08711,-0.22357 0.131025,-0.50528 0.131025,-0.84572 v -3.193058 h -0.830534 v 3.147478 c 0,0.23372 -0.01566,0.41681 -0.04672,0.54892 -0.03111,0.12703 -0.130487,0.30446 -0.298493,0.5331 -0.161776,0.22357 -0.479566,0.33587 -0.952438,0.33587 -0.423089,0 -0.749566,-0.11703 -0.979779,-0.35075 -0.230213,-0.23373 -0.3452,-0.56641 -0.3452,-0.9983 v -3.216318 z m 12.972972,0 c -0.715526,0 -1.257515,0.141566 -1.624611,0.4261 -0.367098,0.284552 -0.550272,0.704038 -0.550272,1.257878 v 3.39961 h 0.830534 v -2.18732 h 2.464259 v -0.58707 h -2.464259 v -0.54892 c 0,-0.41157 0.106301,-0.7093 0.317857,-0.892228 0.217775,-0.188015 0.562735,-0.281906 1.035606,-0.281906 h 1.110796 V 99.11298 Z m -28.699578,9.412638 c -0.678195,0 -1.209231,0.18308 -1.594989,0.54892 -0.379542,0.36076 -0.569642,0.86378 -0.569642,1.50907 v 3.14004 h 0.830537 v -3.17074 c 0,-0.94 0.45706,-1.41044 1.371691,-1.41044 0.441759,0 0.752632,0.10664 0.933068,0.32004 0.180429,0.20832 0.28675,0.37867 0.317859,0.51078 0.03732,0.1321 0.05581,0.34539 0.05581,0.64011 v 0.32842 h -2.370841 v 0.58614 h 2.370841 v 2.19569 h 0.830534 v -3.10282 c 0,-0.30993 -0.02831,-0.56381 -0.08431,-0.76197 -0.04978,-0.20325 -0.157854,-0.40852 -0.325833,-0.61684 -0.161776,-0.20831 -0.401566,-0.37868 -0.718887,-0.51077 -0.311098,-0.13719 -0.660097,-0.20562 -1.045854,-0.20562 z m -17.862755,0.0605 c -0.435539,0 -0.652808,0.24441 -0.652808,0.73219 v 4.40536 h 0.830535 v -4.16903 l 2.137288,3.67315 c 0.217774,0.36584 0.494546,0.54893 0.830533,0.54893 0.423095,0 0.634579,-0.22841 0.634579,-0.6857 v -4.45094 h -0.830533 v 4.12253 l -2.090579,-3.61267 c -0.217774,-0.376 -0.504363,-0.56381 -0.859015,-0.56382 z m 22.259233,0.008 c -0.429317,0 -0.674894,0.21895 -0.737114,0.65593 l -0.66306,4.47419 h 0.803192 l 0.652807,-4.35975 1.362578,3.86387 c 0.136885,0.36585 0.342583,0.54892 0.616349,0.54892 0.267545,0 0.453613,-0.1425 0.559388,-0.42706 l 1.446882,-3.95503 0.616351,4.32905 h 0.811166 l -0.606096,-4.4593 c -0.03112,-0.24898 -0.103339,-0.42167 -0.215329,-0.51823 -0.105775,-0.10159 -0.273349,-0.15259 -0.503562,-0.15259 -0.217774,0 -0.392266,0.0486 -0.52293,0.14515 -0.124428,0.0965 -0.226718,0.25887 -0.307603,0.48751 l -1.269158,3.48335 -1.241814,-3.53637 c -0.130662,-0.38616 -0.397625,-0.57964 -0.802053,-0.57964 z m -26.758249,0.0465 c -0.914625,0 -1.676777,0.24351 -2.286532,0.73129 -0.609749,0.48778 -0.913699,1.09509 -0.913699,1.82168 0,0.65039 0.282561,1.23456 0.848761,1.75284 0.572422,0.51826 1.353067,0.77779 2.342358,0.77779 h 0.727999 v -0.58707 h -0.503561 c -0.895963,0 -1.493431,-0.15287 -1.792086,-0.45774 -0.298655,-0.30995 -0.491648,-0.54872 -0.578755,-0.71639 -0.08089,-0.16769 -0.120763,-0.34511 -0.120763,-0.53311 h 2.995165 v -0.58708 H 19.21542 c 0.04978,-0.48778 0.310955,-0.87942 0.783825,-1.17412 0.479092,-0.29472 1.079451,-0.44195 1.801201,-0.44195 h 0.410139 v -0.58614 z m 1.75563,0 v 5.0836 h 0.830535 v -5.0836 z m 9.378546,0 c -1.287947,0 -1.931078,0.4162 -1.931078,1.24952 0,0.52335 0.342074,0.91735 1.026489,1.18158 l 1.558535,0.60194 c 0.466648,0.18292 0.699517,0.42972 0.699517,0.73966 0,0.4827 -0.438569,0.72383 -1.315867,0.72383 h -1.950446 v 0.58707 h 2.183998 c 1.29417,0 1.941334,-0.44025 1.941334,-1.31928 0,-0.55891 -0.3334,-0.96474 -0.999149,-1.21879 l -1.641702,-0.61805 c -0.242658,-0.0915 -0.411371,-0.18537 -0.504701,-0.28191 -0.09331,-0.0965 -0.140127,-0.22631 -0.140127,-0.3889 0,-0.21341 0.07222,-0.36772 0.215327,-0.46426 0.149321,-0.0965 0.292624,-0.15552 0.429508,-0.17583 0.136887,-0.0203 0.354151,-0.0307 0.652808,-0.0307 h 1.67018 v -0.58614 z m 2.922252,0 v 0.60941 c 0.640859,0 1.169003,0.18546 1.585876,0.55636 0.423089,0.36585 0.634577,0.82263 0.634577,1.37139 0,0.56399 -0.174498,0.98914 -0.522928,1.27369 -0.342208,0.27945 -0.630557,0.45924 -0.866992,0.54055 -0.230213,0.0812 -0.506991,0.12188 -0.830533,0.12188 v 0.61032 c 0.684413,0 1.228158,-0.11703 1.632586,-0.35075 0.410649,-0.23373 0.749831,-0.60225 1.017377,-1.10528 0.111996,0.21848 0.229875,0.3992 0.354315,0.54147 0.130675,0.13719 0.317868,0.28442 0.560524,0.44194 0.248881,0.15751 0.507166,0.2769 0.77471,0.35819 0.267544,0.0762 0.594021,0.11443 0.979779,0.11443 v -0.61032 c -0.659527,0 -1.197484,-0.18781 -1.614358,-0.56381 -0.41687,-0.37602 -0.625463,-0.84316 -0.625463,-1.40209 0,-0.60972 0.186072,-1.04668 0.559386,-1.31091 0.373318,-0.26929 0.6657,-0.43492 0.877243,-0.49587 0.211558,-0.061 0.47965,-0.0911 0.803192,-0.0911 v -0.6094 c -0.323542,0 -0.60032,0.0245 -0.830533,0.0754 -0.223991,0.0457 -0.529078,0.16039 -0.914842,0.34331 -0.385759,0.18293 -0.693743,0.52361 -0.923953,1.02155 -0.118204,-0.24388 -0.243024,-0.43736 -0.373685,-0.57962 -0.130675,-0.14227 -0.366423,-0.3197 -0.708633,-0.53312 -0.342206,-0.21848 -0.864566,-0.32749 -1.567645,-0.32749 z m 19.225333,0 v 0.58614 h 3.070357 l -3.126184,3.4145 c -0.192883,0.22358 -0.289376,0.41467 -0.289376,0.57219 0,0.34043 0.298163,0.51077 0.895474,0.51077 h 3.369988 v -0.58707 H 55.25879 l 3.023648,-3.30749 c 0.149321,-0.16769 0.248714,-0.29744 0.29849,-0.38891 0.04978,-0.0915 0.07521,-0.18866 0.07521,-0.29027 0,-0.34044 -0.292379,-0.50986 -0.877243,-0.50986 z m 4.750793,0 v 3.53638 c 0,0.48779 0.180273,0.88417 0.541158,1.18904 0.360874,0.30486 0.830646,0.4568 1.409286,0.4568 0.727972,0 1.278638,-0.28406 1.651956,-0.85314 0.192885,0.29978 0.42575,0.51778 0.699517,0.65498 0.279989,0.13211 0.628987,0.19816 1.045859,0.19816 0.609751,0 1.054105,-0.12409 1.334096,-0.37307 0.286209,-0.25405 0.463601,-0.47774 0.532044,-0.67081 0.06844,-0.19308 0.10253,-0.46299 0.10253,-0.80851 v -3.32983 h -0.830534 v 3.3224 c 0,0.37092 -0.08668,0.67103 -0.260893,0.89968 -0.167994,0.22864 -0.488681,0.3433 -0.961552,0.3433 -0.385762,0 -0.683927,-0.10434 -0.895474,-0.31261 -0.211535,-0.20832 -0.317858,-0.5037 -0.317858,-0.88479 v -3.36798 h -0.830534 v 3.36055 c 0,0.38106 -0.109204,0.67882 -0.326975,0.89222 -0.211535,0.20832 -0.512605,0.31261 -0.904586,0.31261 -0.771525,0 -1.157508,-0.39636 -1.157508,-1.18902 v -3.37636 z m 11.143289,0 c -0.914632,0 -1.676784,0.24351 -2.286534,0.73129 -0.609754,0.48778 -0.914841,1.09509 -0.914841,1.82168 0,0.65039 0.283702,1.23456 0.849902,1.75284 0.572421,0.51826 1.353065,0.77779 2.342357,0.77779 h 0.728 v -0.58707 h -0.504703 c -0.895961,0 -1.49229,-0.15287 -1.790944,-0.45774 -0.298656,-0.30995 -0.491645,-0.54872 -0.578754,-0.71639 -0.08089,-0.16769 -0.121902,-0.34511 -0.121902,-0.53311 h 2.996303 v -0.58708 h -2.996303 c 0.04978,-0.48778 0.310953,-0.87942 0.783825,-1.17412 0.479088,-0.29472 1.079451,-0.44195 1.801198,-0.44195 h 0.41128 v -0.58614 z m 1.754488,0 v 5.0836 h 0.830535 v -5.0836 z m -40.430734,9.38941 c -0.640859,0 -1.137801,0.16561 -1.492456,0.49587 -0.348429,0.32522 -0.52293,0.78199 -0.52293,1.37139 v 3.35403 h 0.830537 v -3.23214 c 0,-0.41665 0.05547,-0.70875 0.167464,-0.87642 0.118204,-0.16769 0.265548,-0.29179 0.439763,-0.37308 0.17421,-0.0812 0.372993,-0.12189 0.596981,-0.12189 0.311098,0 0.569385,0.0836 0.77471,0.25122 0.205318,0.16767 0.307606,0.37858 0.307606,0.63266 0,0.28453 -0.120763,0.50583 -0.363429,0.66335 -0.236434,0.15752 -0.569834,0.23631 -0.99915,0.23631 H 31.13341 v 0.58614 h 0.830534 c 0.522645,0 0.861826,0.10193 1.017377,0.30517 0.161775,0.19815 0.242666,0.51572 0.242666,0.9527 v 0.97598 h 0.830535 v -1.17415 c 0,-0.43698 -0.07511,-0.7569 -0.224438,-0.96015 -0.149322,-0.20833 -0.416293,-0.36829 -0.802053,-0.48007 0.615977,-0.28962 0.923955,-0.686 0.923955,-1.18903 0,-0.39633 -0.190106,-0.73228 -0.569639,-1.00666 -0.379541,-0.27438 -0.843526,-0.41123 -1.391062,-0.41123 z m 39.515893,0 c -0.640862,0 -1.137803,0.16561 -1.492455,0.49587 -0.348429,0.32522 -0.522929,0.78199 -0.522929,1.37139 v 3.35403 h 0.830534 v -3.23214 c 0,-0.41665 0.0555,-0.70875 0.167464,-0.87642 0.118204,-0.16769 0.264409,-0.29179 0.438624,-0.37308 0.17421,-0.0812 0.37413,-0.12189 0.598122,-0.12189 0.311098,0 0.569385,0.0836 0.774709,0.25122 0.205319,0.16767 0.307605,0.37858 0.307605,0.63266 0,0.28453 -0.121914,0.50583 -0.364569,0.66335 -0.236436,0.15752 -0.568693,0.23631 -0.998008,0.23631 h -0.596984 v 0.58614 h 0.830536 c 0.522643,0 0.861827,0.10193 1.017375,0.30517 0.161777,0.19815 0.242667,0.51572 0.242667,0.9527 v 0.97598 h 0.830534 v -1.17415 c 0,-0.43698 -0.07511,-0.7569 -0.224437,-0.96015 -0.14932,-0.20833 -0.416293,-0.36829 -0.802052,-0.48007 0.615972,-0.28962 0.923954,-0.686 0.923954,-1.18903 0,-0.39633 -0.190106,-0.73228 -0.56964,-1.00666 -0.379538,-0.27438 -0.843527,-0.41123 -1.391058,-0.41123 z m -27.914614,0.0382 c -0.628419,0 -1.132282,0.17034 -1.511824,0.51079 -0.379537,0.33535 -0.56964,0.8025 -0.56964,1.40206 v 3.2703 h 0.830534 v -3.2926 c 0,-0.39634 0.109203,-0.70682 0.326975,-0.93038 0.217775,-0.22867 0.515934,-0.34239 0.895473,-0.34239 0.367096,0 0.669293,0.0986 0.905727,0.29679 0.236433,0.19816 0.354315,0.44968 0.354315,0.75454 0,0.31503 -0.114995,0.56417 -0.345201,0.74709 -0.230214,0.18292 -0.538193,0.27448 -0.923957,0.27448 h -0.895471 v 0.58707 h 1.008261 c 0.59731,0 1.082681,-0.15054 1.455999,-0.45032 0.373318,-0.29978 0.559386,-0.6905 0.559386,-1.17321 0,-0.46746 -0.201658,-0.85911 -0.606097,-1.17412 -0.398203,-0.32011 -0.893395,-0.4801 -1.48448,-0.4801 z m 4.199381,0.053 c -0.429314,0 -0.674891,0.21895 -0.737112,0.65592 l -0.661923,4.4742 h 0.802053 l 0.653946,-4.35977 1.362579,3.86386 c 0.136885,0.36585 0.341443,0.54892 0.61521,0.54892 0.267545,0 0.454752,-0.1425 0.560526,-0.42703 l 1.446885,-3.95505 0.615209,4.32907 h 0.812305 l -0.607235,-4.45931 c -0.03111,-0.24898 -0.102187,-0.42169 -0.214179,-0.51823 -0.105775,-0.10159 -0.273347,-0.15258 -0.503563,-0.15258 -0.217774,0 -0.392266,0.0486 -0.522927,0.14515 -0.124455,0.0965 -0.226721,0.25886 -0.307606,0.48751 l -1.270296,3.48335 -1.240674,-3.53639 c -0.130675,-0.38614 -0.398763,-0.57962 -0.803191,-0.57962 z m -23.163819,0.0465 v 5.08359 h 0.830534 v -4.49745 h 0.596982 c 0.715525,0 1.297396,0.18543 1.745375,0.55637 0.454205,0.36584 0.681289,0.841 0.681289,1.42534 0,0.55891 -0.214379,1.01662 -0.643692,1.37231 -0.429316,0.35567 -0.982873,0.53309 -1.66107,0.53309 h -0.429508 v 0.61034 H 26.3268 c 0.796413,0 1.496161,-0.22366 2.099691,-0.67081 0.609753,-0.44712 0.914842,-1.07283 0.914842,-1.87563 0,-0.44715 -0.133489,-0.8657 -0.401025,-1.25695 -0.267547,-0.39634 -0.635038,-0.70917 -1.101684,-0.93782 -0.466648,-0.22866 -1.09532,-0.34238 -1.885506,-0.34238 z m 13.149557,0 c -0.914626,0 -1.676779,0.24348 -2.286534,0.73129 -0.609749,0.48778 -0.913702,1.09506 -0.913702,1.82167 0,0.65037 0.282564,1.23456 0.848764,1.75282 0.572422,0.51828 1.353068,0.77781 2.342358,0.77781 h 0.728001 v -0.58707 h -0.503563 c -0.895962,0 -1.493431,-0.15287 -1.792084,-0.45775 -0.298657,-0.30994 -0.491648,-0.54871 -0.578756,-0.7164 -0.08089,-0.16767 -0.120764,-0.34509 -0.120764,-0.53309 h 2.995167 v -0.58707 h -2.995171 c 0.04978,-0.48778 0.310956,-0.87944 0.783824,-1.17415 0.479092,-0.29471 1.079451,-0.44192 1.801202,-0.44192 h 0.410141 v -0.5864 z m 1.75563,0 v 5.08359 h 0.830533 v -5.08385 z m 16.285993,0 v 3.28424 c 0,0.24389 -0.02831,0.43735 -0.08431,0.57962 -0.04978,0.14227 -0.14339,0.26639 -0.280263,0.37307 -0.130676,0.1016 -0.282637,0.17006 -0.456852,0.20563 -0.167994,0.0355 -0.420495,0.054 -0.756481,0.054 h -0.503562 v 0.58708 h 0.746228 c 0.385761,0 0.706452,-0.0311 0.961554,-0.0921 0.255098,-0.0661 0.482183,-0.17505 0.681287,-0.32749 0.199101,-0.15244 0.335476,-0.32277 0.41014,-0.51079 0.07467,-0.18798 0.112791,-0.4546 0.112791,-0.80011 v -3.35335 z m 1.427517,0 1.707781,4.53467 c 0.155536,0.39632 0.432326,0.59451 0.830533,0.59451 0.410649,0 0.687427,-0.19345 0.830534,-0.57962 l 1.64284,-4.54982 h -0.859016 l -1.605244,4.50398 -1.698667,-4.50398 z m 5.823993,0 v 5.08359 h 0.830534 v -5.08385 z m 4.871558,0 c -0.914626,0 -1.676779,0.24348 -2.286534,0.73129 -0.60975,0.48778 -0.91484,1.09506 -0.91484,1.82167 0,0.65037 0.283703,1.23456 0.849903,1.75282 0.572422,0.51828 1.353066,0.77781 2.342355,0.77781 h 0.728002 v -0.58707 h -0.504701 c -0.895963,0 -1.493432,-0.15287 -1.792087,-0.45775 -0.298654,-0.30994 -0.490506,-0.54871 -0.577615,-0.7164 -0.08089,-0.16767 -0.121902,-0.34509 -0.121902,-0.53309 h 2.996304 v -0.58707 h -2.996304 c 0.04979,-0.48778 0.310955,-0.87944 0.783821,-1.17415 0.479095,-0.29471 1.079455,-0.44192 1.801202,-0.44192 h 0.411284 v -0.5864 z m -11.209366,9.41265 c -0.678192,0 -1.210368,0.18216 -1.596131,0.548 -0.379537,0.36075 -0.568499,0.86377 -0.568499,1.50907 v 3.14097 h 0.830533 v -3.17075 c 0,-0.94 0.457065,-1.41045 1.371694,-1.41045 0.441757,0 0.752633,0.10665 0.933068,0.32006 0.180449,0.20832 0.28675,0.37866 0.31786,0.51078 0.03732,0.13211 0.05581,0.34539 0.05581,0.64008 v 0.32844 h -2.370836 v 0.58613 h 2.370839 v 2.19571 h 0.830533 v -3.10282 c 0,-0.30995 -0.0283,-0.56383 -0.08431,-0.76198 -0.04979,-0.20325 -0.157852,-0.40853 -0.325834,-0.61685 -0.161777,-0.20833 -0.401564,-0.37866 -0.718886,-0.51076 -0.311098,-0.1372 -0.660094,-0.20562 -1.045858,-0.20562 z m -10.956446,0.0605 c -0.435537,0 -0.653947,0.24442 -0.653947,0.73221 v 4.40536 h 0.831674 v -4.16905 l 2.137287,3.67315 c 0.217774,0.36584 0.494548,0.54893 0.830534,0.54893 0.423095,0 0.634581,-0.22839 0.634581,-0.68569 v -4.45094 h -0.830536 v 4.12251 l -2.090577,-3.61267 c -0.217774,-0.376 -0.504365,-0.56381 -0.859016,-0.56381 z m -22.940523,0.054 c -1.287947,0 -1.932217,0.41621 -1.932217,1.2495 0,0.52336 0.342074,0.91736 1.026491,1.18158 l 1.558533,0.60196 c 0.466649,0.18292 0.700656,0.42972 0.700656,0.73964 0,0.48272 -0.438571,0.72385 -1.315865,0.72385 H 20.9232 v 0.58707 h 2.183997 c 1.294171,0 1.941332,-0.44025 1.941332,-1.31929 0,-0.55892 -0.333396,-0.96474 -0.999148,-1.2188 l -1.64284,-0.61777 c -0.242656,-0.0915 -0.41023,-0.18537 -0.503562,-0.2819 -0.09333,-0.0965 -0.140126,-0.2263 -0.140126,-0.38891 0,-0.2134 0.07107,-0.36771 0.214181,-0.46425 0.149319,-0.0965 0.292624,-0.15551 0.429507,-0.17584 0.136886,-0.0203 0.355294,-0.0307 0.653946,-0.0307 h 1.670183 v -0.58614 z m 5.926529,0 c -0.914627,0 -1.676779,0.24349 -2.286533,0.73127 -0.60975,0.48781 -0.914839,1.09509 -0.914839,1.8217 0,0.65037 0.283702,1.23454 0.849901,1.75282 0.572422,0.51828 1.353067,0.77781 2.342357,0.77781 h 0.728001 v -0.58707 h -0.504703 c -0.895962,0 -1.492293,-0.1529 -1.790944,-0.45776 -0.298656,-0.30995 -0.491648,-0.54872 -0.578755,-0.71639 -0.08089,-0.16767 -0.121902,-0.34512 -0.121902,-0.53309 h 2.996302 v -0.58708 h -2.996302 c 0.04978,-0.4878 0.310955,-0.87943 0.783821,-1.17415 0.479093,-0.2947 1.079453,-0.44192 1.801202,-0.44192 h 0.411279 v -0.58614 z m 4.452303,0 c -0.914628,0 -1.680811,0.24349 -2.296788,0.73127 -0.615971,0.48781 -0.923953,1.08944 -0.923953,1.80586 0,0.41666 0.106314,0.8036 0.317859,1.15927 0.211557,0.35569 0.494111,0.6454 0.848762,0.86898 0.354653,0.21847 0.690943,0.36006 1.008263,0.42612 0.31732,0.061 0.805584,0.0921 1.465112,0.0921 h 0.251782 v -0.61034 h -0.19595 c -0.460425,0 -0.808283,-0.0175 -1.044717,-0.053 -0.236435,-0.0355 -0.491832,-0.1191 -0.765595,-0.2512 -0.273768,-0.13211 -0.513561,-0.34869 -0.718887,-0.64848 -0.205317,-0.30486 -0.307604,-0.62715 -0.307604,-0.96759 0,-0.57415 0.239793,-1.04132 0.718884,-1.40209 0.479092,-0.36075 1.097946,-0.54147 1.857024,-0.54147 h 0.456853 v -0.60939 z m 1.511824,0 v 5.0836 h 0.830534 v -2.34829 h 2.73427 v 2.34829 h 0.830533 v -5.0836 h -0.830533 v 2.14917 h -2.73427 v -2.14917 z m 7.251511,0 c -1.287948,0 -1.932219,0.41621 -1.932219,1.2495 0,0.52336 0.342075,0.91736 1.026491,1.18158 l 1.558533,0.60196 c 0.466651,0.18292 0.700659,0.42972 0.700659,0.73964 0,0.48272 -0.438572,0.72385 -1.315868,0.72385 h -1.951587 v 0.58707 h 2.184 c 1.294167,0 1.94133,-0.44025 1.94133,-1.31929 0,-0.55892 -0.332258,-0.96474 -0.998006,-1.2188 l -1.642843,-0.61777 c -0.242653,-0.0915 -0.41023,-0.18537 -0.503559,-0.2819 -0.09332,-0.0965 -0.140127,-0.2263 -0.140127,-0.38891 0,-0.2134 0.07107,-0.36771 0.214182,-0.46425 0.149319,-0.0965 0.292625,-0.15551 0.429506,-0.17584 0.136887,-0.0203 0.354154,-0.0307 0.652808,-0.0307 h 1.671323 v -0.58614 z m 8.632317,0 v 3.33821 c 0,0.60972 0.165832,1.05377 0.495586,1.33323 0.335987,0.27437 0.867023,0.41216 1.59499,0.41216 h 1.13928 v -0.58707 h -0.859017 c -0.311094,0 -0.550891,-0.0184 -0.718884,-0.054 -0.161778,-0.0355 -0.310856,-0.10159 -0.447738,-0.19818 -0.136885,-0.10159 -0.233378,-0.22809 -0.289376,-0.38051 -0.056,-0.15245 -0.08431,-0.37375 -0.08431,-0.66338 v -3.20049 z m 12.142435,0 c -0.91463,0 -1.679673,0.24349 -2.295648,0.73127 -0.615974,0.48781 -0.923955,1.08944 -0.923955,1.80586 0,0.41666 0.105187,0.8036 0.31672,1.15927 0.211556,0.35569 0.495251,0.6454 0.849904,0.86898 0.354649,0.21847 0.690939,0.36006 1.008261,0.42612 0.31732,0.061 0.805584,0.0921 1.465112,0.0921 h 0.251782 v -0.61034 h -0.19595 c -0.460423,0 -0.809422,-0.0175 -1.045857,-0.053 -0.236432,-0.0355 -0.49069,-0.1191 -0.764456,-0.2512 -0.273767,-0.13211 -0.51356,-0.34869 -0.718884,-0.64848 -0.205318,-0.30486 -0.307606,-0.62715 -0.307606,-0.96759 0,-0.57415 0.238653,-1.04132 0.717746,-1.40209 0.479092,-0.36075 1.099085,-0.54147 1.858162,-0.54147 h 0.456852 v -0.60939 z m 1.511823,0 v 5.0836 h 0.830534 v -2.34829 h 2.735411 v 2.34829 h 0.830534 v -5.0836 h -0.830534 v 2.14917 h -2.735411 v -2.14917 z m 5.329549,0 v 0.58614 h 1.587013 v 4.49746 h 0.830537 v -4.49746 h 1.567645 v -0.58614 z m -6.253504,8.28411 c -0.124429,0 -0.226719,0.0335 -0.307605,0.0995 -0.08089,0.0661 -0.121902,0.14728 -0.121902,0.24377 0,0.10159 0.04102,0.18515 0.121902,0.25121 0.08089,0.0661 0.183161,0.0995 0.307605,0.0995 0.118204,0 0.217598,-0.0335 0.298492,-0.0995 0.08089,-0.0661 0.121902,-0.14961 0.121902,-0.25121 0,-0.0965 -0.04102,-0.1777 -0.121902,-0.24377 -0.08089,-0.0661 -0.180273,-0.0995 -0.298492,-0.0995 z m -1.558533,0.0162 c -0.118204,0 -0.21762,0.0325 -0.29849,0.0986 -0.08089,0.0661 -0.120764,0.14727 -0.120764,0.24375 0,0.0965 0.03988,0.17771 0.120764,0.24376 0.08089,0.0661 0.180273,0.0996 0.29849,0.0996 0.118204,0 0.217598,-0.0335 0.298491,-0.0996 0.08089,-0.0661 0.121902,-0.14726 0.121902,-0.24376 0,-0.0965 -0.04102,-0.17769 -0.121902,-0.24375 -0.08089,-0.0661 -0.180273,-0.0986 -0.298491,-0.0986 z m -28.493369,1.12762 c -0.640862,0 -1.144725,0.15988 -1.511823,0.48008 -0.367096,0.32011 -0.550271,0.75471 -0.550271,1.30346 v 3.3996 h 0.830535 v -3.27773 c 0,-0.44204 0.09938,-0.76763 0.29849,-0.97596 0.1991,-0.20831 0.507082,-0.31168 0.923955,-0.31168 0.323543,0 0.590507,0.0754 0.802053,0.22795 0.211557,0.15249 0.317858,0.34589 0.317858,0.57962 0,0.28455 -0.09649,0.4851 -0.289376,0.60196 -0.186668,0.11685 -0.351344,0.18766 -0.494449,0.21306 -0.143103,0.0254 -0.345911,0.0382 -0.607235,0.0382 h -0.634579 v 0.5266 h 0.840789 c 0.273767,0 0.475434,0.009 0.606097,0.0297 0.136885,0.0203 0.320059,0.0896 0.550272,0.20654 0.230212,0.11181 0.345202,0.33545 0.345202,0.67081 0,0.58942 -0.44725,0.88385 -1.343211,0.88385 h -0.999149 v 0.58707 h 1.20422 c 0.60975,0 1.095124,-0.1298 1.455998,-0.38888 0.360875,-0.25915 0.541157,-0.60456 0.541157,-1.03645 0,-0.6199 -0.383093,-1.0474 -1.148391,-1.28113 0.553751,-0.23882 0.831673,-0.60643 0.831673,-1.10436 0,-0.39634 -0.187218,-0.72428 -0.560525,-0.98341 -0.37332,-0.25915 -0.84309,-0.3889 -1.40929,-0.3889 z m 29.258963,0 c -0.889739,0 -1.649001,0.25953 -2.277417,0.77779 -0.622196,0.51321 -0.933069,1.13561 -0.933069,1.86728 0,0.73169 0.313764,1.35409 0.942183,1.86728 l 0.488751,-0.56475 c -0.374571,-0.37283 -0.571918,-0.81248 -0.571918,-1.3258 0,-0.54875 0.229976,-1.01827 0.690402,-1.40951 0.466647,-0.39632 1.025991,-0.59452 1.679298,-0.59452 0.341497,0 0.654407,0.0556 0.941043,0.16186 l 0.448877,-0.52009 c -0.424605,-0.16653 -0.89055,-0.25957 -1.40815,-0.25957 z m -20.961593,0.0455 c -0.435539,0 -0.653946,0.24442 -0.653946,0.73222 v 4.40533 h 0.830533 v -4.16901 l 2.137288,3.67313 c 0.217774,0.36585 0.494547,0.54893 0.830535,0.54893 0.423093,0 0.634578,-0.22839 0.634578,-0.6857 v -4.45093 h -0.830534 v 4.12252 l -2.090578,-3.61267 c -0.217774,-0.376 -0.503226,-0.56381 -0.857876,-0.56382 z m -20.028526,0.054 c -1.287947,0 -1.932216,0.41621 -1.932216,1.24952 0,0.52335 0.342072,0.91736 1.026489,1.18158 l 1.558534,0.60194 c 0.466648,0.18292 0.700657,0.42972 0.700657,0.73966 0,0.4827 -0.438569,0.72383 -1.315867,0.72383 h -1.951586 v 0.58707 h 2.183999 c 1.294168,0 1.941331,-0.44025 1.941331,-1.31928 0,-0.5589 -0.332258,-0.96473 -0.998008,-1.21878 l -1.64284,-0.61778 c -0.242658,-0.0915 -0.410232,-0.18537 -0.503561,-0.2819 -0.09333,-0.0965 -0.140128,-0.22632 -0.140128,-0.38891 0,-0.21339 0.07107,-0.36865 0.214181,-0.46518 0.14932,-0.0965 0.292624,-0.15465 0.429508,-0.17482 0.136886,-0.0203 0.354152,-0.0308 0.652807,-0.0308 h 1.671321 v -0.58614 z m 3.248084,0 v 5.0836 h 0.830535 v -5.0836 z m 4.871558,0 c -0.914629,0 -1.676781,0.24352 -2.286534,0.7313 -0.609752,0.48778 -0.914841,1.09508 -0.914841,1.82168 0,0.65038 0.282565,1.23455 0.848765,1.75284 0.57242,0.51825 1.354204,0.77779 2.343495,0.77779 h 0.727999 v -0.58707 h -0.504699 c -0.895964,0 -1.493434,-0.15286 -1.792086,-0.45773 -0.298655,-0.30996 -0.491647,-0.54874 -0.578755,-0.7164 -0.08089,-0.16761 -0.120763,-0.34511 -0.120763,-0.53311 h 2.996302 v -0.58707 h -2.996302 c 0.04979,-0.48779 0.310956,-0.87944 0.783823,-1.17413 0.479093,-0.2947 1.079451,-0.44195 1.801202,-0.44195 h 0.411277 v -0.58614 z m 9.602983,0 c -0.914629,0 -1.676782,0.24352 -2.286532,0.7313 -0.609756,0.48778 -0.914843,1.09508 -0.914843,1.82168 0,0.65038 0.283702,1.23455 0.849902,1.75284 0.572422,0.51825 1.353065,0.77779 2.34236,0.77779 h 0.727997 v -0.58707 h -0.503561 c -0.895963,0 -1.493431,-0.15286 -1.792085,-0.45773 -0.298656,-0.30996 -0.491648,-0.54874 -0.578754,-0.7164 -0.08089,-0.16761 -0.121902,-0.34511 -0.121902,-0.53311 h 2.996304 v -0.58707 h -2.996304 c 0.04979,-0.48779 0.312095,-0.87944 0.784961,-1.17413 0.479093,-0.2947 1.079453,-0.44195 1.801202,-0.44195 h 0.410141 v -0.58614 z m 7.364299,0 v 0.58614 h 3.070357 l -3.12618,3.4145 c -0.192885,0.22358 -0.289377,0.41467 -0.289377,0.5722 0,0.34044 0.298166,0.51077 0.895471,0.51077 h 3.368848 v -0.58707 h -3.433786 l 3.023646,-3.30843 c 0.14932,-0.16762 0.248716,-0.29651 0.298493,-0.38796 0.04978,-0.0915 0.07521,-0.18867 0.07521,-0.29029 0,-0.34044 -0.292379,-0.50986 -0.877245,-0.50986 z m 4.750794,0 v 3.53639 c 0,0.48779 0.180295,0.88417 0.541157,1.18904 0.360874,0.30485 0.830645,0.4568 1.409288,0.4568 0.727971,0 1.278637,-0.28406 1.651955,-0.85315 0.192883,0.29978 0.425751,0.5178 0.699518,0.65498 0.279985,0.13215 0.628986,0.19817 1.045857,0.19817 0.609753,0 1.054107,-0.12405 1.334095,-0.37307 0.286212,-0.25405 0.463604,-0.47773 0.532045,-0.67081 0.06844,-0.19308 0.102542,-0.46299 0.102542,-0.80849 v -3.32985 H 57.88142 v 3.3224 c 0,0.37092 -0.0867,0.67103 -0.260895,0.89967 -0.167995,0.22865 -0.488686,0.3433 -0.961553,0.3433 -0.385763,0 -0.685066,-0.10423 -0.896613,-0.3126 -0.211535,-0.20832 -0.316719,-0.50369 -0.316719,-0.88479 v -3.36799 h -0.830535 v 3.36055 c 0,0.38106 -0.109204,0.67883 -0.326972,0.89223 -0.211559,0.20832 -0.513744,0.3126 -0.905728,0.3126 -0.771521,0 -1.156368,-0.39635 -1.156368,-1.18902 v -3.37636 z m 15.02595,0 v 3.33821 c 0,0.60974 0.164687,1.05377 0.494449,1.33324 0.335987,0.27439 0.868158,0.41215 1.596129,0.41215 h 1.138138 v -0.58707 h -0.859014 c -0.311099,0 -0.549753,-0.0184 -0.717747,-0.054 -0.161778,-0.0356 -0.311992,-0.1017 -0.448876,-0.19816 -0.136887,-0.1016 -0.233379,-0.2281 -0.289377,-0.38054 -0.056,-0.15249 -0.08316,-0.37372 -0.08316,-0.66336 v -3.2005 z m 6.131601,0 c -0.715526,0 -1.257515,0.14153 -1.624611,0.42613 -0.367098,0.28453 -0.550272,0.70403 -0.550272,1.25788 v 3.39959 h 0.830534 v -2.18824 h 2.464259 v -0.58614 h -2.464259 v -0.54893 c 0,-0.41157 0.106301,-0.70932 0.317857,-0.89224 0.217775,-0.188 0.562735,-0.28191 1.035606,-0.28191 h 1.110796 v -0.58614 z m -7.445189,0.92853 -0.509258,0.58892 c 0.213476,0.30503 0.329253,0.64797 0.329253,1.03552 0,0.54876 -0.234011,1.02158 -0.700659,1.4179 -0.466645,0.39634 -1.020208,0.59451 -1.661067,0.59451 -0.193986,0 -0.377011,-0.0225 -0.553692,-0.0567 l -0.462544,0.53591 c 0.3187,0.0839 0.653728,0.13773 1.016236,0.13773 0.877294,0 1.633665,-0.2586 2.268303,-0.77688 0.634643,-0.51825 0.952437,-1.13356 0.952437,-1.84492 0,-0.63157 -0.235623,-1.17228 -0.679009,-1.6319 z m 6.39933,8.46088 c -0.640862,0 -1.137803,0.16564 -1.492455,0.49589 -0.348429,0.3252 -0.522929,0.78198 -0.522929,1.37138 v 3.35403 h 0.830534 v -3.23214 c 0,-0.41665 0.0555,-0.70875 0.167464,-0.87641 0.118204,-0.16762 0.264409,-0.29179 0.438624,-0.37308 0.17421,-0.0814 0.37413,-0.12189 0.598122,-0.12189 0.311098,0 0.569385,0.0836 0.774709,0.25121 0.205319,0.16762 0.307605,0.37858 0.307605,0.63266 0,0.28452 -0.121914,0.50584 -0.364569,0.66336 -0.236436,0.15753 -0.568693,0.23632 -0.998008,0.23632 h -0.596984 v 0.58613 h 0.830536 c 0.522643,0 0.861827,0.10192 1.017375,0.30517 0.161777,0.19815 0.242667,0.51573 0.242667,0.95269 v 0.97598 h 0.830534 v -1.17415 c 0,-0.43696 -0.07511,-0.7569 -0.224437,-0.96015 -0.14932,-0.20832 -0.416293,-0.36829 -0.802052,-0.48008 0.615972,-0.28961 0.923954,-0.68598 0.923954,-1.18902 0,-0.39633 -0.190106,-0.73229 -0.56964,-1.00667 -0.379538,-0.27438 -0.843527,-0.41123 -1.391058,-0.41123 z m -38.040528,0.0837 c -0.435537,0 -0.653943,0.24443 -0.653943,0.73221 v 4.40535 h 0.830534 v -4.16903 l 2.137288,3.67313 c 0.217774,0.36584 0.494547,0.54892 0.830533,0.54892 0.423095,0 0.634579,-0.22837 0.634579,-0.68568 v -4.45092 h -0.830535 v 4.1225 l -2.090576,-3.61266 c -0.217774,-0.37602 -0.503225,-0.56381 -0.85788,-0.56382 z m 15.240139,0 c -0.435541,0 -0.652807,0.24443 -0.652807,0.73221 v 4.40535 h 0.830533 v -4.16903 l 2.137288,3.67313 c 0.217774,0.36584 0.494547,0.54892 0.830534,0.54892 0.423095,0 0.634579,-0.22837 0.634579,-0.68568 v -4.45106 H 51.65639 v 4.12251 l -2.090577,-3.61266 c -0.217774,-0.37601 -0.504367,-0.5638 -0.859014,-0.5638 z m -30.733193,0.054 v 0.58613 h 3.070357 l -3.126181,3.41451 c -0.192884,0.22355 -0.289376,0.41466 -0.289376,0.57217 0,0.34042 0.298167,0.51077 0.895471,0.51077 h 3.369988 v -0.58706 h -3.434926 l 3.023647,-3.30842 c 0.149319,-0.16763 0.248715,-0.29652 0.298492,-0.38797 0.04979,-0.0915 0.07521,-0.18867 0.07521,-0.29029 0,-0.34043 -0.29238,-0.50984 -0.877243,-0.50984 z m 7.634309,0 c -0.914629,0 -1.67678,0.24348 -2.286533,0.73128 -0.609753,0.48778 -0.914841,1.09507 -0.914841,1.82167 0,0.65039 0.283705,1.23458 0.849901,1.75283 0.572422,0.51829 1.353066,0.7778 2.342359,0.7778 H 26.3268 v -0.58706 h -0.503562 c -0.895961,0 -1.493429,-0.15286 -1.792085,-0.45775 -0.298653,-0.30994 -0.491646,-0.54871 -0.578754,-0.7164 -0.08089,-0.16761 -0.121902,-0.3451 -0.121902,-0.53309 h 2.996304 v -0.58708 h -2.996304 c 0.04979,-0.48777 0.310954,-0.87943 0.783825,-1.17414 0.479092,-0.29471 1.079453,-0.44193 1.801198,-0.44193 h 0.411281 v -0.58613 z m 1.651954,0 v 5.08358 h 0.830535 v -2.34826 h 2.73427 v 2.34826 h 0.831674 v -5.08358 h -0.831674 v 2.14916 h -2.73427 v -2.14916 z m 13.92541,0 c -0.914631,0 -1.677921,0.24348 -2.287673,0.73128 -0.609753,0.48778 -0.913702,1.09507 -0.913702,1.82167 0,0.65039 0.282564,1.23458 0.848762,1.75283 0.57242,0.51829 1.353064,0.7778 2.342358,0.7778 h 0.727999 v -0.58706 H 41.39946 c -0.89596,0 -1.493431,-0.15286 -1.792084,-0.45775 -0.298654,-0.30994 -0.491647,-0.54871 -0.578752,-0.7164 -0.08089,-0.16761 -0.120764,-0.3451 -0.120764,-0.53309 h 2.995164 v -0.58708 H 38.90786 c 0.04979,-0.48777 0.310953,-0.87943 0.783825,-1.17414 0.479088,-0.29471 1.079451,-0.44193 1.801198,-0.44193 h 0.410141 v -0.58613 z m 1.548277,0 v 3.30004 c 0,0.53861 0.184309,0.9883 0.551413,1.34906 0.367096,0.3557 0.892345,0.53312 1.576761,0.53312 0.647086,0 1.12378,-0.13449 1.428658,-0.40378 0.311094,-0.2744 0.509872,-0.52117 0.596981,-0.73966 0.08711,-0.22356 0.129881,-0.50529 0.129881,-0.84572 v -3.19305 h -0.830535 v 3.14746 c 0,0.23373 -0.01566,0.41683 -0.04672,0.54892 -0.03111,0.12711 -0.130486,0.30447 -0.298491,0.53312 -0.161777,0.22357 -0.478427,0.33586 -0.951298,0.33586 -0.423095,0 -0.749567,-0.11702 -0.979779,-0.35075 -0.230213,-0.23374 -0.346343,-0.56641 -0.346343,-0.9983 v -3.21631 z m 10.910876,0 v 5.08358 h 0.830534 v -2.37804 h 1.073201 c 0.479091,0 0.802674,0.0859 0.970667,0.25865 0.167994,0.16761 0.267381,0.31017 0.298492,0.42703 0.03111,0.11684 0.04672,0.31269 0.04672,0.58708 v 0.60939 l 0.03759,0.49589 h 0.821419 l -0.02849,-0.54892 v -0.61033 c 0,-0.32011 -0.01853,-0.54849 -0.05581,-0.68568 -0.03732,-0.14223 -0.121118,-0.28479 -0.251781,-0.42705 -0.124429,-0.14224 -0.261953,-0.24892 -0.411279,-0.32005 -0.143104,-0.0711 -0.347666,-0.1372 -0.615212,-0.19817 0.180449,-0.0814 0.313918,-0.16727 0.401026,-0.25865 0.09333,-0.0965 0.20254,-0.26452 0.326975,-0.50333 l 0.802052,-1.5314 h -0.88636 l -0.699517,1.42441 c -0.136887,0.26929 -0.284214,0.45236 -0.439761,0.54892 -0.155561,0.0965 -0.378603,0.14512 -0.671036,0.14512 h -0.718886 v -2.11847 z m 5.076628,0 v 3.30004 c 0,0.53861 0.184308,0.9883 0.55141,1.34906 0.367099,0.3557 0.892346,0.53312 1.576763,0.53312 0.647081,0 1.122643,-0.13449 1.427516,-0.40378 0.311098,-0.2744 0.511015,-0.52117 0.598122,-0.73966 0.08711,-0.22356 0.129883,-0.50529 0.129883,-0.84572 v -3.19305 H 62.17422 v 3.14746 c 0,0.23373 -0.01566,0.41683 -0.04671,0.54892 -0.03112,0.12711 -0.130488,0.30447 -0.298491,0.53312 -0.161776,0.22357 -0.478429,0.33586 -0.951298,0.33586 -0.423093,0 -0.750706,-0.11702 -0.980919,-0.35075 -0.230212,-0.23374 -0.345202,-0.56641 -0.345202,-0.9983 v -3.21631 z m 5.320432,0 v 5.08358 h 0.830536 v -2.34826 h 2.734268 v 2.34826 h 0.830534 v -5.08358 h -0.830534 v 2.14916 h -2.734268 v -2.14916 z" />
  </g>
</svg>
